<svg xmlns="http://www.w3.org/2000/svg" width="338" height="347" viewBox="0 0 338 347"><path d="M 29.00 240.50 L 28.50 240.00 L 28.50 239.00 L 28.50 238.00 L 28.50 237.00 L 28.50 236.00 L 28.50 235.00 L 28.50 234.00 L 28.50 233.00 L 28.50 232.00 L 28.50 231.00 L 28.50 230.00 L 28.50 229.00 L 28.50 228.00 L 28.50 227.00 L 28.50 226.00 L 28.50 225.00 L 28.50 224.00 L 28.50 223.00 L 28.50 222.00 L 28.50 221.00 L 28.50 220.00 L 28.50 219.00 L 28.50 218.00 L 28.50 217.00 L 28.50 216.00 L 28.50 215.00 L 28.50 214.00 L 28.50 213.00 L 28.50 212.00 L 28.50 211.00 L 28.50 210.00 L 28.50 209.00 L 28.50 208.00 L 28.50 207.00 L 28.50 206.00 L 28.50 205.00 L 28.50 204.00 L 28.50 203.00 L 28.50 202.00 L 28.50 201.00 L 28.50 200.00 L 28.50 199.00 L 28.50 198.00 L 28.50 197.00 L 28.50 196.00 L 28.50 195.00 L 28.50 194.00 L 28.50 193.00 L 28.50 192.00 L 28.50 191.00 L 28.50 190.00 L 28.50 189.00 L 28.50 188.00 L 28.50 187.00 L 28.50 186.00 L 28.50 185.00 L 28.50 184.00 L 28.50 183.00 L 28.50 182.00 L 28.50 181.00 L 28.50 180.00 L 28.50 179.00 L 28.50 178.00 L 28.50 177.00 L 28.50 176.00 L 28.50 175.00 L 28.50 174.00 L 28.50 173.00 L 28.50 172.00 L 28.50 171.00 L 28.50 170.00 L 28.50 169.00 L 28.50 168.00 L 28.50 167.00 L 28.50 166.00 L 28.50 165.00 L 28.50 164.00 L 28.50 163.00 L 28.50 162.00 L 28.50 161.00 L 28.50 160.00 L 28.50 159.00 L 28.50 158.00 L 28.50 157.00 L 28.50 156.00 L 28.50 155.00 L 28.50 154.00 L 28.50 153.00 L 28.50 152.00 L 28.50 151.00 L 28.50 150.00 L 28.50 149.00 L 28.50 148.00 L 28.50 147.00 L 28.50 146.00 L 28.50 145.00 L 28.50 144.00 L 28.50 143.00 L 28.50 142.00 L 28.50 141.00 L 28.50 140.00 L 28.50 139.00 L 28.50 138.00 L 28.50 137.00 L 28.50 136.00 L 28.50 135.00 L 28.50 134.00 L 28.50 133.00 L 28.50 132.00 L 28.50 131.00 L 28.50 130.00 L 28.50 129.00 L 28.50 128.00 L 28.50 127.00 L 28.50 126.00 L 28.50 125.00 L 28.50 124.00 L 28.50 123.00 L 28.50 122.00 L 28.50 121.00 L 28.50 120.00 L 28.50 119.00 L 28.50 118.00 L 28.50 117.00 L 28.50 116.00 L 28.50 115.00 L 28.50 114.00 L 28.50 113.00 L 28.50 112.00 L 28.50 111.00 L 28.50 110.00 L 28.50 109.00 L 29.00 108.50 L 29.50 109.00 L 29.50 110.00 L 29.50 111.00 L 29.50 112.00 L 29.50 113.00 L 29.50 114.00 L 29.50 115.00 L 29.50 116.00 L 29.50 117.00 L 29.50 118.00 L 29.50 119.00 L 29.50 120.00 L 29.50 121.00 L 29.50 122.00 L 29.50 123.00 L 29.50 124.00 L 29.50 125.00 L 29.50 126.00 L 29.50 127.00 L 29.50 128.00 L 29.50 129.00 L 29.50 130.00 L 29.50 131.00 L 29.50 132.00 L 29.50 133.00 L 29.50 134.00 L 29.50 135.00 L 29.50 136.00 L 29.50 137.00 L 29.50 138.00 L 29.50 139.00 L 29.50 140.00 L 29.50 141.00 L 29.50 142.00 L 29.50 143.00 L 29.50 144.00 L 29.50 145.00 L 29.50 146.00 L 29.50 147.00 L 29.50 148.00 L 29.50 149.00 L 29.50 150.00 L 29.50 151.00 L 29.50 152.00 L 29.50 153.00 L 29.50 154.00 L 29.50 155.00 L 29.50 156.00 L 29.50 157.00 L 29.50 158.00 L 29.50 159.00 L 29.50 160.00 L 29.50 161.00 L 29.50 162.00 L 29.50 163.00 L 29.50 164.00 L 29.50 165.00 L 29.50 166.00 L 29.50 167.00 L 29.50 168.00 L 29.50 169.00 L 29.50 170.00 L 29.50 171.00 L 29.50 172.00 L 29.50 173.00 L 29.50 174.00 L 29.50 175.00 L 29.50 176.00 L 29.50 177.00 L 29.50 178.00 L 29.50 179.00 L 29.50 180.00 L 29.50 181.00 L 29.50 182.00 L 29.50 183.00 L 29.50 184.00 L 29.50 185.00 L 29.50 186.00 L 29.50 187.00 L 29.50 188.00 L 29.50 189.00 L 29.50 190.00 L 29.50 191.00 L 29.50 192.00 L 29.50 193.00 L 29.50 194.00 L 29.50 195.00 L 29.50 196.00 L 29.50 197.00 L 29.50 198.00 L 29.50 199.00 L 29.50 200.00 L 29.50 201.00 L 29.50 202.00 L 29.50 203.00 L 29.50 204.00 L 29.50 205.00 L 29.50 206.00 L 29.50 207.00 L 29.50 208.00 L 29.50 209.00 L 29.50 210.00 L 29.50 211.00 L 29.50 212.00 L 29.50 213.00 L 29.50 214.00 L 29.50 215.00 L 29.50 216.00 L 29.50 217.00 L 29.50 218.00 L 29.50 219.00 L 29.50 220.00 L 29.50 221.00 L 29.50 222.00 L 29.50 223.00 L 29.50 224.00 L 29.50 225.00 L 29.50 226.00 L 29.50 227.00 L 29.50 228.00 L 29.50 229.00 L 29.50 230.00 L 29.50 231.00 L 29.50 232.00 L 29.50 233.00 L 29.50 234.00 L 29.50 235.00 L 29.50 236.00 L 29.50 237.00 L 29.50 238.00 L 29.50 239.00 L 29.50 240.00 L 29.00 240.50 Z M 290.00 235.50 L 289.50 235.00 L 289.50 234.00 L 289.50 233.00 L 289.50 232.00 L 289.50 231.00 L 289.50 230.00 L 289.50 229.00 L 289.50 228.00 L 289.50 227.00 L 289.50 226.00 L 289.50 225.00 L 289.50 224.00 L 289.50 223.00 L 289.50 222.00 L 289.50 221.00 L 289.50 220.00 L 289.50 219.00 L 289.50 218.00 L 289.50 217.00 L 289.50 216.00 L 289.50 215.00 L 289.50 214.00 L 289.50 213.00 L 289.50 212.00 L 289.50 211.00 L 289.50 210.00 L 289.50 209.00 L 289.50 208.00 L 289.50 207.00 L 289.50 206.00 L 289.50 205.00 L 289.50 204.00 L 289.50 203.00 L 289.50 202.00 L 289.50 201.00 L 289.50 200.00 L 289.50 199.00 L 289.50 198.00 L 289.50 197.00 L 289.50 196.00 L 289.50 195.00 L 289.50 194.00 L 289.50 193.00 L 289.50 192.00 L 289.50 191.00 L 289.50 190.00 L 289.50 189.00 L 289.50 188.00 L 289.50 187.00 L 289.50 186.00 L 289.50 185.00 L 289.50 184.00 L 289.50 183.00 L 289.50 182.00 L 289.50 181.00 L 289.50 180.00 L 289.50 179.00 L 289.50 178.00 L 289.50 177.00 L 289.50 176.00 L 289.50 175.00 L 289.50 174.00 L 289.50 173.00 L 289.50 172.00 L 289.50 171.00 L 289.50 170.00 L 289.50 169.00 L 289.50 168.00 L 289.50 167.00 L 289.50 166.00 L 289.50 165.00 L 289.50 164.00 L 289.50 163.00 L 289.50 162.00 L 289.50 161.00 L 289.50 160.00 L 289.50 159.00 L 289.50 158.00 L 289.50 157.00 L 289.50 156.00 L 289.50 155.00 L 289.50 154.00 L 289.50 153.00 L 289.50 152.00 L 289.50 151.00 L 289.50 150.00 L 289.50 149.00 L 289.50 148.00 L 289.50 147.00 L 289.50 146.00 L 289.50 145.00 L 289.50 144.00 L 289.50 143.00 L 289.50 142.00 L 289.50 141.00 L 289.50 140.00 L 289.50 139.00 L 289.50 138.00 L 289.50 137.00 L 289.50 136.00 L 289.50 135.00 L 289.50 134.00 L 289.50 133.00 L 289.50 132.00 L 289.50 131.00 L 289.50 130.00 L 289.50 129.00 L 289.50 128.00 L 289.50 127.00 L 289.50 126.00 L 289.50 125.00 L 289.50 124.00 L 289.50 123.00 L 289.50 122.00 L 289.50 121.00 L 289.50 120.00 L 289.50 119.00 L 289.50 118.00 L 289.50 117.00 L 289.50 116.00 L 289.50 115.00 L 289.50 114.00 L 289.50 113.00 L 289.50 112.00 L 289.50 111.00 L 289.50 110.00 L 289.50 109.00 L 290.00 108.50 L 290.50 109.00 L 290.50 110.00 L 290.50 111.00 L 290.50 112.00 L 290.50 113.00 L 290.50 114.00 L 290.50 115.00 L 290.50 116.00 L 290.50 117.00 L 290.50 118.00 L 290.50 119.00 L 290.50 120.00 L 290.50 121.00 L 290.50 122.00 L 290.50 123.00 L 290.50 124.00 L 290.50 125.00 L 290.50 126.00 L 290.50 127.00 L 290.50 128.00 L 290.50 129.00 L 290.50 130.00 L 290.50 131.00 L 290.50 132.00 L 290.50 133.00 L 290.50 134.00 L 290.50 135.00 L 290.50 136.00 L 290.50 137.00 L 290.50 138.00 L 290.50 139.00 L 290.50 140.00 L 290.50 141.00 L 290.50 142.00 L 290.50 143.00 L 290.50 144.00 L 290.50 145.00 L 290.50 146.00 L 290.50 147.00 L 290.50 148.00 L 290.50 149.00 L 290.50 150.00 L 290.50 151.00 L 290.50 152.00 L 290.50 153.00 L 290.50 154.00 L 290.50 155.00 L 290.50 156.00 L 290.50 157.00 L 290.50 158.00 L 290.50 159.00 L 290.50 160.00 L 290.50 161.00 L 290.50 162.00 L 290.50 163.00 L 290.50 164.00 L 290.50 165.00 L 290.50 166.00 L 290.50 167.00 L 290.50 168.00 L 290.50 169.00 L 290.50 170.00 L 290.50 171.00 L 290.50 172.00 L 290.50 173.00 L 290.50 174.00 L 290.50 175.00 L 290.50 176.00 L 290.50 177.00 L 290.50 178.00 L 290.50 179.00 L 290.50 180.00 L 290.50 181.00 L 290.50 182.00 L 290.50 183.00 L 290.50 184.00 L 290.50 185.00 L 290.50 186.00 L 290.50 187.00 L 290.50 188.00 L 290.50 189.00 L 290.50 190.00 L 290.50 191.00 L 290.50 192.00 L 290.50 193.00 L 290.50 194.00 L 290.50 195.00 L 290.50 196.00 L 290.50 197.00 L 290.50 198.00 L 290.50 199.00 L 290.50 200.00 L 290.50 201.00 L 290.50 202.00 L 290.50 203.00 L 290.50 204.00 L 290.50 205.00 L 290.50 206.00 L 290.50 207.00 L 290.50 208.00 L 290.50 209.00 L 290.50 210.00 L 290.50 211.00 L 290.50 212.00 L 290.50 213.00 L 290.50 214.00 L 290.50 215.00 L 290.50 216.00 L 290.50 217.00 L 290.50 218.00 L 290.50 219.00 L 290.50 220.00 L 290.50 221.00 L 290.50 222.00 L 290.50 223.00 L 290.50 224.00 L 290.50 225.00 L 290.50 226.00 L 290.50 227.00 L 290.50 228.00 L 290.50 229.00 L 290.50 230.00 L 290.50 231.00 L 290.50 232.00 L 290.50 233.00 L 290.50 234.00 L 290.50 235.00 L 290.00 235.50 Z M 44.00 235.50 L 43.50 235.00 L 43.50 234.00 L 43.50 233.00 L 43.50 232.00 L 43.50 231.00 L 43.50 230.00 L 43.50 229.00 L 43.50 228.00 L 43.50 227.00 L 43.50 226.00 L 43.50 225.00 L 43.50 224.00 L 43.50 223.00 L 43.50 222.00 L 43.50 221.00 L 43.50 220.00 L 43.50 219.00 L 43.50 218.00 L 43.50 217.00 L 43.50 216.00 L 43.50 215.00 L 43.50 214.00 L 43.50 213.00 L 43.50 212.00 L 43.50 211.00 L 43.50 210.00 L 43.50 209.00 L 43.50 208.00 L 43.50 207.00 L 43.50 206.00 L 43.50 205.00 L 43.50 204.00 L 43.50 203.00 L 43.50 202.00 L 43.50 201.00 L 43.50 200.00 L 43.50 199.00 L 43.50 198.00 L 43.50 197.00 L 43.50 196.00 L 43.50 195.00 L 43.50 194.00 L 43.50 193.00 L 43.50 192.00 L 43.50 191.00 L 43.50 190.00 L 43.50 189.00 L 43.50 188.00 L 43.50 187.00 L 43.50 186.00 L 43.50 185.00 L 43.50 184.00 L 43.50 183.00 L 43.50 182.00 L 43.50 181.00 L 43.50 180.00 L 43.50 179.00 L 43.50 178.00 L 43.50 177.00 L 43.50 176.00 L 43.50 175.00 L 43.50 174.00 L 43.50 173.00 L 43.50 172.00 L 43.50 171.00 L 43.50 170.00 L 43.50 169.00 L 43.50 168.00 L 43.50 167.00 L 43.50 166.00 L 43.50 165.00 L 43.50 164.00 L 43.50 163.00 L 43.50 162.00 L 43.50 161.00 L 43.50 160.00 L 43.50 159.00 L 43.50 158.00 L 43.50 157.00 L 43.50 156.00 L 43.50 155.00 L 43.50 154.00 L 43.50 153.00 L 43.50 152.00 L 43.50 151.00 L 43.50 150.00 L 43.50 149.00 L 43.50 148.00 L 43.50 147.00 L 43.50 146.00 L 43.50 145.00 L 43.50 144.00 L 43.50 143.00 L 43.50 142.00 L 43.50 141.00 L 43.50 140.00 L 43.50 139.00 L 43.50 138.00 L 43.50 137.00 L 43.50 136.00 L 43.50 135.00 L 43.50 134.00 L 43.50 133.00 L 43.50 132.00 L 43.50 131.00 L 43.50 130.00 L 43.50 129.00 L 43.50 128.00 L 43.50 127.00 L 43.50 126.00 L 43.50 125.00 L 43.50 124.00 L 43.50 123.00 L 43.50 122.00 L 43.50 121.00 L 43.50 120.00 L 43.50 119.00 L 43.50 118.00 L 43.50 117.00 L 43.50 116.00 L 43.50 115.00 L 43.50 114.00 L 43.50 113.00 L 43.50 112.00 L 43.50 111.00 L 44.00 110.50 L 44.50 111.00 L 44.50 112.00 L 44.50 113.00 L 44.50 114.00 L 44.50 115.00 L 44.50 116.00 L 44.50 117.00 L 44.50 118.00 L 44.50 119.00 L 44.50 120.00 L 44.50 121.00 L 44.50 122.00 L 44.50 123.00 L 44.50 124.00 L 44.50 125.00 L 44.50 126.00 L 44.50 127.00 L 44.50 128.00 L 44.50 129.00 L 44.50 130.00 L 44.50 131.00 L 44.50 132.00 L 44.50 133.00 L 44.50 134.00 L 44.50 135.00 L 44.50 136.00 L 44.50 137.00 L 44.50 138.00 L 44.50 139.00 L 44.50 140.00 L 44.50 141.00 L 44.50 142.00 L 44.50 143.00 L 44.50 144.00 L 44.50 145.00 L 44.50 146.00 L 44.50 147.00 L 44.50 148.00 L 44.50 149.00 L 44.50 150.00 L 44.50 151.00 L 44.50 152.00 L 44.50 153.00 L 44.50 154.00 L 44.50 155.00 L 44.50 156.00 L 44.50 157.00 L 44.50 158.00 L 44.50 159.00 L 44.50 160.00 L 44.50 161.00 L 44.50 162.00 L 44.50 163.00 L 44.50 164.00 L 44.50 165.00 L 44.50 166.00 L 44.50 167.00 L 44.50 168.00 L 44.50 169.00 L 44.50 170.00 L 44.50 171.00 L 44.50 172.00 L 44.50 173.00 L 44.50 174.00 L 44.50 175.00 L 44.50 176.00 L 44.50 177.00 L 44.50 178.00 L 44.50 179.00 L 44.50 180.00 L 44.50 181.00 L 44.50 182.00 L 44.50 183.00 L 44.50 184.00 L 44.50 185.00 L 44.50 186.00 L 44.50 187.00 L 44.50 188.00 L 44.50 189.00 L 44.50 190.00 L 44.50 191.00 L 44.50 192.00 L 44.50 193.00 L 44.50 194.00 L 44.50 195.00 L 44.50 196.00 L 44.50 197.00 L 44.50 198.00 L 44.50 199.00 L 44.50 200.00 L 44.50 201.00 L 44.50 202.00 L 44.50 203.00 L 44.50 204.00 L 44.50 205.00 L 44.50 206.00 L 44.50 207.00 L 44.50 208.00 L 44.50 209.00 L 44.50 210.00 L 44.50 211.00 L 44.50 212.00 L 44.50 213.00 L 44.50 214.00 L 44.50 215.00 L 44.50 216.00 L 44.50 217.00 L 44.50 218.00 L 44.50 219.00 L 44.50 220.00 L 44.50 221.00 L 44.50 222.00 L 44.50 223.00 L 44.50 224.00 L 44.50 225.00 L 44.50 226.00 L 44.50 227.00 L 44.50 228.00 L 44.50 229.00 L 44.50 230.00 L 44.50 231.00 L 44.50 232.00 L 44.50 233.00 L 44.50 234.00 L 44.50 235.00 L 44.00 235.50 Z M 257.00 111.50 L 256.00 111.50 L 255.00 111.50 L 254.00 111.50 L 253.00 111.50 L 252.00 111.50 L 251.00 111.50 L 250.00 111.50 L 249.00 111.50 L 248.00 111.50 L 247.00 111.50 L 246.00 111.50 L 245.00 111.50 L 244.00 111.50 L 243.00 111.50 L 242.00 111.50 L 241.00 111.50 L 240.00 111.50 L 239.00 111.50 L 238.00 111.50 L 237.00 111.50 L 236.00 111.50 L 235.00 111.50 L 234.00 111.50 L 233.00 111.50 L 232.00 111.50 L 231.00 111.50 L 230.00 111.50 L 229.00 111.50 L 228.00 111.50 L 227.00 111.50 L 226.00 111.50 L 225.00 111.50 L 224.50 111.00 L 225.00 110.50 L 226.00 110.50 L 227.00 110.50 L 228.00 110.50 L 229.00 110.50 L 230.00 110.50 L 231.00 110.50 L 232.00 110.50 L 233.00 110.50 L 234.00 110.50 L 235.00 110.50 L 236.00 110.50 L 237.00 110.50 L 238.00 110.50 L 239.00 110.50 L 240.00 110.50 L 241.00 110.50 L 242.00 110.50 L 243.00 110.50 L 244.00 110.50 L 245.00 110.50 L 246.00 110.50 L 247.00 110.50 L 248.00 110.50 L 249.00 110.50 L 250.00 110.50 L 251.00 110.50 L 252.00 110.50 L 253.00 110.50 L 254.00 110.50 L 255.00 110.50 L 256.00 110.50 L 257.00 110.50 L 257.50 111.00 L 257.00 111.50 Z M 58.00 227.50 L 57.50 227.00 L 57.50 226.00 L 57.50 225.00 L 57.50 224.00 L 57.50 223.00 L 57.50 222.00 L 57.50 221.00 L 57.50 220.00 L 57.50 219.00 L 57.50 218.00 L 57.50 217.00 L 57.50 216.00 L 57.50 215.00 L 57.50 214.00 L 57.50 213.00 L 57.50 212.00 L 57.50 211.00 L 57.50 210.00 L 57.50 209.00 L 57.50 208.00 L 57.50 207.00 L 57.50 206.00 L 57.50 205.00 L 57.50 204.00 L 57.50 203.00 L 57.50 202.00 L 57.50 201.00 L 57.50 200.00 L 57.50 199.00 L 57.50 198.00 L 57.50 197.00 L 57.50 196.00 L 57.50 195.00 L 57.50 194.00 L 57.50 193.00 L 57.50 192.00 L 57.50 191.00 L 57.50 190.00 L 57.50 189.00 L 57.50 188.00 L 57.50 187.00 L 57.50 186.00 L 57.50 185.00 L 57.50 184.00 L 57.50 183.00 L 57.50 182.00 L 57.50 181.00 L 57.50 180.00 L 57.50 179.00 L 57.50 178.00 L 57.50 177.00 L 57.50 176.00 L 57.50 175.00 L 57.50 174.00 L 57.50 173.00 L 57.50 172.00 L 57.50 171.00 L 57.50 170.00 L 57.50 169.00 L 57.50 168.00 L 57.50 167.00 L 57.50 166.00 L 57.50 165.00 L 57.50 164.00 L 57.50 163.00 L 57.50 162.00 L 57.50 161.00 L 57.50 160.00 L 57.50 159.00 L 57.50 158.00 L 57.50 157.00 L 57.50 156.00 L 57.50 155.00 L 57.50 154.00 L 57.50 153.00 L 57.50 152.00 L 57.50 151.00 L 57.50 150.00 L 57.50 149.00 L 57.50 148.00 L 57.50 147.00 L 57.50 146.00 L 57.50 145.00 L 57.50 144.00 L 57.50 143.00 L 57.50 142.00 L 57.50 141.00 L 57.50 140.00 L 57.50 139.00 L 57.50 138.00 L 57.50 137.00 L 57.50 136.00 L 57.50 135.00 L 57.50 134.00 L 57.50 133.00 L 57.50 132.00 L 57.50 131.00 L 57.50 130.00 L 57.50 129.00 L 57.50 128.00 L 57.50 127.00 L 57.50 126.00 L 57.50 125.00 L 57.50 124.00 L 57.50 123.00 L 57.50 122.00 L 57.50 121.00 L 57.50 120.00 L 57.50 119.00 L 58.00 118.50 L 58.50 119.00 L 58.50 120.00 L 58.50 121.00 L 58.50 122.00 L 58.50 123.00 L 58.50 124.00 L 58.50 125.00 L 58.50 126.00 L 58.50 127.00 L 58.50 128.00 L 58.50 129.00 L 58.50 130.00 L 58.50 131.00 L 58.50 132.00 L 58.50 133.00 L 58.50 134.00 L 58.50 135.00 L 58.50 136.00 L 58.50 137.00 L 58.50 138.00 L 58.50 139.00 L 58.50 140.00 L 58.50 141.00 L 58.50 142.00 L 58.50 143.00 L 58.50 144.00 L 58.50 145.00 L 58.50 146.00 L 58.50 147.00 L 58.50 148.00 L 58.50 149.00 L 58.50 150.00 L 58.50 151.00 L 58.50 152.00 L 58.50 153.00 L 58.50 154.00 L 58.50 155.00 L 58.50 156.00 L 58.50 157.00 L 58.50 158.00 L 58.50 159.00 L 58.50 160.00 L 58.50 161.00 L 58.50 162.00 L 58.50 163.00 L 58.50 164.00 L 58.50 165.00 L 58.50 166.00 L 58.50 167.00 L 58.50 168.00 L 58.50 169.00 L 58.50 170.00 L 58.50 171.00 L 58.50 172.00 L 58.50 173.00 L 58.50 174.00 L 58.50 175.00 L 58.50 176.00 L 58.50 177.00 L 58.50 178.00 L 58.50 179.00 L 58.50 180.00 L 58.50 181.00 L 58.50 182.00 L 58.50 183.00 L 58.50 184.00 L 58.50 185.00 L 58.50 186.00 L 58.50 187.00 L 58.50 188.00 L 58.50 189.00 L 58.50 190.00 L 58.50 191.00 L 58.50 192.00 L 58.50 193.00 L 58.50 194.00 L 58.50 195.00 L 58.50 196.00 L 58.50 197.00 L 58.50 198.00 L 58.50 199.00 L 58.50 200.00 L 58.50 201.00 L 58.50 202.00 L 58.50 203.00 L 58.50 204.00 L 58.50 205.00 L 58.50 206.00 L 58.50 207.00 L 58.50 208.00 L 58.50 209.00 L 58.50 210.00 L 58.50 211.00 L 58.50 212.00 L 58.50 213.00 L 58.50 214.00 L 58.50 215.00 L 58.50 216.00 L 58.50 217.00 L 58.50 218.00 L 58.50 219.00 L 58.50 220.00 L 58.50 221.00 L 58.50 222.00 L 58.50 223.00 L 58.50 224.00 L 58.50 225.00 L 58.50 226.00 L 58.50 227.00 L 58.00 227.50 Z M 276.00 228.50 L 275.50 228.00 L 275.50 227.00 L 275.50 226.00 L 275.50 225.00 L 275.50 224.00 L 275.50 223.00 L 275.50 222.00 L 275.50 221.00 L 275.50 220.00 L 275.50 219.00 L 275.50 218.00 L 275.50 217.00 L 275.50 216.00 L 275.50 215.00 L 275.50 214.00 L 275.50 213.00 L 275.50 212.00 L 275.50 211.00 L 275.50 210.00 L 275.50 209.00 L 275.50 208.00 L 275.50 207.00 L 275.50 206.00 L 275.50 205.00 L 275.50 204.00 L 275.50 203.00 L 275.50 202.00 L 275.50 201.00 L 275.50 200.00 L 275.50 199.00 L 275.50 198.00 L 275.50 197.00 L 275.50 196.00 L 275.50 195.00 L 275.50 194.00 L 275.50 193.00 L 275.50 192.00 L 275.50 191.00 L 275.50 190.00 L 275.50 189.00 L 275.50 188.00 L 275.50 187.00 L 275.50 186.00 L 275.50 185.00 L 275.50 184.00 L 275.50 183.00 L 275.50 182.00 L 275.50 181.00 L 275.50 180.00 L 275.50 179.00 L 275.50 178.00 L 275.50 177.00 L 275.50 176.00 L 275.50 175.00 L 275.50 174.00 L 275.50 173.00 L 275.50 172.00 L 275.50 171.00 L 275.50 170.00 L 275.50 169.00 L 275.50 168.00 L 275.50 167.00 L 275.50 166.00 L 275.50 165.00 L 275.50 164.00 L 275.50 163.00 L 275.50 162.00 L 275.50 161.00 L 275.50 160.00 L 275.50 159.00 L 275.50 158.00 L 275.50 157.00 L 275.50 156.00 L 275.50 155.00 L 275.50 154.00 L 275.50 153.00 L 275.50 152.00 L 275.50 151.00 L 275.50 150.00 L 275.50 149.00 L 275.50 148.00 L 275.50 147.00 L 275.50 146.00 L 275.50 145.00 L 275.50 144.00 L 275.50 143.00 L 275.50 142.00 L 275.50 141.00 L 275.50 140.00 L 275.50 139.00 L 275.50 138.00 L 275.50 137.00 L 275.50 136.00 L 275.50 135.00 L 275.50 134.00 L 275.50 133.00 L 275.50 132.00 L 275.50 131.00 L 275.50 130.00 L 275.50 129.00 L 275.50 128.00 L 275.50 127.00 L 275.50 126.00 L 275.50 125.00 L 275.50 124.00 L 275.50 123.00 L 275.50 122.00 L 275.50 121.00 L 275.50 120.00 L 275.50 119.00 L 276.00 118.50 L 276.50 119.00 L 276.50 120.00 L 276.50 121.00 L 276.50 122.00 L 276.50 123.00 L 276.50 124.00 L 276.50 125.00 L 276.50 126.00 L 276.50 127.00 L 276.50 128.00 L 276.50 129.00 L 276.50 130.00 L 276.50 131.00 L 276.50 132.00 L 276.50 133.00 L 276.50 134.00 L 276.50 135.00 L 276.50 136.00 L 276.50 137.00 L 276.50 138.00 L 276.50 139.00 L 276.50 140.00 L 276.50 141.00 L 276.50 142.00 L 276.50 143.00 L 276.50 144.00 L 276.50 145.00 L 276.50 146.00 L 276.50 147.00 L 276.50 148.00 L 276.50 149.00 L 276.50 150.00 L 276.50 151.00 L 276.50 152.00 L 276.50 153.00 L 276.50 154.00 L 276.50 155.00 L 276.50 156.00 L 276.50 157.00 L 276.50 158.00 L 276.50 159.00 L 276.50 160.00 L 276.50 161.00 L 276.50 162.00 L 276.50 163.00 L 276.50 164.00 L 276.50 165.00 L 276.50 166.00 L 276.50 167.00 L 276.50 168.00 L 276.50 169.00 L 276.50 170.00 L 276.50 171.00 L 276.50 172.00 L 276.50 173.00 L 276.50 174.00 L 276.50 175.00 L 276.50 176.00 L 276.50 177.00 L 276.50 178.00 L 276.50 179.00 L 276.50 180.00 L 276.50 181.00 L 276.50 182.00 L 276.50 183.00 L 276.50 184.00 L 276.50 185.00 L 276.50 186.00 L 276.50 187.00 L 276.50 188.00 L 276.50 189.00 L 276.50 190.00 L 276.50 191.00 L 276.50 192.00 L 276.50 193.00 L 276.50 194.00 L 276.50 195.00 L 276.50 196.00 L 276.50 197.00 L 276.50 198.00 L 276.50 199.00 L 276.50 200.00 L 276.50 201.00 L 276.50 202.00 L 276.50 203.00 L 276.50 204.00 L 276.50 205.00 L 276.50 206.00 L 276.50 207.00 L 276.50 208.00 L 276.50 209.00 L 276.50 210.00 L 276.50 211.00 L 276.50 212.00 L 276.50 213.00 L 276.50 214.00 L 276.50 215.00 L 276.50 216.00 L 276.50 217.00 L 276.50 218.00 L 276.50 219.00 L 276.50 220.00 L 276.50 221.00 L 276.50 222.00 L 276.50 223.00 L 276.50 224.00 L 276.50 225.00 L 276.50 226.00 L 276.50 227.00 L 276.50 228.00 L 276.00 228.50 Z M 260.00 219.50 L 259.50 219.00 L 259.50 218.00 L 259.50 217.00 L 259.50 216.00 L 259.50 215.00 L 259.50 214.00 L 259.50 213.00 L 259.50 212.00 L 259.50 211.00 L 259.50 210.00 L 259.50 209.00 L 259.50 208.00 L 259.50 207.00 L 259.50 206.00 L 259.50 205.00 L 259.50 204.00 L 259.50 203.00 L 259.50 202.00 L 259.50 201.00 L 259.50 200.00 L 259.50 199.00 L 259.50 198.00 L 259.50 197.00 L 259.50 196.00 L 259.50 195.00 L 259.50 194.00 L 259.50 193.00 L 259.50 192.00 L 259.50 191.00 L 259.50 190.00 L 259.50 189.00 L 259.50 188.00 L 259.50 187.00 L 259.50 186.00 L 259.50 185.00 L 259.50 184.00 L 259.50 183.00 L 259.50 182.00 L 259.50 181.00 L 259.50 180.00 L 259.50 179.00 L 259.50 178.00 L 259.50 177.00 L 259.50 176.00 L 259.50 175.00 L 259.50 174.00 L 259.50 173.00 L 259.50 172.00 L 259.50 171.00 L 259.50 170.00 L 259.50 169.00 L 259.50 168.00 L 259.50 167.00 L 259.50 166.00 L 259.50 165.00 L 259.50 164.00 L 259.50 163.00 L 259.50 162.00 L 259.50 161.00 L 259.50 160.00 L 259.50 159.00 L 259.50 158.00 L 259.50 157.00 L 259.50 156.00 L 259.50 155.00 L 259.50 154.00 L 259.50 153.00 L 259.50 152.00 L 259.50 151.00 L 259.50 150.00 L 259.50 149.00 L 259.50 148.00 L 259.50 147.00 L 259.50 146.00 L 259.50 145.00 L 259.00 144.50 L 258.50 144.00 L 259.00 143.50 L 260.00 143.50 L 260.50 144.00 L 260.50 145.00 L 260.50 146.00 L 260.50 147.00 L 260.50 148.00 L 260.50 149.00 L 260.50 150.00 L 260.50 151.00 L 260.50 152.00 L 260.50 153.00 L 260.50 154.00 L 260.50 155.00 L 260.50 156.00 L 260.50 157.00 L 260.50 158.00 L 260.50 159.00 L 260.50 160.00 L 260.50 161.00 L 260.50 162.00 L 260.50 163.00 L 260.50 164.00 L 260.50 165.00 L 260.50 166.00 L 260.50 167.00 L 260.50 168.00 L 260.50 169.00 L 260.50 170.00 L 260.50 171.00 L 260.50 172.00 L 260.50 173.00 L 260.50 174.00 L 260.50 175.00 L 260.50 176.00 L 260.50 177.00 L 260.50 178.00 L 260.50 179.00 L 260.50 180.00 L 260.50 181.00 L 260.50 182.00 L 260.50 183.00 L 260.50 184.00 L 260.50 185.00 L 260.50 186.00 L 260.50 187.00 L 260.50 188.00 L 260.50 189.00 L 260.50 190.00 L 260.50 191.00 L 260.50 192.00 L 260.50 193.00 L 260.50 194.00 L 260.50 195.00 L 260.50 196.00 L 260.50 197.00 L 260.50 198.00 L 260.50 199.00 L 260.50 200.00 L 260.50 201.00 L 260.50 202.00 L 260.50 203.00 L 260.50 204.00 L 260.50 205.00 L 260.50 206.00 L 260.50 207.00 L 260.50 208.00 L 260.50 209.00 L 260.50 210.00 L 260.50 211.00 L 260.50 212.00 L 260.50 213.00 L 260.50 214.00 L 260.50 215.00 L 260.50 216.00 L 260.50 217.00 L 260.50 218.00 L 260.50 219.00 L 260.00 219.50 Z M 225.00 164.50 L 224.00 164.50 L 223.00 164.50 L 222.00 164.50 L 221.00 164.50 L 220.00 164.50 L 219.00 164.50 L 218.00 164.50 L 217.00 164.50 L 216.00 164.50 L 215.00 164.50 L 214.00 164.50 L 213.00 164.50 L 212.00 164.50 L 211.00 164.50 L 210.00 164.50 L 209.50 164.00 L 210.00 163.50 L 211.00 163.50 L 212.00 163.50 L 213.00 163.50 L 214.00 163.50 L 215.00 163.50 L 216.00 163.50 L 217.00 163.50 L 218.00 163.50 L 219.00 163.50 L 220.00 163.50 L 221.00 163.50 L 222.00 163.50 L 223.00 163.50 L 224.00 163.50 L 225.00 163.50 L 225.50 164.00 L 225.00 164.50 Z M 210.00 180.50 L 209.00 180.50 L 208.00 180.50 L 207.00 180.50 L 206.00 180.50 L 205.00 180.50 L 204.00 180.50 L 203.00 180.50 L 202.00 180.50 L 201.00 180.50 L 200.00 180.50 L 199.00 180.50 L 198.00 180.50 L 197.00 180.50 L 196.00 180.50 L 195.00 180.50 L 194.00 180.50 L 193.00 180.50 L 192.00 180.50 L 191.00 180.50 L 190.00 180.50 L 189.00 180.50 L 188.00 180.50 L 187.00 180.50 L 186.00 180.50 L 185.00 180.50 L 184.00 180.50 L 183.50 180.00 L 184.00 179.50 L 185.00 179.50 L 186.00 179.50 L 187.00 179.50 L 188.00 179.50 L 189.00 179.50 L 190.00 179.50 L 191.00 179.50 L 192.00 179.50 L 193.00 179.50 L 194.00 179.50 L 195.00 179.50 L 196.00 179.50 L 197.00 179.50 L 198.00 179.50 L 199.00 179.50 L 200.00 179.50 L 201.00 179.50 L 202.00 179.50 L 203.00 179.50 L 204.00 179.50 L 205.00 179.50 L 206.00 179.50 L 207.00 179.50 L 208.00 179.50 L 209.00 179.50 L 210.00 179.50 L 210.50 180.00 L 210.00 180.50 Z M 214.00 206.50 L 213.50 206.00 L 213.50 205.00 L 213.50 204.00 L 213.50 203.00 L 213.50 202.00 L 213.50 201.00 L 213.50 200.00 L 213.50 199.00 L 213.50 198.00 L 213.50 197.00 L 213.50 196.00 L 213.50 195.00 L 213.50 194.00 L 213.50 193.00 L 213.50 192.00 L 213.50 191.00 L 213.50 190.00 L 213.50 189.00 L 213.50 188.00 L 213.50 187.00 L 213.50 186.00 L 213.50 185.00 L 214.00 184.50 L 214.50 185.00 L 214.50 186.00 L 214.50 187.00 L 214.50 188.00 L 214.50 189.00 L 214.50 190.00 L 214.50 191.00 L 214.50 192.00 L 214.50 193.00 L 214.50 194.00 L 214.50 195.00 L 214.50 196.00 L 214.50 197.00 L 214.50 198.00 L 214.50 199.00 L 214.50 200.00 L 214.50 201.00 L 214.50 202.00 L 214.50 203.00 L 214.50 204.00 L 214.50 205.00 L 214.50 206.00 L 214.00 206.50 Z" style="fill:#f9c3a3;"/>
<path d="M 171.00 325.50 L 168.00 324.50 L 164.50 325.00 L 163.00 324.50 L 161.50 323.00 L 159.00 323.50 L 157.50 322.00 L 156.00 320.50 L 154.00 318.50 L 151.00 317.50 L 148.50 316.00 L 146.00 314.50 L 143.50 313.00 L 141.00 311.50 L 141.00 309.50 L 138.50 310.00 L 136.00 308.50 L 133.50 307.00 L 131.00 305.50 L 128.50 304.00 L 127.00 302.50 L 126.00 302.50 L 123.50 301.00 L 121.00 301.50 L 119.50 299.00 L 117.00 297.50 L 115.00 295.50 L 112.00 294.50 L 109.50 294.00 L 108.00 292.50 L 106.00 290.50 L 103.00 289.50 L 100.50 288.00 L 98.00 286.50 L 96.00 284.50 L 93.00 283.50 L 90.50 282.00 L 88.00 280.50 L 85.50 280.00 L 84.00 278.50 L 82.00 276.50 L 79.00 275.50 L 76.50 274.00 L 74.00 272.50 L 71.50 271.00 L 69.00 269.50 L 66.50 268.00 L 64.00 266.50 L 62.50 266.00 L 60.00 264.50 L 57.50 263.00 L 55.00 261.50 L 52.50 260.00 L 50.00 258.50 L 48.50 258.00 L 46.50 257.00 L 45.00 255.50 L 42.50 254.00 L 40.00 252.50 L 37.00 251.50 L 35.00 249.50 L 33.00 249.50 L 32.00 247.50 L 31.50 245.00 L 29.50 243.00 L 30.50 240.00 L 30.50 236.00 L 30.50 232.00 L 30.50 228.00 L 30.50 224.00 L 30.50 220.00 L 30.50 216.00 L 30.50 212.00 L 30.50 208.00 L 30.50 204.00 L 30.50 200.00 L 30.50 196.00 L 30.50 192.00 L 30.50 188.00 L 30.50 184.00 L 30.50 180.00 L 30.50 176.00 L 30.50 172.00 L 30.50 168.00 L 30.50 164.00 L 30.50 160.00 L 30.50 156.00 L 30.50 152.00 L 30.50 148.00 L 30.50 144.00 L 30.50 140.00 L 30.50 136.00 L 30.50 132.00 L 30.50 128.00 L 30.50 124.00 L 30.50 120.00 L 30.50 116.00 L 30.50 112.00 L 30.50 108.00 L 30.50 104.00 L 31.00 102.50 L 32.50 100.00 L 33.50 97.00 L 36.00 95.50 L 38.00 93.50 L 41.00 92.50 L 43.00 90.50 L 46.00 89.50 L 48.50 88.00 L 51.00 86.50 L 53.00 84.50 L 56.00 83.50 L 58.50 82.00 L 61.00 80.50 L 63.50 79.00 L 66.00 77.50 L 68.50 76.00 L 71.00 74.50 L 73.50 73.00 L 75.50 71.00 L 77.00 70.50 L 78.50 69.00 L 81.00 68.50 L 83.50 67.00 L 86.00 65.50 L 88.50 64.00 L 91.00 62.50 L 93.50 61.00 L 96.00 59.50 L 98.50 58.00 L 101.00 56.50 L 104.00 55.50 L 106.00 53.50 L 107.50 52.00 L 109.50 53.00 L 110.00 51.50 L 112.50 50.00 L 115.00 48.50 L 117.50 47.00 L 120.00 45.50 L 122.50 44.00 L 125.50 43.00 L 127.50 41.00 L 130.00 39.50 L 131.50 38.00 L 134.00 37.50 L 134.00 35.50 L 136.50 36.00 L 139.00 34.50 L 141.50 33.00 L 144.00 31.50 L 147.00 30.50 L 149.00 28.50 L 150.50 27.00 L 153.00 26.50 L 155.00 24.50 L 157.50 23.00 L 159.00 22.50 L 162.00 21.50 L 165.00 20.50 L 169.00 20.50 L 172.00 21.50 L 175.00 22.50 L 177.00 24.50 L 180.00 25.50 L 182.00 25.50 L 183.50 28.00 L 186.00 29.50 L 187.50 30.00 L 190.00 31.50 L 192.50 33.00 L 195.00 34.50 L 197.00 36.50 L 200.00 37.50 L 202.50 39.00 L 205.00 40.50 L 207.50 42.00 L 210.00 43.50 L 212.50 44.00 L 214.00 45.50 L 216.50 47.00 L 219.00 48.50 L 221.50 50.00 L 224.00 51.50 L 226.50 53.00 L 229.00 54.50 L 231.50 56.00 L 234.00 57.50 L 236.50 59.00 L 239.00 60.50 L 241.50 62.00 L 244.00 63.50 L 246.50 65.00 L 249.00 66.50 L 252.00 67.50 L 254.00 67.50 L 255.50 69.00 L 257.00 70.50 L 259.50 72.00 L 262.00 73.50 L 263.50 74.00 L 266.00 75.50 L 268.00 75.50 L 269.50 78.00 L 272.00 79.50 L 274.50 81.00 L 277.00 82.50 L 279.50 84.00 L 282.00 85.50 L 284.50 87.00 L 287.00 88.50 L 290.00 89.50 L 292.00 89.50 L 293.00 92.50 L 296.00 93.50 L 298.50 95.00 L 300.50 97.00 L 302.00 99.50 L 303.00 102.50 L 303.50 106.00 L 303.50 110.00 L 303.50 114.00 L 303.50 118.00 L 303.50 122.00 L 303.50 126.00 L 303.50 130.00 L 303.50 134.00 L 303.50 138.00 L 303.50 142.00 L 303.50 146.00 L 303.50 150.00 L 303.50 154.00 L 303.50 158.00 L 303.50 162.00 L 303.50 166.00 L 303.50 170.00 L 303.50 174.00 L 303.50 178.00 L 303.50 182.00 L 303.50 186.00 L 303.50 190.00 L 303.50 194.00 L 303.50 198.00 L 303.50 202.00 L 303.50 206.00 L 303.50 210.00 L 303.50 214.00 L 303.50 218.00 L 303.50 222.00 L 303.50 226.00 L 303.50 230.00 L 303.50 234.00 L 303.50 238.00 L 303.50 242.00 L 302.50 245.00 L 301.00 247.50 L 299.00 249.50 L 296.50 251.00 L 294.00 252.50 L 291.50 254.00 L 289.00 255.50 L 286.50 257.00 L 284.00 258.50 L 281.00 259.50 L 279.00 261.50 L 276.00 262.50 L 273.50 264.00 L 271.00 265.50 L 269.00 267.50 L 266.00 268.50 L 264.50 271.00 L 262.50 271.00 L 260.00 272.50 L 257.50 274.00 L 256.00 276.50 L 253.50 276.00 L 251.00 277.50 L 248.50 279.00 L 248.00 280.50 L 244.50 281.00 L 242.00 282.50 L 240.00 284.50 L 237.00 285.50 L 235.00 287.50 L 232.00 288.50 L 229.50 290.00 L 227.00 291.50 L 224.50 293.00 L 222.00 294.50 L 219.50 296.00 L 218.00 298.50 L 215.50 298.00 L 213.00 299.50 L 210.50 301.00 L 208.00 302.50 L 205.50 304.00 L 203.00 305.50 L 200.50 307.00 L 198.00 308.50 L 195.50 310.00 L 193.00 311.50 L 190.50 313.00 L 188.00 314.50 L 185.50 316.00 L 183.00 317.50 L 181.50 319.00 L 179.00 319.50 L 176.50 321.00 L 174.00 322.50 L 171.00 323.50 L 171.00 325.50 Z M 170.50 310.00 L 173.50 309.00 L 176.00 307.50 L 178.50 306.00 L 181.00 304.50 L 183.50 303.00 L 186.00 301.50 L 188.50 300.00 L 191.00 298.50 L 193.50 297.00 L 196.00 295.50 L 197.50 294.00 L 200.00 293.50 L 202.50 292.00 L 205.00 290.50 L 207.50 289.00 L 210.00 287.50 L 213.00 286.50 L 215.00 284.50 L 217.50 283.00 L 220.00 281.50 L 221.50 280.00 L 224.00 279.50 L 226.50 278.00 L 228.00 275.50 L 230.00 275.50 L 231.50 274.00 L 234.00 273.50 L 236.50 272.00 L 237.00 270.50 L 239.00 270.50 L 241.50 269.00 L 244.00 267.50 L 246.50 266.00 L 249.50 265.00 L 250.50 263.00 L 252.50 262.00 L 254.50 260.00 L 257.00 260.50 L 259.00 258.50 L 262.00 257.50 L 263.50 255.00 L 265.50 255.00 L 268.00 253.50 L 269.50 252.00 L 272.00 251.50 L 274.50 250.00 L 277.00 248.50 L 279.50 247.00 L 282.00 245.50 L 284.50 244.00 L 287.00 242.50 L 289.00 240.50 L 290.50 238.00 L 290.00 235.50 L 291.50 235.00 L 291.50 231.00 L 291.50 227.00 L 291.50 223.00 L 291.50 219.00 L 291.50 215.00 L 291.50 211.00 L 291.50 207.00 L 291.50 203.00 L 291.50 199.00 L 291.50 195.00 L 291.50 191.00 L 291.50 187.00 L 291.50 183.00 L 291.50 179.00 L 291.50 175.00 L 291.50 171.00 L 291.50 167.00 L 291.50 163.00 L 291.50 159.00 L 291.50 155.00 L 291.50 151.00 L 291.50 147.00 L 291.50 143.00 L 291.50 139.00 L 291.50 135.00 L 291.50 131.00 L 291.50 127.00 L 291.50 123.00 L 291.50 119.00 L 291.50 115.00 L 291.50 111.00 L 291.00 107.50 L 289.00 105.50 L 288.50 104.00 L 286.50 102.00 L 284.00 100.50 L 281.50 99.00 L 279.00 97.50 L 276.50 96.00 L 274.00 94.50 L 271.00 93.50 L 268.50 92.00 L 266.50 92.00 L 265.00 89.50 L 262.50 89.00 L 261.00 87.50 L 258.50 86.00 L 256.00 84.50 L 253.50 83.00 L 251.00 81.50 L 248.50 80.00 L 246.00 78.50 L 244.50 78.00 L 242.00 76.50 L 240.50 76.00 L 238.50 75.00 L 237.00 73.50 L 234.50 72.00 L 232.00 70.50 L 229.50 70.00 L 227.50 69.00 L 226.00 66.50 L 223.50 65.00 L 220.50 64.00 L 218.50 64.00 L 217.00 61.50 L 214.50 60.00 L 212.00 58.50 L 209.00 57.50 L 207.00 57.50 L 205.50 55.00 L 203.00 53.50 L 200.50 53.00 L 199.00 51.50 L 197.50 51.00 L 195.50 49.00 L 193.00 49.50 L 191.50 47.00 L 189.00 45.50 L 186.50 44.00 L 184.00 42.50 L 181.50 42.00 L 180.00 40.50 L 178.00 38.50 L 175.00 37.50 L 172.50 36.00 L 170.00 34.50 L 167.50 34.00 L 165.00 33.50 L 162.50 35.00 L 160.00 36.50 L 157.50 38.00 L 155.00 39.50 L 152.50 41.00 L 150.00 42.50 L 147.50 44.00 L 146.00 44.50 L 143.50 46.00 L 141.00 47.50 L 138.50 49.00 L 136.00 50.50 L 133.50 52.00 L 132.00 53.50 L 130.50 54.00 L 128.50 55.00 L 126.00 56.50 L 123.50 58.00 L 121.00 59.50 L 118.50 61.00 L 116.00 62.50 L 113.50 64.00 L 111.00 65.50 L 108.50 67.00 L 107.00 69.50 L 105.50 70.00 L 103.50 70.00 L 101.00 71.50 L 99.50 73.00 L 97.00 73.50 L 94.50 75.00 L 92.00 76.50 L 89.50 78.00 L 87.00 79.50 L 84.50 81.00 L 82.00 82.50 L 80.50 84.00 L 78.00 84.50 L 75.50 86.00 L 73.00 87.50 L 70.50 89.00 L 68.00 90.50 L 65.50 92.00 L 63.00 93.50 L 60.50 95.00 L 58.00 96.50 L 55.50 98.00 L 53.00 99.50 L 50.50 101.00 L 47.50 102.00 L 45.50 104.00 L 45.00 105.50 L 43.50 108.00 L 44.00 110.50 L 42.50 111.00 L 42.50 115.00 L 42.50 119.00 L 42.50 123.00 L 42.50 127.00 L 42.50 131.00 L 42.50 135.00 L 42.50 139.00 L 42.50 143.00 L 42.50 147.00 L 42.50 151.00 L 42.50 155.00 L 42.50 159.00 L 42.50 163.00 L 42.50 167.00 L 42.50 171.00 L 42.50 175.00 L 42.50 179.00 L 42.50 183.00 L 42.50 187.00 L 42.50 191.00 L 42.50 195.00 L 42.50 199.00 L 42.50 203.00 L 42.50 207.00 L 42.50 211.00 L 42.50 215.00 L 42.50 219.00 L 42.50 223.00 L 42.50 227.00 L 42.50 231.00 L 42.50 235.00 L 43.50 238.00 L 45.00 240.50 L 47.00 242.50 L 49.50 244.00 L 52.00 245.50 L 54.50 247.00 L 57.00 248.50 L 59.50 249.00 L 61.00 250.50 L 63.50 252.00 L 66.00 253.50 L 68.50 255.00 L 71.00 256.50 L 73.50 257.00 L 75.00 258.50 L 77.50 260.00 L 80.00 261.50 L 82.00 263.50 L 85.00 264.50 L 87.50 266.00 L 90.00 267.50 L 92.50 269.00 L 95.00 270.50 L 97.50 272.00 L 100.00 273.50 L 101.50 274.00 L 104.00 275.50 L 106.50 277.00 L 109.00 278.50 L 110.50 279.00 L 113.00 280.50 L 115.00 282.50 L 118.00 283.50 L 120.50 285.00 L 123.00 286.50 L 125.50 288.00 L 128.00 289.50 L 129.50 290.00 L 132.00 291.50 L 134.00 291.50 L 136.00 293.50 L 138.00 295.50 L 140.50 297.00 L 143.00 298.50 L 145.50 300.00 L 148.00 301.50 L 151.00 302.50 L 153.00 304.50 L 156.00 305.50 L 158.00 305.50 L 159.50 308.00 L 162.00 309.50 L 164.50 309.00 L 167.00 310.50 L 170.50 310.00 Z M 169.00 291.50 L 161.00 289.50 L 155.00 285.50 L 150.00 282.50 L 143.50 279.00 L 138.50 276.00 L 133.50 274.00 L 129.50 271.00 L 124.50 268.00 L 118.50 264.00 L 112.50 262.00 L 107.00 257.50 L 100.50 254.00 L 95.50 251.00 L 89.00 247.50 L 84.00 244.50 L 79.00 241.50 L 73.00 237.50 L 67.50 235.00 L 61.50 231.00 L 59.50 223.00 L 59.50 213.00 L 59.50 203.00 L 59.50 193.00 L 59.50 183.00 L 59.50 173.00 L 59.50 163.00 L 59.50 153.00 L 59.50 143.00 L 59.50 133.00 L 59.50 123.00 L 61.50 115.00 L 67.50 111.00 L 73.50 107.00 L 77.50 105.00 L 84.00 101.50 L 90.00 97.50 L 96.50 94.00 L 102.50 90.00 L 109.00 86.50 L 115.00 82.50 L 120.50 78.00 L 125.00 76.50 L 131.50 73.00 L 136.50 70.00 L 141.50 67.00 L 148.00 63.50 L 154.00 59.50 L 159.00 56.50 L 166.00 53.50 L 171.00 54.50 L 177.50 58.00 L 183.50 62.00 L 190.00 65.50 L 196.00 69.50 L 202.50 73.00 L 209.00 76.50 L 213.50 78.00 L 219.00 82.50 L 224.00 85.50 L 230.50 89.00 L 235.00 92.50 L 242.00 95.50 L 248.00 99.50 L 248.00 102.50 L 238.00 102.50 L 230.00 102.50 L 223.00 99.50 L 216.50 96.00 L 210.00 92.50 L 204.00 88.50 L 197.50 85.00 L 192.50 82.00 L 186.00 78.50 L 180.00 74.50 L 173.50 71.00 L 166.00 68.50 L 160.50 71.00 L 154.00 74.50 L 148.00 78.50 L 142.50 82.00 L 136.50 85.00 L 131.00 87.50 L 125.00 91.50 L 119.00 95.50 L 112.00 98.50 L 106.00 102.50 L 101.00 105.50 L 95.50 110.00 L 89.50 112.00 L 83.50 116.00 L 77.00 119.50 L 72.50 125.00 L 72.50 135.00 L 72.50 145.00 L 72.50 155.00 L 72.50 165.00 L 72.50 175.00 L 72.50 185.00 L 72.50 195.00 L 72.50 205.00 L 72.50 215.00 L 74.50 222.00 L 79.00 226.50 L 85.00 230.50 L 89.00 234.50 L 95.50 236.00 L 100.50 239.00 L 107.00 242.50 L 113.00 246.50 L 118.50 249.00 L 124.50 253.00 L 131.00 256.50 L 137.50 260.00 L 141.00 264.50 L 147.50 266.00 L 153.50 270.00 L 160.00 273.50 L 167.00 276.50 L 173.00 274.50 L 178.00 271.50 L 183.50 268.00 L 189.50 265.00 L 196.00 261.50 L 202.00 257.50 L 207.00 254.50 L 212.50 252.00 L 218.50 248.00 L 222.00 245.50 L 227.50 242.00 L 234.00 239.50 L 240.00 235.50 L 246.50 232.00 L 250.50 228.00 L 256.50 226.00 L 261.00 220.50 L 261.50 211.00 L 261.50 201.00 L 261.50 191.00 L 261.50 181.00 L 261.50 171.00 L 261.50 161.00 L 261.50 151.00 L 259.50 143.00 L 256.00 144.50 L 250.00 148.50 L 244.00 152.50 L 237.00 155.50 L 231.50 160.00 L 224.00 162.50 L 214.00 162.50 L 204.00 162.50 L 194.00 162.50 L 184.00 162.50 L 178.00 166.50 L 176.50 175.00 L 179.50 180.00 L 188.00 181.50 L 198.00 181.50 L 208.00 181.50 L 212.50 187.00 L 212.50 197.00 L 212.50 207.00 L 205.00 207.50 L 196.50 208.00 L 188.50 209.00 L 190.00 213.50 L 195.50 218.00 L 199.00 220.50 L 201.50 225.00 L 207.50 228.00 L 212.50 233.00 L 212.00 238.50 L 208.00 240.50 L 200.00 241.50 L 206.00 242.50 L 196.00 242.50 L 186.00 242.50 L 176.00 242.50 L 166.00 242.50 L 156.00 242.50 L 146.00 242.50 L 136.00 242.50 L 132.00 240.50 L 126.50 238.00 L 120.50 234.00 L 114.00 230.50 L 109.50 225.00 L 111.50 221.00 L 116.50 216.00 L 122.00 211.50 L 126.50 208.00 L 132.00 203.50 L 136.50 198.00 L 137.50 193.00 L 135.00 185.50 L 131.00 181.50 L 126.00 178.50 L 120.00 176.50 L 113.50 174.00 L 108.50 170.00 L 102.00 166.50 L 98.00 160.50 L 94.50 154.00 L 90.50 148.00 L 90.50 142.00 L 90.50 132.00 L 96.00 131.50 L 105.00 130.50 L 113.50 131.00 L 121.00 130.50 L 130.00 131.50 L 128.50 130.00 L 135.50 127.00 L 136.00 117.50 L 142.00 113.50 L 145.00 112.50 L 152.00 113.50 L 160.50 113.00 L 168.50 113.00 L 178.00 113.50 L 186.00 113.50 L 194.00 113.50 L 203.00 112.50 L 212.00 113.50 L 222.00 113.50 L 232.00 113.50 L 242.00 113.50 L 252.00 113.50 L 262.00 113.50 L 271.00 114.50 L 274.50 121.00 L 274.50 131.00 L 274.50 141.00 L 274.50 151.00 L 274.50 161.00 L 274.50 171.00 L 274.50 181.00 L 274.50 191.00 L 274.50 201.00 L 274.50 211.00 L 274.50 221.00 L 273.50 230.00 L 268.50 233.00 L 262.50 237.00 L 257.00 239.50 L 251.00 243.50 L 245.00 247.50 L 238.50 251.00 L 233.50 254.00 L 227.00 257.50 L 221.00 261.50 L 214.50 265.00 L 208.50 269.00 L 203.00 271.50 L 198.00 276.50 L 192.00 278.50 L 185.50 282.00 L 179.50 286.00 L 174.00 288.50 Z" style="fill:#c35217;"/>
<path d="M 255.00 103.50 L 254.00 103.50 L 253.00 103.50 L 252.00 103.50 L 251.00 103.50 L 250.00 103.50 L 249.00 103.50 L 248.00 103.50 L 247.00 103.50 L 246.00 103.50 L 245.00 103.50 L 244.00 103.50 L 243.00 103.50 L 242.00 103.50 L 241.00 103.50 L 240.00 103.50 L 239.00 103.50 L 238.00 103.50 L 237.00 103.50 L 236.00 103.50 L 235.00 103.50 L 234.00 103.50 L 233.00 103.50 L 232.00 103.50 L 231.00 103.50 L 230.00 103.50 L 229.00 103.50 L 228.00 103.50 L 227.00 103.50 L 226.50 103.00 L 226.00 102.50 L 225.00 102.50 L 224.50 102.00 L 225.00 101.50 L 226.00 101.50 L 227.00 101.50 L 228.00 101.50 L 229.00 101.50 L 229.50 102.00 L 230.00 102.50 L 230.50 102.00 L 231.00 101.50 L 231.50 102.00 L 232.00 102.50 L 233.00 102.50 L 234.00 102.50 L 235.00 102.50 L 236.00 102.50 L 237.00 102.50 L 238.00 102.50 L 239.00 102.50 L 240.00 102.50 L 241.00 102.50 L 242.00 102.50 L 243.00 102.50 L 244.00 102.50 L 245.00 102.50 L 246.00 102.50 L 247.00 102.50 L 248.00 102.50 L 249.00 102.50 L 250.00 102.50 L 251.00 102.50 L 251.50 102.00 L 251.00 101.50 L 250.50 101.00 L 251.00 100.50 L 252.00 100.50 L 252.50 101.00 L 253.00 101.50 L 254.00 101.50 L 254.50 102.00 L 255.00 102.50 L 255.50 103.00 L 255.00 103.50 Z M 304.00 242.50 L 303.50 242.00 L 303.50 241.00 L 303.50 240.00 L 303.50 239.00 L 303.50 238.00 L 303.50 237.00 L 303.50 236.00 L 303.50 235.00 L 303.50 234.00 L 303.50 233.00 L 303.50 232.00 L 303.50 231.00 L 303.50 230.00 L 303.50 229.00 L 303.50 228.00 L 303.50 227.00 L 303.50 226.00 L 303.50 225.00 L 303.50 224.00 L 303.50 223.00 L 303.50 222.00 L 303.50 221.00 L 303.50 220.00 L 303.50 219.00 L 303.50 218.00 L 303.50 217.00 L 303.50 216.00 L 303.50 215.00 L 303.50 214.00 L 303.50 213.00 L 303.50 212.00 L 303.50 211.00 L 303.50 210.00 L 303.50 209.00 L 303.50 208.00 L 303.50 207.00 L 303.50 206.00 L 303.50 205.00 L 303.50 204.00 L 303.50 203.00 L 303.50 202.00 L 303.50 201.00 L 303.50 200.00 L 303.50 199.00 L 303.50 198.00 L 303.50 197.00 L 303.50 196.00 L 303.50 195.00 L 303.50 194.00 L 303.50 193.00 L 303.50 192.00 L 303.50 191.00 L 303.50 190.00 L 303.50 189.00 L 303.50 188.00 L 303.50 187.00 L 303.50 186.00 L 303.50 185.00 L 303.50 184.00 L 303.50 183.00 L 303.50 182.00 L 303.50 181.00 L 303.50 180.00 L 303.50 179.00 L 303.50 178.00 L 303.50 177.00 L 303.50 176.00 L 303.50 175.00 L 303.50 174.00 L 303.50 173.00 L 303.50 172.00 L 303.50 171.00 L 303.50 170.00 L 303.50 169.00 L 303.50 168.00 L 303.50 167.00 L 303.50 166.00 L 303.50 165.00 L 303.50 164.00 L 303.50 163.00 L 303.50 162.00 L 303.50 161.00 L 303.50 160.00 L 303.50 159.00 L 303.50 158.00 L 303.50 157.00 L 303.50 156.00 L 303.50 155.00 L 303.50 154.00 L 303.50 153.00 L 303.50 152.00 L 303.50 151.00 L 303.50 150.00 L 303.50 149.00 L 303.50 148.00 L 303.50 147.00 L 303.50 146.00 L 303.50 145.00 L 303.50 144.00 L 303.50 143.00 L 303.50 142.00 L 303.50 141.00 L 303.50 140.00 L 303.50 139.00 L 303.50 138.00 L 303.50 137.00 L 303.50 136.00 L 303.50 135.00 L 303.50 134.00 L 303.50 133.00 L 303.50 132.00 L 303.50 131.00 L 303.50 130.00 L 303.50 129.00 L 303.50 128.00 L 303.50 127.00 L 303.50 126.00 L 303.50 125.00 L 303.50 124.00 L 303.50 123.00 L 303.50 122.00 L 303.50 121.00 L 303.50 120.00 L 303.50 119.00 L 303.50 118.00 L 303.50 117.00 L 303.50 116.00 L 303.50 115.00 L 303.50 114.00 L 303.50 113.00 L 303.50 112.00 L 303.50 111.00 L 303.50 110.00 L 303.50 109.00 L 303.50 108.00 L 303.50 107.00 L 303.50 106.00 L 303.50 105.00 L 303.50 104.00 L 303.50 103.00 L 304.00 102.50 L 304.50 103.00 L 304.50 104.00 L 304.50 105.00 L 304.50 106.00 L 304.50 107.00 L 304.50 108.00 L 304.50 109.00 L 304.50 110.00 L 304.50 111.00 L 304.50 112.00 L 304.50 113.00 L 304.50 114.00 L 304.50 115.00 L 304.50 116.00 L 304.50 117.00 L 304.50 118.00 L 304.50 119.00 L 304.50 120.00 L 304.50 121.00 L 304.50 122.00 L 304.50 123.00 L 304.50 124.00 L 304.50 125.00 L 304.50 126.00 L 304.50 127.00 L 304.50 128.00 L 304.50 129.00 L 304.50 130.00 L 304.50 131.00 L 304.50 132.00 L 304.50 133.00 L 304.50 134.00 L 304.50 135.00 L 304.50 136.00 L 304.50 137.00 L 304.50 138.00 L 304.50 139.00 L 304.50 140.00 L 304.50 141.00 L 304.50 142.00 L 304.50 143.00 L 304.50 144.00 L 304.50 145.00 L 304.50 146.00 L 304.50 147.00 L 304.50 148.00 L 304.50 149.00 L 304.50 150.00 L 304.50 151.00 L 304.50 152.00 L 304.50 153.00 L 304.50 154.00 L 304.50 155.00 L 304.50 156.00 L 304.50 157.00 L 304.50 158.00 L 304.50 159.00 L 304.50 160.00 L 304.50 161.00 L 304.50 162.00 L 304.50 163.00 L 304.50 164.00 L 304.50 165.00 L 304.50 166.00 L 304.50 167.00 L 304.50 168.00 L 304.50 169.00 L 304.50 170.00 L 304.50 171.00 L 304.50 172.00 L 304.50 173.00 L 304.50 174.00 L 304.50 175.00 L 304.50 176.00 L 304.50 177.00 L 304.50 178.00 L 304.50 179.00 L 304.50 180.00 L 304.50 181.00 L 304.50 182.00 L 304.50 183.00 L 304.50 184.00 L 304.50 185.00 L 304.50 186.00 L 304.50 187.00 L 304.50 188.00 L 304.50 189.00 L 304.50 190.00 L 304.50 191.00 L 304.50 192.00 L 304.50 193.00 L 304.50 194.00 L 304.50 195.00 L 304.50 196.00 L 304.50 197.00 L 304.50 198.00 L 304.50 199.00 L 304.50 200.00 L 304.50 201.00 L 304.50 202.00 L 304.50 203.00 L 304.50 204.00 L 304.50 205.00 L 304.50 206.00 L 304.50 207.00 L 304.50 208.00 L 304.50 209.00 L 304.50 210.00 L 304.50 211.00 L 304.50 212.00 L 304.50 213.00 L 304.50 214.00 L 304.50 215.00 L 304.50 216.00 L 304.50 217.00 L 304.50 218.00 L 304.50 219.00 L 304.50 220.00 L 304.50 221.00 L 304.50 222.00 L 304.50 223.00 L 304.50 224.00 L 304.50 225.00 L 304.50 226.00 L 304.50 227.00 L 304.50 228.00 L 304.50 229.00 L 304.50 230.00 L 304.50 231.00 L 304.50 232.00 L 304.50 233.00 L 304.50 234.00 L 304.50 235.00 L 304.50 236.00 L 304.50 237.00 L 304.50 238.00 L 304.50 239.00 L 304.50 240.00 L 304.50 241.00 L 304.50 242.00 L 304.00 242.50 Z M 30.00 242.50 L 29.50 242.00 L 29.50 241.00 L 29.50 240.00 L 29.50 239.00 L 29.50 238.00 L 29.50 237.00 L 29.50 236.00 L 29.50 235.00 L 29.50 234.00 L 29.50 233.00 L 29.50 232.00 L 29.50 231.00 L 29.50 230.00 L 29.50 229.00 L 29.50 228.00 L 29.50 227.00 L 29.50 226.00 L 29.50 225.00 L 29.50 224.00 L 29.50 223.00 L 29.50 222.00 L 29.50 221.00 L 29.50 220.00 L 29.50 219.00 L 29.50 218.00 L 29.50 217.00 L 29.50 216.00 L 29.50 215.00 L 29.50 214.00 L 29.50 213.00 L 29.50 212.00 L 29.50 211.00 L 29.50 210.00 L 29.50 209.00 L 29.50 208.00 L 29.50 207.00 L 29.50 206.00 L 29.50 205.00 L 29.50 204.00 L 29.50 203.00 L 29.50 202.00 L 29.50 201.00 L 29.50 200.00 L 29.50 199.00 L 29.50 198.00 L 29.50 197.00 L 29.50 196.00 L 29.50 195.00 L 29.50 194.00 L 29.50 193.00 L 29.50 192.00 L 29.50 191.00 L 29.50 190.00 L 29.50 189.00 L 29.50 188.00 L 29.50 187.00 L 29.50 186.00 L 29.50 185.00 L 29.50 184.00 L 29.50 183.00 L 29.50 182.00 L 29.50 181.00 L 29.50 180.00 L 29.50 179.00 L 29.50 178.00 L 29.50 177.00 L 29.50 176.00 L 29.50 175.00 L 29.50 174.00 L 29.50 173.00 L 29.50 172.00 L 29.50 171.00 L 29.50 170.00 L 29.50 169.00 L 29.50 168.00 L 29.50 167.00 L 29.50 166.00 L 29.50 165.00 L 29.50 164.00 L 29.50 163.00 L 29.50 162.00 L 29.50 161.00 L 29.50 160.00 L 29.50 159.00 L 29.50 158.00 L 29.50 157.00 L 29.50 156.00 L 29.50 155.00 L 29.50 154.00 L 29.50 153.00 L 29.50 152.00 L 29.50 151.00 L 29.50 150.00 L 29.50 149.00 L 29.50 148.00 L 29.50 147.00 L 29.50 146.00 L 29.50 145.00 L 29.50 144.00 L 29.50 143.00 L 29.50 142.00 L 29.50 141.00 L 29.50 140.00 L 29.50 139.00 L 29.50 138.00 L 29.50 137.00 L 29.50 136.00 L 29.50 135.00 L 29.50 134.00 L 29.50 133.00 L 29.50 132.00 L 29.50 131.00 L 29.50 130.00 L 29.50 129.00 L 29.50 128.00 L 29.50 127.00 L 29.50 126.00 L 29.50 125.00 L 29.50 124.00 L 29.50 123.00 L 29.50 122.00 L 29.50 121.00 L 29.50 120.00 L 29.50 119.00 L 29.50 118.00 L 29.50 117.00 L 29.50 116.00 L 29.50 115.00 L 29.50 114.00 L 29.50 113.00 L 29.50 112.00 L 29.50 111.00 L 29.50 110.00 L 29.50 109.00 L 29.50 108.00 L 29.50 107.00 L 29.50 106.00 L 29.50 105.00 L 29.50 104.00 L 30.00 103.50 L 30.50 104.00 L 30.50 105.00 L 30.50 106.00 L 30.50 107.00 L 30.50 108.00 L 30.50 109.00 L 30.50 110.00 L 30.50 111.00 L 30.50 112.00 L 30.50 113.00 L 30.50 114.00 L 30.50 115.00 L 30.50 116.00 L 30.50 117.00 L 30.50 118.00 L 30.50 119.00 L 30.50 120.00 L 30.50 121.00 L 30.50 122.00 L 30.50 123.00 L 30.50 124.00 L 30.50 125.00 L 30.50 126.00 L 30.50 127.00 L 30.50 128.00 L 30.50 129.00 L 30.50 130.00 L 30.50 131.00 L 30.50 132.00 L 30.50 133.00 L 30.50 134.00 L 30.50 135.00 L 30.50 136.00 L 30.50 137.00 L 30.50 138.00 L 30.50 139.00 L 30.50 140.00 L 30.50 141.00 L 30.50 142.00 L 30.50 143.00 L 30.50 144.00 L 30.50 145.00 L 30.50 146.00 L 30.50 147.00 L 30.50 148.00 L 30.50 149.00 L 30.50 150.00 L 30.50 151.00 L 30.50 152.00 L 30.50 153.00 L 30.50 154.00 L 30.50 155.00 L 30.50 156.00 L 30.50 157.00 L 30.50 158.00 L 30.50 159.00 L 30.50 160.00 L 30.50 161.00 L 30.50 162.00 L 30.50 163.00 L 30.50 164.00 L 30.50 165.00 L 30.50 166.00 L 30.50 167.00 L 30.50 168.00 L 30.50 169.00 L 30.50 170.00 L 30.50 171.00 L 30.50 172.00 L 30.50 173.00 L 30.50 174.00 L 30.50 175.00 L 30.50 176.00 L 30.50 177.00 L 30.50 178.00 L 30.50 179.00 L 30.50 180.00 L 30.50 181.00 L 30.50 182.00 L 30.50 183.00 L 30.50 184.00 L 30.50 185.00 L 30.50 186.00 L 30.50 187.00 L 30.50 188.00 L 30.50 189.00 L 30.50 190.00 L 30.50 191.00 L 30.50 192.00 L 30.50 193.00 L 30.50 194.00 L 30.50 195.00 L 30.50 196.00 L 30.50 197.00 L 30.50 198.00 L 30.50 199.00 L 30.50 200.00 L 30.50 201.00 L 30.50 202.00 L 30.50 203.00 L 30.50 204.00 L 30.50 205.00 L 30.50 206.00 L 30.50 207.00 L 30.50 208.00 L 30.50 209.00 L 30.50 210.00 L 30.50 211.00 L 30.50 212.00 L 30.50 213.00 L 30.50 214.00 L 30.50 215.00 L 30.50 216.00 L 30.50 217.00 L 30.50 218.00 L 30.50 219.00 L 30.50 220.00 L 30.50 221.00 L 30.50 222.00 L 30.50 223.00 L 30.50 224.00 L 30.50 225.00 L 30.50 226.00 L 30.50 227.00 L 30.50 228.00 L 30.50 229.00 L 30.50 230.00 L 30.50 231.00 L 30.50 232.00 L 30.50 233.00 L 30.50 234.00 L 30.50 235.00 L 30.50 236.00 L 30.50 237.00 L 30.50 238.00 L 30.50 239.00 L 30.50 240.00 L 30.50 241.00 L 30.50 242.00 L 30.00 242.50 Z M 291.00 236.50 L 290.50 236.00 L 290.50 235.00 L 290.50 234.00 L 290.50 233.00 L 290.50 232.00 L 290.50 231.00 L 290.50 230.00 L 290.50 229.00 L 290.50 228.00 L 290.50 227.00 L 290.50 226.00 L 290.50 225.00 L 290.50 224.00 L 290.50 223.00 L 290.50 222.00 L 290.50 221.00 L 290.50 220.00 L 290.50 219.00 L 290.50 218.00 L 290.50 217.00 L 290.50 216.00 L 290.50 215.00 L 290.50 214.00 L 290.50 213.00 L 290.50 212.00 L 290.50 211.00 L 290.50 210.00 L 290.50 209.00 L 290.50 208.00 L 290.50 207.00 L 290.50 206.00 L 290.50 205.00 L 290.50 204.00 L 290.50 203.00 L 290.50 202.00 L 290.50 201.00 L 290.50 200.00 L 290.50 199.00 L 290.50 198.00 L 290.50 197.00 L 290.50 196.00 L 290.50 195.00 L 290.50 194.00 L 290.50 193.00 L 290.50 192.00 L 290.50 191.00 L 290.50 190.00 L 290.50 189.00 L 290.50 188.00 L 290.50 187.00 L 290.50 186.00 L 290.50 185.00 L 290.50 184.00 L 290.50 183.00 L 290.50 182.00 L 290.50 181.00 L 290.50 180.00 L 290.50 179.00 L 290.50 178.00 L 290.50 177.00 L 290.50 176.00 L 290.50 175.00 L 290.50 174.00 L 290.50 173.00 L 290.50 172.00 L 290.50 171.00 L 290.50 170.00 L 290.50 169.00 L 290.50 168.00 L 290.50 167.00 L 290.50 166.00 L 290.50 165.00 L 290.50 164.00 L 290.50 163.00 L 290.50 162.00 L 290.50 161.00 L 290.50 160.00 L 290.50 159.00 L 290.50 158.00 L 290.50 157.00 L 290.50 156.00 L 290.50 155.00 L 290.50 154.00 L 290.50 153.00 L 290.50 152.00 L 290.50 151.00 L 290.50 150.00 L 290.50 149.00 L 290.50 148.00 L 290.50 147.00 L 290.50 146.00 L 290.50 145.00 L 290.50 144.00 L 290.50 143.00 L 290.50 142.00 L 290.50 141.00 L 290.50 140.00 L 290.50 139.00 L 290.50 138.00 L 290.50 137.00 L 290.50 136.00 L 290.50 135.00 L 290.50 134.00 L 290.50 133.00 L 290.50 132.00 L 290.50 131.00 L 290.50 130.00 L 290.50 129.00 L 290.50 128.00 L 290.50 127.00 L 290.50 126.00 L 290.50 125.00 L 290.50 124.00 L 290.50 123.00 L 290.50 122.00 L 290.50 121.00 L 290.50 120.00 L 290.50 119.00 L 290.50 118.00 L 290.50 117.00 L 290.50 116.00 L 290.50 115.00 L 290.50 114.00 L 290.50 113.00 L 290.50 112.00 L 290.50 111.00 L 290.50 110.00 L 290.50 109.00 L 290.00 108.50 L 289.50 108.00 L 289.50 107.00 L 289.00 106.50 L 288.50 106.00 L 289.00 105.50 L 290.00 105.50 L 290.50 106.00 L 290.50 107.00 L 291.00 107.50 L 291.50 108.00 L 291.50 109.00 L 291.50 110.00 L 291.50 111.00 L 291.50 112.00 L 291.50 113.00 L 291.50 114.00 L 291.50 115.00 L 291.50 116.00 L 291.50 117.00 L 291.50 118.00 L 291.50 119.00 L 291.50 120.00 L 291.50 121.00 L 291.50 122.00 L 291.50 123.00 L 291.50 124.00 L 291.50 125.00 L 291.50 126.00 L 291.50 127.00 L 291.50 128.00 L 291.50 129.00 L 291.50 130.00 L 291.50 131.00 L 291.50 132.00 L 291.50 133.00 L 291.50 134.00 L 291.50 135.00 L 291.50 136.00 L 291.50 137.00 L 291.50 138.00 L 291.50 139.00 L 291.50 140.00 L 291.50 141.00 L 291.50 142.00 L 291.50 143.00 L 291.50 144.00 L 291.50 145.00 L 291.50 146.00 L 291.50 147.00 L 291.50 148.00 L 291.50 149.00 L 291.50 150.00 L 291.50 151.00 L 291.50 152.00 L 291.50 153.00 L 291.50 154.00 L 291.50 155.00 L 291.50 156.00 L 291.50 157.00 L 291.50 158.00 L 291.50 159.00 L 291.50 160.00 L 291.50 161.00 L 291.50 162.00 L 291.50 163.00 L 291.50 164.00 L 291.50 165.00 L 291.50 166.00 L 291.50 167.00 L 291.50 168.00 L 291.50 169.00 L 291.50 170.00 L 291.50 171.00 L 291.50 172.00 L 291.50 173.00 L 291.50 174.00 L 291.50 175.00 L 291.50 176.00 L 291.50 177.00 L 291.50 178.00 L 291.50 179.00 L 291.50 180.00 L 291.50 181.00 L 291.50 182.00 L 291.50 183.00 L 291.50 184.00 L 291.50 185.00 L 291.50 186.00 L 291.50 187.00 L 291.50 188.00 L 291.50 189.00 L 291.50 190.00 L 291.50 191.00 L 291.50 192.00 L 291.50 193.00 L 291.50 194.00 L 291.50 195.00 L 291.50 196.00 L 291.50 197.00 L 291.50 198.00 L 291.50 199.00 L 291.50 200.00 L 291.50 201.00 L 291.50 202.00 L 291.50 203.00 L 291.50 204.00 L 291.50 205.00 L 291.50 206.00 L 291.50 207.00 L 291.50 208.00 L 291.50 209.00 L 291.50 210.00 L 291.50 211.00 L 291.50 212.00 L 291.50 213.00 L 291.50 214.00 L 291.50 215.00 L 291.50 216.00 L 291.50 217.00 L 291.50 218.00 L 291.50 219.00 L 291.50 220.00 L 291.50 221.00 L 291.50 222.00 L 291.50 223.00 L 291.50 224.00 L 291.50 225.00 L 291.50 226.00 L 291.50 227.00 L 291.50 228.00 L 291.50 229.00 L 291.50 230.00 L 291.50 231.00 L 291.50 232.00 L 291.50 233.00 L 291.50 234.00 L 291.50 235.00 L 291.50 236.00 L 291.00 236.50 Z M 43.00 236.50 L 42.50 236.00 L 42.50 235.00 L 42.50 234.00 L 42.50 233.00 L 42.50 232.00 L 42.50 231.00 L 42.50 230.00 L 42.50 229.00 L 42.50 228.00 L 42.50 227.00 L 42.50 226.00 L 42.50 225.00 L 42.50 224.00 L 42.50 223.00 L 42.50 222.00 L 42.50 221.00 L 42.50 220.00 L 42.50 219.00 L 42.50 218.00 L 42.50 217.00 L 42.50 216.00 L 42.50 215.00 L 42.50 214.00 L 42.50 213.00 L 42.50 212.00 L 42.50 211.00 L 42.50 210.00 L 42.50 209.00 L 42.50 208.00 L 42.50 207.00 L 42.50 206.00 L 42.50 205.00 L 42.50 204.00 L 42.50 203.00 L 42.50 202.00 L 42.50 201.00 L 42.50 200.00 L 42.50 199.00 L 42.50 198.00 L 42.50 197.00 L 42.50 196.00 L 42.50 195.00 L 42.50 194.00 L 42.50 193.00 L 42.50 192.00 L 42.50 191.00 L 42.50 190.00 L 42.50 189.00 L 42.50 188.00 L 42.50 187.00 L 42.50 186.00 L 42.50 185.00 L 42.50 184.00 L 42.50 183.00 L 42.50 182.00 L 42.50 181.00 L 42.50 180.00 L 42.50 179.00 L 42.50 178.00 L 42.50 177.00 L 42.50 176.00 L 42.50 175.00 L 42.50 174.00 L 42.50 173.00 L 42.50 172.00 L 42.50 171.00 L 42.50 170.00 L 42.50 169.00 L 42.50 168.00 L 42.50 167.00 L 42.50 166.00 L 42.50 165.00 L 42.50 164.00 L 42.50 163.00 L 42.50 162.00 L 42.50 161.00 L 42.50 160.00 L 42.50 159.00 L 42.50 158.00 L 42.50 157.00 L 42.50 156.00 L 42.50 155.00 L 42.50 154.00 L 42.50 153.00 L 42.50 152.00 L 42.50 151.00 L 42.50 150.00 L 42.50 149.00 L 42.50 148.00 L 42.50 147.00 L 42.50 146.00 L 42.50 145.00 L 42.50 144.00 L 42.50 143.00 L 42.50 142.00 L 42.50 141.00 L 42.50 140.00 L 42.50 139.00 L 42.50 138.00 L 42.50 137.00 L 42.50 136.00 L 42.50 135.00 L 42.50 134.00 L 42.50 133.00 L 42.50 132.00 L 42.50 131.00 L 42.50 130.00 L 42.50 129.00 L 42.50 128.00 L 42.50 127.00 L 42.50 126.00 L 42.50 125.00 L 42.50 124.00 L 42.50 123.00 L 42.50 122.00 L 42.50 121.00 L 42.50 120.00 L 42.50 119.00 L 42.50 118.00 L 42.50 117.00 L 42.50 116.00 L 42.50 115.00 L 42.50 114.00 L 42.50 113.00 L 42.50 112.00 L 42.50 111.00 L 42.50 110.00 L 43.00 109.50 L 43.50 110.00 L 43.50 111.00 L 43.50 112.00 L 43.50 113.00 L 43.50 114.00 L 43.50 115.00 L 43.50 116.00 L 43.50 117.00 L 43.50 118.00 L 43.50 119.00 L 43.50 120.00 L 43.50 121.00 L 43.50 122.00 L 43.50 123.00 L 43.50 124.00 L 43.50 125.00 L 43.50 126.00 L 43.50 127.00 L 43.50 128.00 L 43.50 129.00 L 43.50 130.00 L 43.50 131.00 L 43.50 132.00 L 43.50 133.00 L 43.50 134.00 L 43.50 135.00 L 43.50 136.00 L 43.50 137.00 L 43.50 138.00 L 43.50 139.00 L 43.50 140.00 L 43.50 141.00 L 43.50 142.00 L 43.50 143.00 L 43.50 144.00 L 43.50 145.00 L 43.50 146.00 L 43.50 147.00 L 43.50 148.00 L 43.50 149.00 L 43.50 150.00 L 43.50 151.00 L 43.50 152.00 L 43.50 153.00 L 43.50 154.00 L 43.50 155.00 L 43.50 156.00 L 43.50 157.00 L 43.50 158.00 L 43.50 159.00 L 43.50 160.00 L 43.50 161.00 L 43.50 162.00 L 43.50 163.00 L 43.50 164.00 L 43.50 165.00 L 43.50 166.00 L 43.50 167.00 L 43.50 168.00 L 43.50 169.00 L 43.50 170.00 L 43.50 171.00 L 43.50 172.00 L 43.50 173.00 L 43.50 174.00 L 43.50 175.00 L 43.50 176.00 L 43.50 177.00 L 43.50 178.00 L 43.50 179.00 L 43.50 180.00 L 43.50 181.00 L 43.50 182.00 L 43.50 183.00 L 43.50 184.00 L 43.50 185.00 L 43.50 186.00 L 43.50 187.00 L 43.50 188.00 L 43.50 189.00 L 43.50 190.00 L 43.50 191.00 L 43.50 192.00 L 43.50 193.00 L 43.50 194.00 L 43.50 195.00 L 43.50 196.00 L 43.50 197.00 L 43.50 198.00 L 43.50 199.00 L 43.50 200.00 L 43.50 201.00 L 43.50 202.00 L 43.50 203.00 L 43.50 204.00 L 43.50 205.00 L 43.50 206.00 L 43.50 207.00 L 43.50 208.00 L 43.50 209.00 L 43.50 210.00 L 43.50 211.00 L 43.50 212.00 L 43.50 213.00 L 43.50 214.00 L 43.50 215.00 L 43.50 216.00 L 43.50 217.00 L 43.50 218.00 L 43.50 219.00 L 43.50 220.00 L 43.50 221.00 L 43.50 222.00 L 43.50 223.00 L 43.50 224.00 L 43.50 225.00 L 43.50 226.00 L 43.50 227.00 L 43.50 228.00 L 43.50 229.00 L 43.50 230.00 L 43.50 231.00 L 43.50 232.00 L 43.50 233.00 L 43.50 234.00 L 43.50 235.00 L 43.50 236.00 L 43.00 236.50 Z M 270.00 113.50 L 269.00 113.50 L 268.00 113.50 L 267.00 113.50 L 266.00 113.50 L 265.00 113.50 L 264.00 113.50 L 263.00 113.50 L 262.00 113.50 L 261.00 113.50 L 260.00 113.50 L 259.00 113.50 L 258.00 113.50 L 257.00 113.50 L 256.00 113.50 L 255.00 113.50 L 254.00 113.50 L 253.00 113.50 L 252.00 113.50 L 251.00 113.50 L 250.00 113.50 L 249.00 113.50 L 248.00 113.50 L 247.00 113.50 L 246.00 113.50 L 245.00 113.50 L 244.00 113.50 L 243.00 113.50 L 242.00 113.50 L 241.00 113.50 L 240.00 113.50 L 239.00 113.50 L 238.00 113.50 L 237.00 113.50 L 236.00 113.50 L 235.00 113.50 L 234.00 113.50 L 233.00 113.50 L 232.00 113.50 L 231.00 113.50 L 230.00 113.50 L 229.00 113.50 L 228.00 113.50 L 227.00 113.50 L 226.00 113.50 L 225.00 113.50 L 224.00 113.50 L 223.00 113.50 L 222.00 113.50 L 221.00 113.50 L 220.00 113.50 L 219.00 113.50 L 218.00 113.50 L 217.00 113.50 L 216.00 113.50 L 215.00 113.50 L 214.00 113.50 L 213.00 113.50 L 212.00 113.50 L 211.00 113.50 L 210.00 113.50 L 209.00 113.50 L 208.00 113.50 L 207.00 113.50 L 206.00 113.50 L 205.00 113.50 L 204.00 113.50 L 203.50 113.00 L 203.00 112.50 L 202.00 112.50 L 201.00 112.50 L 200.00 112.50 L 199.00 112.50 L 198.00 112.50 L 197.00 112.50 L 196.50 113.00 L 196.00 113.50 L 195.00 113.50 L 194.00 113.50 L 193.00 113.50 L 192.00 113.50 L 191.00 113.50 L 190.00 113.50 L 189.00 113.50 L 188.00 113.50 L 187.50 113.00 L 187.00 112.50 L 186.50 113.00 L 186.00 113.50 L 185.00 113.50 L 184.00 113.50 L 183.00 113.50 L 182.00 113.50 L 181.50 113.00 L 181.00 112.50 L 180.50 113.00 L 180.00 113.50 L 179.00 113.50 L 178.00 113.50 L 177.00 113.50 L 176.00 113.50 L 175.00 113.50 L 174.00 113.50 L 173.00 113.50 L 172.00 113.50 L 171.00 113.50 L 170.00 113.50 L 169.00 113.50 L 168.50 113.00 L 168.00 112.50 L 167.00 112.50 L 166.00 112.50 L 165.00 112.50 L 164.00 112.50 L 163.50 113.00 L 163.00 113.50 L 162.00 113.50 L 161.00 113.50 L 160.50 113.00 L 160.00 112.50 L 159.00 112.50 L 158.00 112.50 L 157.50 113.00 L 157.00 113.50 L 156.00 113.50 L 155.00 113.50 L 154.00 113.50 L 153.00 113.50 L 152.00 113.50 L 151.00 113.50 L 150.00 113.50 L 149.00 113.50 L 148.50 113.00 L 148.00 112.50 L 147.50 113.00 L 147.00 113.50 L 146.00 113.50 L 145.50 113.00 L 145.00 112.50 L 144.50 113.00 L 144.00 113.50 L 143.50 113.00 L 143.50 112.00 L 144.00 111.50 L 145.00 111.50 L 146.00 111.50 L 147.00 111.50 L 148.00 111.50 L 149.00 111.50 L 150.00 111.50 L 151.00 111.50 L 152.00 111.50 L 153.00 111.50 L 154.00 111.50 L 155.00 111.50 L 156.00 111.50 L 157.00 111.50 L 158.00 111.50 L 159.00 111.50 L 160.00 111.50 L 161.00 111.50 L 162.00 111.50 L 163.00 111.50 L 164.00 111.50 L 165.00 111.50 L 166.00 111.50 L 167.00 111.50 L 168.00 111.50 L 169.00 111.50 L 170.00 111.50 L 171.00 111.50 L 172.00 111.50 L 173.00 111.50 L 174.00 111.50 L 175.00 111.50 L 176.00 111.50 L 177.00 111.50 L 178.00 111.50 L 179.00 111.50 L 180.00 111.50 L 181.00 111.50 L 182.00 111.50 L 183.00 111.50 L 184.00 111.50 L 185.00 111.50 L 186.00 111.50 L 187.00 111.50 L 188.00 111.50 L 189.00 111.50 L 190.00 111.50 L 191.00 111.50 L 192.00 111.50 L 193.00 111.50 L 194.00 111.50 L 195.00 111.50 L 196.00 111.50 L 197.00 111.50 L 198.00 111.50 L 199.00 111.50 L 200.00 111.50 L 201.00 111.50 L 202.00 111.50 L 203.00 111.50 L 204.00 111.50 L 205.00 111.50 L 206.00 111.50 L 207.00 111.50 L 208.00 111.50 L 208.50 112.00 L 209.00 112.50 L 209.50 112.00 L 210.00 111.50 L 211.00 111.50 L 212.00 111.50 L 213.00 111.50 L 214.00 111.50 L 215.00 111.50 L 216.00 111.50 L 217.00 111.50 L 218.00 111.50 L 219.00 111.50 L 220.00 111.50 L 221.00 111.50 L 222.00 111.50 L 223.00 111.50 L 224.00 111.50 L 225.00 111.50 L 226.00 111.50 L 227.00 111.50 L 228.00 111.50 L 229.00 111.50 L 230.00 111.50 L 231.00 111.50 L 232.00 111.50 L 233.00 111.50 L 234.00 111.50 L 235.00 111.50 L 236.00 111.50 L 237.00 111.50 L 238.00 111.50 L 239.00 111.50 L 240.00 111.50 L 241.00 111.50 L 242.00 111.50 L 243.00 111.50 L 244.00 111.50 L 245.00 111.50 L 246.00 111.50 L 247.00 111.50 L 248.00 111.50 L 249.00 111.50 L 250.00 111.50 L 251.00 111.50 L 252.00 111.50 L 253.00 111.50 L 254.00 111.50 L 255.00 111.50 L 256.00 111.50 L 257.00 111.50 L 258.00 111.50 L 259.00 111.50 L 260.00 111.50 L 261.00 111.50 L 262.00 111.50 L 263.00 111.50 L 264.00 111.50 L 265.00 111.50 L 266.00 111.50 L 267.00 111.50 L 268.00 111.50 L 269.00 111.50 L 269.50 112.00 L 270.00 112.50 L 270.50 113.00 L 270.00 113.50 Z M 59.00 227.50 L 58.50 227.00 L 58.50 226.00 L 58.50 225.00 L 58.50 224.00 L 58.50 223.00 L 58.50 222.00 L 58.50 221.00 L 58.50 220.00 L 58.50 219.00 L 58.50 218.00 L 58.50 217.00 L 58.50 216.00 L 58.50 215.00 L 58.50 214.00 L 58.50 213.00 L 58.50 212.00 L 58.50 211.00 L 58.50 210.00 L 58.50 209.00 L 58.50 208.00 L 58.50 207.00 L 58.50 206.00 L 58.50 205.00 L 58.50 204.00 L 58.50 203.00 L 58.50 202.00 L 58.50 201.00 L 58.50 200.00 L 58.50 199.00 L 58.50 198.00 L 58.50 197.00 L 58.50 196.00 L 58.50 195.00 L 58.50 194.00 L 58.50 193.00 L 58.50 192.00 L 58.50 191.00 L 58.50 190.00 L 58.50 189.00 L 58.50 188.00 L 58.50 187.00 L 58.50 186.00 L 58.50 185.00 L 58.50 184.00 L 58.50 183.00 L 58.50 182.00 L 58.50 181.00 L 58.50 180.00 L 58.50 179.00 L 58.50 178.00 L 58.50 177.00 L 58.50 176.00 L 58.50 175.00 L 58.50 174.00 L 58.50 173.00 L 58.50 172.00 L 58.50 171.00 L 58.50 170.00 L 58.50 169.00 L 58.50 168.00 L 58.50 167.00 L 58.50 166.00 L 58.50 165.00 L 58.50 164.00 L 58.50 163.00 L 58.50 162.00 L 58.50 161.00 L 58.50 160.00 L 58.50 159.00 L 58.50 158.00 L 58.50 157.00 L 58.50 156.00 L 58.50 155.00 L 58.50 154.00 L 58.50 153.00 L 58.50 152.00 L 58.50 151.00 L 58.50 150.00 L 58.50 149.00 L 58.50 148.00 L 58.50 147.00 L 58.50 146.00 L 58.50 145.00 L 58.50 144.00 L 58.50 143.00 L 58.50 142.00 L 58.50 141.00 L 58.50 140.00 L 58.50 139.00 L 58.50 138.00 L 58.50 137.00 L 58.50 136.00 L 58.50 135.00 L 58.50 134.00 L 58.50 133.00 L 58.50 132.00 L 58.50 131.00 L 58.50 130.00 L 58.50 129.00 L 58.50 128.00 L 58.50 127.00 L 58.50 126.00 L 58.50 125.00 L 58.50 124.00 L 58.50 123.00 L 58.50 122.00 L 58.50 121.00 L 58.50 120.00 L 58.50 119.00 L 58.50 118.00 L 59.00 117.50 L 59.50 118.00 L 59.50 119.00 L 59.50 120.00 L 59.50 121.00 L 59.50 122.00 L 59.50 123.00 L 59.50 124.00 L 59.50 125.00 L 59.50 126.00 L 59.50 127.00 L 59.50 128.00 L 59.50 129.00 L 59.50 130.00 L 59.50 131.00 L 59.50 132.00 L 59.50 133.00 L 59.50 134.00 L 59.50 135.00 L 59.50 136.00 L 59.50 137.00 L 59.50 138.00 L 59.50 139.00 L 59.50 140.00 L 59.50 141.00 L 59.50 142.00 L 59.50 143.00 L 59.50 144.00 L 59.50 145.00 L 59.50 146.00 L 59.50 147.00 L 59.50 148.00 L 59.50 149.00 L 59.50 150.00 L 59.50 151.00 L 59.50 152.00 L 59.50 153.00 L 59.50 154.00 L 59.50 155.00 L 59.50 156.00 L 59.50 157.00 L 59.50 158.00 L 59.50 159.00 L 59.50 160.00 L 59.50 161.00 L 59.50 162.00 L 59.50 163.00 L 59.50 164.00 L 59.50 165.00 L 59.50 166.00 L 59.50 167.00 L 59.50 168.00 L 59.50 169.00 L 59.50 170.00 L 59.50 171.00 L 59.50 172.00 L 59.50 173.00 L 59.50 174.00 L 59.50 175.00 L 59.50 176.00 L 59.50 177.00 L 59.50 178.00 L 59.50 179.00 L 59.50 180.00 L 59.50 181.00 L 59.50 182.00 L 59.50 183.00 L 59.50 184.00 L 59.50 185.00 L 59.50 186.00 L 59.50 187.00 L 59.50 188.00 L 59.50 189.00 L 59.50 190.00 L 59.50 191.00 L 59.50 192.00 L 59.50 193.00 L 59.50 194.00 L 59.50 195.00 L 59.50 196.00 L 59.50 197.00 L 59.50 198.00 L 59.50 199.00 L 59.50 200.00 L 59.50 201.00 L 59.50 202.00 L 59.50 203.00 L 59.50 204.00 L 59.50 205.00 L 59.50 206.00 L 59.50 207.00 L 59.50 208.00 L 59.50 209.00 L 59.50 210.00 L 59.50 211.00 L 59.50 212.00 L 59.50 213.00 L 59.50 214.00 L 59.50 215.00 L 59.50 216.00 L 59.50 217.00 L 59.50 218.00 L 59.50 219.00 L 59.50 220.00 L 59.50 221.00 L 59.50 222.00 L 59.50 223.00 L 59.50 224.00 L 59.50 225.00 L 59.50 226.00 L 59.50 227.00 L 59.00 227.50 Z M 275.00 228.50 L 274.50 228.00 L 274.50 227.00 L 274.50 226.00 L 274.50 225.00 L 274.50 224.00 L 274.50 223.00 L 274.50 222.00 L 274.50 221.00 L 274.50 220.00 L 274.50 219.00 L 274.50 218.00 L 274.50 217.00 L 274.50 216.00 L 274.50 215.00 L 274.50 214.00 L 274.50 213.00 L 274.50 212.00 L 274.50 211.00 L 274.50 210.00 L 274.50 209.00 L 274.50 208.00 L 274.50 207.00 L 274.50 206.00 L 274.50 205.00 L 274.50 204.00 L 274.50 203.00 L 274.50 202.00 L 274.50 201.00 L 274.50 200.00 L 274.50 199.00 L 274.50 198.00 L 274.50 197.00 L 274.50 196.00 L 274.50 195.00 L 274.50 194.00 L 274.50 193.00 L 274.50 192.00 L 274.50 191.00 L 274.50 190.00 L 274.50 189.00 L 274.50 188.00 L 274.50 187.00 L 274.50 186.00 L 274.50 185.00 L 274.50 184.00 L 274.50 183.00 L 274.50 182.00 L 274.50 181.00 L 274.50 180.00 L 274.50 179.00 L 274.50 178.00 L 274.50 177.00 L 274.50 176.00 L 274.50 175.00 L 274.50 174.00 L 274.50 173.00 L 274.50 172.00 L 274.50 171.00 L 274.50 170.00 L 274.50 169.00 L 274.50 168.00 L 274.50 167.00 L 274.50 166.00 L 274.50 165.00 L 274.50 164.00 L 274.50 163.00 L 274.50 162.00 L 274.50 161.00 L 274.50 160.00 L 274.50 159.00 L 274.50 158.00 L 274.50 157.00 L 274.50 156.00 L 274.50 155.00 L 274.50 154.00 L 274.50 153.00 L 274.50 152.00 L 274.50 151.00 L 274.50 150.00 L 274.50 149.00 L 274.50 148.00 L 274.50 147.00 L 274.50 146.00 L 274.50 145.00 L 274.50 144.00 L 274.50 143.00 L 274.50 142.00 L 274.50 141.00 L 274.50 140.00 L 274.50 139.00 L 274.50 138.00 L 274.50 137.00 L 274.50 136.00 L 274.50 135.00 L 274.50 134.00 L 274.50 133.00 L 274.50 132.00 L 274.50 131.00 L 274.50 130.00 L 274.50 129.00 L 274.50 128.00 L 274.50 127.00 L 274.50 126.00 L 274.50 125.00 L 274.50 124.00 L 274.50 123.00 L 274.50 122.00 L 274.50 121.00 L 274.50 120.00 L 274.50 119.00 L 274.50 118.00 L 275.00 117.50 L 275.50 118.00 L 275.50 119.00 L 275.50 120.00 L 275.50 121.00 L 275.50 122.00 L 275.50 123.00 L 275.50 124.00 L 275.50 125.00 L 275.50 126.00 L 275.50 127.00 L 275.50 128.00 L 275.50 129.00 L 275.50 130.00 L 275.50 131.00 L 275.50 132.00 L 275.50 133.00 L 275.50 134.00 L 275.50 135.00 L 275.50 136.00 L 275.50 137.00 L 275.50 138.00 L 275.50 139.00 L 275.50 140.00 L 275.50 141.00 L 275.50 142.00 L 275.50 143.00 L 275.50 144.00 L 275.50 145.00 L 275.50 146.00 L 275.50 147.00 L 275.50 148.00 L 275.50 149.00 L 275.50 150.00 L 275.50 151.00 L 275.50 152.00 L 275.50 153.00 L 275.50 154.00 L 275.50 155.00 L 275.50 156.00 L 275.50 157.00 L 275.50 158.00 L 275.50 159.00 L 275.50 160.00 L 275.50 161.00 L 275.50 162.00 L 275.50 163.00 L 275.50 164.00 L 275.50 165.00 L 275.50 166.00 L 275.50 167.00 L 275.50 168.00 L 275.50 169.00 L 275.50 170.00 L 275.50 171.00 L 275.50 172.00 L 275.50 173.00 L 275.50 174.00 L 275.50 175.00 L 275.50 176.00 L 275.50 177.00 L 275.50 178.00 L 275.50 179.00 L 275.50 180.00 L 275.50 181.00 L 275.50 182.00 L 275.50 183.00 L 275.50 184.00 L 275.50 185.00 L 275.50 186.00 L 275.50 187.00 L 275.50 188.00 L 275.50 189.00 L 275.50 190.00 L 275.50 191.00 L 275.50 192.00 L 275.50 193.00 L 275.50 194.00 L 275.50 195.00 L 275.50 196.00 L 275.50 197.00 L 275.50 198.00 L 275.50 199.00 L 275.50 200.00 L 275.50 201.00 L 275.50 202.00 L 275.50 203.00 L 275.50 204.00 L 275.50 205.00 L 275.50 206.00 L 275.50 207.00 L 275.50 208.00 L 275.50 209.00 L 275.50 210.00 L 275.50 211.00 L 275.50 212.00 L 275.50 213.00 L 275.50 214.00 L 275.50 215.00 L 275.50 216.00 L 275.50 217.00 L 275.50 218.00 L 275.50 219.00 L 275.50 220.00 L 275.50 221.00 L 275.50 222.00 L 275.50 223.00 L 275.50 224.00 L 275.50 225.00 L 275.50 226.00 L 275.50 227.00 L 275.50 228.00 L 275.00 228.50 Z M 73.00 221.50 L 72.50 221.00 L 72.50 220.00 L 72.50 219.00 L 72.50 218.00 L 72.50 217.00 L 72.50 216.00 L 72.50 215.00 L 72.50 214.00 L 72.50 213.00 L 72.50 212.00 L 72.50 211.00 L 72.50 210.00 L 72.50 209.00 L 72.50 208.00 L 72.50 207.00 L 72.50 206.00 L 72.50 205.00 L 72.50 204.00 L 72.50 203.00 L 72.50 202.00 L 72.50 201.00 L 72.50 200.00 L 72.50 199.00 L 72.50 198.00 L 72.50 197.00 L 72.50 196.00 L 72.50 195.00 L 72.50 194.00 L 72.50 193.00 L 72.50 192.00 L 72.50 191.00 L 72.50 190.00 L 72.50 189.00 L 72.50 188.00 L 72.50 187.00 L 72.50 186.00 L 72.50 185.00 L 72.50 184.00 L 72.50 183.00 L 72.50 182.00 L 72.50 181.00 L 72.50 180.00 L 72.50 179.00 L 72.50 178.00 L 72.50 177.00 L 72.50 176.00 L 72.50 175.00 L 72.50 174.00 L 72.50 173.00 L 72.50 172.00 L 72.50 171.00 L 72.50 170.00 L 72.50 169.00 L 72.50 168.00 L 72.50 167.00 L 72.50 166.00 L 72.50 165.00 L 72.50 164.00 L 72.50 163.00 L 72.50 162.00 L 72.50 161.00 L 72.50 160.00 L 72.50 159.00 L 72.50 158.00 L 72.50 157.00 L 72.50 156.00 L 72.50 155.00 L 72.50 154.00 L 72.50 153.00 L 72.50 152.00 L 72.50 151.00 L 72.50 150.00 L 72.50 149.00 L 72.50 148.00 L 72.50 147.00 L 72.50 146.00 L 72.50 145.00 L 72.50 144.00 L 72.50 143.00 L 72.50 142.00 L 72.50 141.00 L 72.50 140.00 L 72.50 139.00 L 72.50 138.00 L 72.50 137.00 L 72.50 136.00 L 72.50 135.00 L 72.50 134.00 L 72.50 133.00 L 72.50 132.00 L 72.50 131.00 L 72.50 130.00 L 72.50 129.00 L 72.50 128.00 L 72.50 127.00 L 72.50 126.00 L 72.50 125.00 L 73.00 124.50 L 73.50 124.00 L 73.50 123.00 L 74.00 122.50 L 74.50 123.00 L 74.50 124.00 L 74.50 125.00 L 74.00 125.50 L 73.50 126.00 L 73.50 127.00 L 73.50 128.00 L 73.50 129.00 L 73.50 130.00 L 73.50 131.00 L 73.50 132.00 L 73.50 133.00 L 73.50 134.00 L 73.50 135.00 L 73.50 136.00 L 73.50 137.00 L 73.50 138.00 L 73.50 139.00 L 73.50 140.00 L 73.50 141.00 L 73.50 142.00 L 73.50 143.00 L 73.50 144.00 L 73.50 145.00 L 73.50 146.00 L 73.50 147.00 L 73.50 148.00 L 73.50 149.00 L 73.50 150.00 L 73.50 151.00 L 73.50 152.00 L 73.50 153.00 L 73.50 154.00 L 73.50 155.00 L 73.50 156.00 L 73.50 157.00 L 73.50 158.00 L 73.50 159.00 L 73.50 160.00 L 73.50 161.00 L 73.50 162.00 L 73.50 163.00 L 73.50 164.00 L 73.50 165.00 L 73.50 166.00 L 73.50 167.00 L 73.50 168.00 L 73.50 169.00 L 73.50 170.00 L 73.50 171.00 L 73.50 172.00 L 73.50 173.00 L 73.50 174.00 L 73.50 175.00 L 73.50 176.00 L 73.50 177.00 L 73.50 178.00 L 73.50 179.00 L 73.50 180.00 L 73.50 181.00 L 73.50 182.00 L 73.50 183.00 L 73.50 184.00 L 73.50 185.00 L 73.50 186.00 L 73.50 187.00 L 73.50 188.00 L 73.50 189.00 L 73.50 190.00 L 73.50 191.00 L 73.50 192.00 L 73.50 193.00 L 73.50 194.00 L 73.50 195.00 L 73.50 196.00 L 73.50 197.00 L 73.50 198.00 L 73.50 199.00 L 73.50 200.00 L 73.50 201.00 L 73.50 202.00 L 73.50 203.00 L 73.50 204.00 L 73.50 205.00 L 73.50 206.00 L 73.50 207.00 L 73.50 208.00 L 73.50 209.00 L 73.50 210.00 L 73.50 211.00 L 73.50 212.00 L 73.50 213.00 L 73.50 214.00 L 73.50 215.00 L 73.50 216.00 L 73.50 217.00 L 73.50 218.00 L 73.50 219.00 L 73.50 220.00 L 73.50 221.00 L 73.00 221.50 Z M 133.00 131.50 L 132.00 131.50 L 131.00 131.50 L 130.00 131.50 L 129.00 131.50 L 128.00 131.50 L 127.00 131.50 L 126.00 131.50 L 125.00 131.50 L 124.00 131.50 L 123.50 131.00 L 123.00 130.50 L 122.00 130.50 L 121.00 130.50 L 120.50 131.00 L 120.00 131.50 L 119.00 131.50 L 118.00 131.50 L 117.00 131.50 L 116.00 131.50 L 115.50 131.00 L 115.00 130.50 L 114.00 130.50 L 113.50 131.00 L 113.00 131.50 L 112.00 131.50 L 111.00 131.50 L 110.00 131.50 L 109.00 131.50 L 108.00 131.50 L 107.00 131.50 L 106.00 131.50 L 105.50 131.00 L 105.00 130.50 L 104.00 130.50 L 103.00 130.50 L 102.00 130.50 L 101.50 131.00 L 101.00 131.50 L 100.00 131.50 L 99.00 131.50 L 98.00 131.50 L 97.00 131.50 L 96.00 131.50 L 95.00 131.50 L 94.00 131.50 L 93.00 131.50 L 92.00 131.50 L 91.50 131.00 L 91.50 130.00 L 92.00 129.50 L 92.50 130.00 L 93.00 130.50 L 94.00 130.50 L 95.00 130.50 L 96.00 130.50 L 97.00 130.50 L 98.00 130.50 L 99.00 130.50 L 99.50 130.00 L 100.00 129.50 L 101.00 129.50 L 102.00 129.50 L 103.00 129.50 L 104.00 129.50 L 105.00 129.50 L 106.00 129.50 L 107.00 129.50 L 108.00 129.50 L 109.00 129.50 L 110.00 129.50 L 111.00 129.50 L 112.00 129.50 L 113.00 129.50 L 114.00 129.50 L 115.00 129.50 L 116.00 129.50 L 117.00 129.50 L 118.00 129.50 L 118.50 130.00 L 119.00 130.50 L 119.50 130.00 L 120.00 129.50 L 121.00 129.50 L 122.00 129.50 L 123.00 129.50 L 124.00 129.50 L 125.00 129.50 L 126.00 129.50 L 127.00 129.50 L 128.00 129.50 L 128.50 130.00 L 129.00 130.50 L 130.00 130.50 L 131.00 130.50 L 132.00 130.50 L 133.00 130.50 L 133.50 131.00 L 133.00 131.50 Z M 261.00 220.50 L 260.50 220.00 L 260.50 219.00 L 260.50 218.00 L 260.50 217.00 L 260.50 216.00 L 260.50 215.00 L 260.50 214.00 L 260.50 213.00 L 260.50 212.00 L 260.50 211.00 L 260.50 210.00 L 260.50 209.00 L 260.50 208.00 L 260.50 207.00 L 260.50 206.00 L 260.50 205.00 L 260.50 204.00 L 260.50 203.00 L 260.50 202.00 L 260.50 201.00 L 260.50 200.00 L 260.50 199.00 L 260.50 198.00 L 260.50 197.00 L 260.50 196.00 L 260.50 195.00 L 260.50 194.00 L 260.50 193.00 L 260.50 192.00 L 260.50 191.00 L 260.50 190.00 L 260.50 189.00 L 260.50 188.00 L 260.50 187.00 L 260.50 186.00 L 260.50 185.00 L 260.50 184.00 L 260.50 183.00 L 260.50 182.00 L 260.50 181.00 L 260.50 180.00 L 260.50 179.00 L 260.50 178.00 L 260.50 177.00 L 260.50 176.00 L 260.50 175.00 L 260.50 174.00 L 260.50 173.00 L 260.50 172.00 L 260.50 171.00 L 260.50 170.00 L 260.50 169.00 L 260.50 168.00 L 260.50 167.00 L 260.50 166.00 L 260.50 165.00 L 260.50 164.00 L 260.50 163.00 L 260.50 162.00 L 260.50 161.00 L 260.50 160.00 L 260.50 159.00 L 260.50 158.00 L 260.50 157.00 L 260.50 156.00 L 260.50 155.00 L 260.50 154.00 L 260.50 153.00 L 260.50 152.00 L 260.50 151.00 L 260.50 150.00 L 260.50 149.00 L 260.50 148.00 L 260.50 147.00 L 260.50 146.00 L 260.50 145.00 L 260.50 144.00 L 261.00 143.50 L 261.50 144.00 L 261.50 145.00 L 261.50 146.00 L 261.50 147.00 L 261.50 148.00 L 261.50 149.00 L 261.50 150.00 L 261.50 151.00 L 261.50 152.00 L 261.50 153.00 L 261.50 154.00 L 261.50 155.00 L 261.50 156.00 L 261.50 157.00 L 261.50 158.00 L 261.50 159.00 L 261.50 160.00 L 261.50 161.00 L 261.50 162.00 L 261.50 163.00 L 261.50 164.00 L 261.50 165.00 L 261.50 166.00 L 261.50 167.00 L 261.50 168.00 L 261.50 169.00 L 261.50 170.00 L 261.50 171.00 L 261.50 172.00 L 261.50 173.00 L 261.50 174.00 L 261.50 175.00 L 261.50 176.00 L 261.50 177.00 L 261.50 178.00 L 261.50 179.00 L 261.50 180.00 L 261.50 181.00 L 261.50 182.00 L 261.50 183.00 L 261.50 184.00 L 261.50 185.00 L 261.50 186.00 L 261.50 187.00 L 261.50 188.00 L 261.50 189.00 L 261.50 190.00 L 261.50 191.00 L 261.50 192.00 L 261.50 193.00 L 261.50 194.00 L 261.50 195.00 L 261.50 196.00 L 261.50 197.00 L 261.50 198.00 L 261.50 199.00 L 261.50 200.00 L 261.50 201.00 L 261.50 202.00 L 261.50 203.00 L 261.50 204.00 L 261.50 205.00 L 261.50 206.00 L 261.50 207.00 L 261.50 208.00 L 261.50 209.00 L 261.50 210.00 L 261.50 211.00 L 261.50 212.00 L 261.50 213.00 L 261.50 214.00 L 261.50 215.00 L 261.50 216.00 L 261.50 217.00 L 261.50 218.00 L 261.50 219.00 L 261.50 220.00 L 261.00 220.50 Z M 228.00 163.50 L 227.00 163.50 L 226.00 163.50 L 225.00 163.50 L 224.00 163.50 L 223.00 163.50 L 222.00 163.50 L 221.00 163.50 L 220.00 163.50 L 219.00 163.50 L 218.00 163.50 L 217.00 163.50 L 216.00 163.50 L 215.00 163.50 L 214.00 163.50 L 213.00 163.50 L 212.00 163.50 L 211.00 163.50 L 210.00 163.50 L 209.00 163.50 L 208.00 163.50 L 207.00 163.50 L 206.00 163.50 L 205.00 163.50 L 204.00 163.50 L 203.00 163.50 L 202.00 163.50 L 201.00 163.50 L 200.00 163.50 L 199.00 163.50 L 198.00 163.50 L 197.00 163.50 L 196.00 163.50 L 195.00 163.50 L 194.00 163.50 L 193.00 163.50 L 192.00 163.50 L 191.00 163.50 L 190.00 163.50 L 189.00 163.50 L 188.00 163.50 L 187.00 163.50 L 186.00 163.50 L 185.00 163.50 L 184.00 163.50 L 183.00 163.50 L 182.50 163.00 L 183.00 162.50 L 184.00 162.50 L 185.00 162.50 L 186.00 162.50 L 187.00 162.50 L 188.00 162.50 L 189.00 162.50 L 190.00 162.50 L 191.00 162.50 L 192.00 162.50 L 193.00 162.50 L 194.00 162.50 L 195.00 162.50 L 196.00 162.50 L 197.00 162.50 L 198.00 162.50 L 199.00 162.50 L 200.00 162.50 L 201.00 162.50 L 202.00 162.50 L 203.00 162.50 L 204.00 162.50 L 205.00 162.50 L 206.00 162.50 L 207.00 162.50 L 208.00 162.50 L 209.00 162.50 L 210.00 162.50 L 211.00 162.50 L 212.00 162.50 L 213.00 162.50 L 214.00 162.50 L 215.00 162.50 L 216.00 162.50 L 217.00 162.50 L 218.00 162.50 L 219.00 162.50 L 220.00 162.50 L 221.00 162.50 L 222.00 162.50 L 223.00 162.50 L 224.00 162.50 L 225.00 162.50 L 226.00 162.50 L 227.00 162.50 L 228.00 162.50 L 228.50 163.00 L 228.00 163.50 Z M 211.00 181.50 L 210.00 181.50 L 209.00 181.50 L 208.00 181.50 L 207.00 181.50 L 206.00 181.50 L 205.00 181.50 L 204.00 181.50 L 203.00 181.50 L 202.00 181.50 L 201.00 181.50 L 200.00 181.50 L 199.00 181.50 L 198.00 181.50 L 197.00 181.50 L 196.00 181.50 L 195.00 181.50 L 194.00 181.50 L 193.00 181.50 L 192.00 181.50 L 191.00 181.50 L 190.00 181.50 L 189.00 181.50 L 188.00 181.50 L 187.00 181.50 L 186.00 181.50 L 185.00 181.50 L 184.00 181.50 L 183.00 181.50 L 182.50 181.00 L 183.00 180.50 L 184.00 180.50 L 185.00 180.50 L 186.00 180.50 L 187.00 180.50 L 188.00 180.50 L 189.00 180.50 L 190.00 180.50 L 191.00 180.50 L 192.00 180.50 L 193.00 180.50 L 194.00 180.50 L 195.00 180.50 L 196.00 180.50 L 197.00 180.50 L 198.00 180.50 L 199.00 180.50 L 200.00 180.50 L 201.00 180.50 L 202.00 180.50 L 203.00 180.50 L 204.00 180.50 L 205.00 180.50 L 206.00 180.50 L 207.00 180.50 L 208.00 180.50 L 209.00 180.50 L 210.00 180.50 L 211.00 180.50 L 211.50 181.00 L 211.00 181.50 Z M 213.00 207.50 L 212.50 207.00 L 212.50 206.00 L 212.50 205.00 L 212.50 204.00 L 212.50 203.00 L 212.50 202.00 L 212.50 201.00 L 212.50 200.00 L 212.50 199.00 L 212.50 198.00 L 212.50 197.00 L 212.50 196.00 L 212.50 195.00 L 212.50 194.00 L 212.50 193.00 L 212.50 192.00 L 212.50 191.00 L 212.50 190.00 L 212.50 189.00 L 212.50 188.00 L 212.50 187.00 L 212.50 186.00 L 212.50 185.00 L 212.00 184.50 L 211.50 184.00 L 211.50 183.00 L 211.50 182.00 L 212.00 181.50 L 212.50 182.00 L 212.50 183.00 L 213.00 183.50 L 213.50 184.00 L 213.50 185.00 L 213.50 186.00 L 213.50 187.00 L 213.50 188.00 L 213.50 189.00 L 213.50 190.00 L 213.50 191.00 L 213.50 192.00 L 213.50 193.00 L 213.50 194.00 L 213.50 195.00 L 213.50 196.00 L 213.50 197.00 L 213.50 198.00 L 213.50 199.00 L 213.50 200.00 L 213.50 201.00 L 213.50 202.00 L 213.50 203.00 L 213.50 204.00 L 213.50 205.00 L 213.50 206.00 L 213.50 207.00 L 213.00 207.50 Z M 210.00 209.50 L 209.00 209.50 L 208.00 209.50 L 207.00 209.50 L 206.00 209.50 L 205.00 209.50 L 204.00 209.50 L 203.00 209.50 L 202.00 209.50 L 201.00 209.50 L 200.00 209.50 L 199.00 209.50 L 198.00 209.50 L 197.00 209.50 L 196.00 209.50 L 195.00 209.50 L 194.00 209.50 L 193.00 209.50 L 192.00 209.50 L 191.00 209.50 L 190.00 209.50 L 189.00 209.50 L 188.50 209.00 L 189.00 208.50 L 190.00 208.50 L 191.00 208.50 L 191.50 208.00 L 192.00 207.50 L 193.00 207.50 L 194.00 207.50 L 195.00 207.50 L 196.00 207.50 L 196.50 208.00 L 197.00 208.50 L 198.00 208.50 L 199.00 208.50 L 200.00 208.50 L 200.50 208.00 L 201.00 207.50 L 202.00 207.50 L 203.00 207.50 L 204.00 207.50 L 205.00 207.50 L 206.00 207.50 L 207.00 207.50 L 207.50 208.00 L 208.00 208.50 L 209.00 208.50 L 210.00 208.50 L 210.50 209.00 L 210.00 209.50 Z" style="fill:#99390c;"/>
</svg>