<svg xmlns="http://www.w3.org/2000/svg" width="502" height="502" viewBox="0 0 502 502"><path d="M 226.00 234.50 L 225.00 234.50 L 224.00 234.50 L 223.00 234.50 L 222.00 234.50 L 221.00 234.50 L 220.00 234.50 L 219.00 234.50 L 218.00 234.50 L 217.50 234.00 L 217.50 233.00 L 217.50 232.00 L 217.50 231.00 L 217.50 230.00 L 217.50 229.00 L 217.50 228.00 L 217.50 227.00 L 217.50 226.00 L 217.50 225.00 L 217.50 224.00 L 217.50 223.00 L 217.50 222.00 L 217.50 221.00 L 217.50 220.00 L 217.50 219.00 L 217.50 218.00 L 217.50 217.00 L 217.50 216.00 L 217.50 215.00 L 217.50 214.00 L 217.50 213.00 L 217.50 212.00 L 217.50 211.00 L 217.50 210.00 L 217.50 209.00 L 217.50 208.00 L 217.50 207.00 L 217.50 206.00 L 217.50 205.00 L 217.50 204.00 L 217.50 203.00 L 217.50 202.00 L 217.50 201.00 L 217.50 200.00 L 217.50 199.00 L 217.50 198.00 L 217.50 197.00 L 217.50 196.00 L 218.00 195.50 L 219.00 195.50 L 220.00 195.50 L 221.00 195.50 L 222.00 195.50 L 223.00 195.50 L 224.00 195.50 L 225.00 195.50 L 226.00 195.50 L 227.00 195.50 L 228.00 195.50 L 229.00 195.50 L 230.00 195.50 L 231.00 195.50 L 232.00 195.50 L 233.00 195.50 L 234.00 195.50 L 235.00 195.50 L 236.00 195.50 L 237.00 195.50 L 238.00 195.50 L 239.00 195.50 L 240.00 195.50 L 241.00 195.50 L 242.00 195.50 L 243.00 195.50 L 243.50 196.00 L 243.50 197.00 L 243.50 198.00 L 243.50 199.00 L 243.50 200.00 L 243.50 201.00 L 243.50 202.00 L 243.00 202.50 L 242.00 202.50 L 241.00 202.50 L 240.00 202.50 L 239.00 202.50 L 238.00 202.50 L 237.00 202.50 L 236.00 202.50 L 235.00 202.50 L 234.00 202.50 L 233.00 202.50 L 232.00 202.50 L 231.00 202.50 L 230.00 202.50 L 229.00 202.50 L 228.00 202.50 L 227.00 202.50 L 226.50 203.00 L 226.50 204.00 L 226.50 205.00 L 226.50 206.00 L 226.50 207.00 L 226.50 208.00 L 226.50 209.00 L 226.50 210.00 L 226.50 211.00 L 226.50 212.00 L 227.00 212.50 L 228.00 212.50 L 229.00 212.50 L 230.00 212.50 L 231.00 212.50 L 232.00 212.50 L 233.00 212.50 L 234.00 212.50 L 235.00 212.50 L 236.00 212.50 L 237.00 212.50 L 238.00 212.50 L 239.00 212.50 L 240.00 212.50 L 241.00 212.50 L 241.50 213.00 L 241.50 214.00 L 241.50 215.00 L 241.50 216.00 L 241.50 217.00 L 241.50 218.00 L 241.50 219.00 L 241.50 220.00 L 241.00 220.50 L 240.00 220.50 L 239.50 220.00 L 239.00 219.50 L 238.00 219.50 L 237.00 219.50 L 236.00 219.50 L 235.50 220.00 L 235.00 220.50 L 234.00 220.50 L 233.00 220.50 L 232.00 220.50 L 231.00 220.50 L 230.00 220.50 L 229.00 220.50 L 228.50 220.00 L 228.00 219.50 L 227.50 220.00 L 227.00 220.50 L 226.50 221.00 L 226.50 222.00 L 226.50 223.00 L 226.50 224.00 L 226.50 225.00 L 226.50 226.00 L 226.50 227.00 L 226.50 228.00 L 226.50 229.00 L 226.50 230.00 L 226.50 231.00 L 226.50 232.00 L 226.50 233.00 L 226.50 234.00 L 226.00 234.50 Z M 278.00 234.50 L 277.00 234.50 L 276.00 234.50 L 275.00 234.50 L 274.00 234.50 L 273.00 234.50 L 272.00 234.50 L 271.00 234.50 L 270.00 234.50 L 269.00 234.50 L 268.00 234.50 L 267.00 234.50 L 266.00 234.50 L 265.00 234.50 L 264.00 234.50 L 263.00 234.50 L 262.00 234.50 L 261.00 234.50 L 260.00 234.50 L 259.00 234.50 L 258.00 234.50 L 257.00 234.50 L 256.00 234.50 L 255.00 234.50 L 254.00 234.50 L 253.00 234.50 L 252.50 234.00 L 252.50 233.00 L 253.00 232.50 L 253.50 232.00 L 253.50 231.00 L 253.50 230.00 L 253.50 229.00 L 253.50 228.00 L 253.50 227.00 L 253.00 226.50 L 252.50 226.00 L 253.00 225.50 L 253.50 225.00 L 253.50 224.00 L 253.00 223.50 L 252.50 223.00 L 252.50 222.00 L 253.00 221.50 L 253.50 221.00 L 253.50 220.00 L 253.50 219.00 L 253.50 218.00 L 253.50 217.00 L 253.50 216.00 L 253.50 215.00 L 253.00 214.50 L 252.50 214.00 L 252.50 213.00 L 253.00 212.50 L 253.50 212.00 L 253.00 211.50 L 252.50 211.00 L 253.00 210.50 L 253.50 210.00 L 253.50 209.00 L 253.50 208.00 L 253.50 207.00 L 253.50 206.00 L 253.50 205.00 L 253.50 204.00 L 253.50 203.00 L 253.50 202.00 L 253.50 201.00 L 253.50 200.00 L 253.50 199.00 L 253.50 198.00 L 253.50 197.00 L 253.50 196.00 L 254.00 195.50 L 255.00 195.50 L 256.00 195.50 L 257.00 195.50 L 258.00 195.50 L 259.00 195.50 L 260.00 195.50 L 261.00 195.50 L 262.00 195.50 L 263.00 195.50 L 264.00 195.50 L 265.00 195.50 L 266.00 195.50 L 267.00 195.50 L 268.00 195.50 L 269.00 195.50 L 270.00 195.50 L 271.00 195.50 L 272.00 195.50 L 273.00 195.50 L 274.00 195.50 L 275.00 195.50 L 276.00 195.50 L 277.00 195.50 L 278.00 195.50 L 278.50 196.00 L 279.00 196.50 L 279.50 197.00 L 279.00 197.50 L 278.50 198.00 L 278.50 199.00 L 278.50 200.00 L 279.00 200.50 L 279.50 201.00 L 279.00 201.50 L 278.50 202.00 L 278.00 202.50 L 277.00 202.50 L 276.00 202.50 L 275.00 202.50 L 274.00 202.50 L 273.00 202.50 L 272.00 202.50 L 271.00 202.50 L 270.00 202.50 L 269.00 202.50 L 268.00 202.50 L 267.00 202.50 L 266.00 202.50 L 265.00 202.50 L 264.00 202.50 L 263.00 202.50 L 262.00 202.50 L 261.50 203.00 L 261.50 204.00 L 261.50 205.00 L 261.50 206.00 L 261.50 207.00 L 261.50 208.00 L 261.50 209.00 L 261.50 210.00 L 261.50 211.00 L 262.00 211.50 L 263.00 211.50 L 264.00 211.50 L 265.00 211.50 L 266.00 211.50 L 267.00 211.50 L 268.00 211.50 L 269.00 211.50 L 270.00 211.50 L 271.00 211.50 L 272.00 211.50 L 273.00 211.50 L 274.00 211.50 L 275.00 211.50 L 276.00 211.50 L 277.00 211.50 L 277.50 212.00 L 277.50 213.00 L 277.50 214.00 L 277.50 215.00 L 277.50 216.00 L 277.50 217.00 L 277.50 218.00 L 277.00 218.50 L 276.00 218.50 L 275.00 218.50 L 274.00 218.50 L 273.00 218.50 L 272.00 218.50 L 271.00 218.50 L 270.00 218.50 L 269.00 218.50 L 268.00 218.50 L 267.00 218.50 L 266.00 218.50 L 265.00 218.50 L 264.00 218.50 L 263.00 218.50 L 262.00 218.50 L 261.50 219.00 L 261.50 220.00 L 261.50 221.00 L 261.50 222.00 L 261.50 223.00 L 261.50 224.00 L 261.50 225.00 L 261.50 226.00 L 261.50 227.00 L 262.00 227.50 L 263.00 227.50 L 264.00 227.50 L 265.00 227.50 L 266.00 227.50 L 267.00 227.50 L 268.00 227.50 L 269.00 227.50 L 270.00 227.50 L 271.00 227.50 L 272.00 227.50 L 273.00 227.50 L 274.00 227.50 L 275.00 227.50 L 276.00 227.50 L 277.00 227.50 L 278.00 227.50 L 278.50 228.00 L 278.50 229.00 L 278.50 230.00 L 278.50 231.00 L 278.50 232.00 L 278.50 233.00 L 278.50 234.00 L 278.00 234.50 Z M 320.00 234.50 L 319.00 234.50 L 318.00 234.50 L 317.00 234.50 L 316.00 234.50 L 315.00 234.50 L 314.00 234.50 L 313.00 234.50 L 312.00 234.50 L 311.00 234.50 L 310.50 234.00 L 310.50 233.00 L 310.00 232.50 L 309.50 232.00 L 309.50 231.00 L 309.00 230.50 L 308.50 230.00 L 308.00 229.50 L 307.50 229.00 L 307.50 228.00 L 307.00 227.50 L 306.50 227.00 L 306.00 226.50 L 305.50 226.00 L 305.50 225.00 L 305.50 224.00 L 305.00 223.50 L 304.50 223.00 L 304.00 222.50 L 303.50 222.00 L 303.00 221.50 L 302.00 221.50 L 301.00 221.50 L 300.00 221.50 L 299.00 221.50 L 298.00 221.50 L 297.50 222.00 L 297.50 223.00 L 297.50 224.00 L 297.50 225.00 L 297.50 226.00 L 297.50 227.00 L 297.50 228.00 L 297.50 229.00 L 297.50 230.00 L 297.50 231.00 L 297.50 232.00 L 297.50 233.00 L 297.50 234.00 L 297.00 234.50 L 296.00 234.50 L 295.00 234.50 L 294.00 234.50 L 293.00 234.50 L 292.00 234.50 L 291.00 234.50 L 290.00 234.50 L 289.00 234.50 L 288.50 234.00 L 288.50 233.00 L 288.50 232.00 L 288.50 231.00 L 288.50 230.00 L 288.50 229.00 L 288.50 228.00 L 288.50 227.00 L 288.50 226.00 L 288.50 225.00 L 288.50 224.00 L 288.50 223.00 L 288.50 222.00 L 288.50 221.00 L 288.50 220.00 L 288.50 219.00 L 288.50 218.00 L 288.50 217.00 L 288.50 216.00 L 288.50 215.00 L 288.50 214.00 L 288.50 213.00 L 288.50 212.00 L 288.50 211.00 L 288.50 210.00 L 288.50 209.00 L 288.50 208.00 L 288.50 207.00 L 288.50 206.00 L 288.50 205.00 L 288.50 204.00 L 288.50 203.00 L 289.00 202.50 L 289.50 202.00 L 289.00 201.50 L 288.50 201.00 L 288.50 200.00 L 288.50 199.00 L 288.50 198.00 L 288.50 197.00 L 289.00 196.50 L 289.50 196.00 L 290.00 195.50 L 291.00 195.50 L 292.00 195.50 L 293.00 195.50 L 294.00 195.50 L 295.00 195.50 L 296.00 195.50 L 297.00 195.50 L 298.00 195.50 L 299.00 195.50 L 300.00 195.50 L 301.00 195.50 L 302.00 195.50 L 303.00 195.50 L 304.00 195.50 L 305.00 195.50 L 306.00 195.50 L 307.00 195.50 L 308.00 195.50 L 309.00 195.50 L 309.50 196.00 L 310.00 196.50 L 311.00 196.50 L 312.00 196.50 L 312.50 197.00 L 313.00 197.50 L 314.00 197.50 L 314.50 198.00 L 315.00 198.50 L 315.50 199.00 L 316.00 199.50 L 316.50 200.00 L 317.00 200.50 L 317.50 201.00 L 318.00 201.50 L 318.50 202.00 L 318.50 203.00 L 318.50 204.00 L 318.50 205.00 L 318.50 206.00 L 319.00 206.50 L 319.50 207.00 L 319.50 208.00 L 319.50 209.00 L 319.50 210.00 L 319.00 210.50 L 318.50 211.00 L 318.50 212.00 L 318.50 213.00 L 318.00 213.50 L 317.50 214.00 L 317.50 215.00 L 317.00 215.50 L 316.50 216.00 L 316.00 216.50 L 315.50 217.00 L 315.00 217.50 L 314.50 218.00 L 314.00 218.50 L 313.00 218.50 L 312.50 219.00 L 312.00 219.50 L 311.50 220.00 L 312.00 220.50 L 312.50 221.00 L 312.50 222.00 L 313.00 222.50 L 313.50 223.00 L 314.00 223.50 L 314.50 224.00 L 314.50 225.00 L 315.00 225.50 L 315.50 226.00 L 316.00 226.50 L 316.50 227.00 L 316.50 228.00 L 317.00 228.50 L 317.50 229.00 L 318.00 229.50 L 318.50 230.00 L 318.50 231.00 L 319.00 231.50 L 319.50 232.00 L 320.00 232.50 L 320.50 233.00 L 320.50 234.00 L 320.00 234.50 Z M 360.00 234.50 L 359.00 234.50 L 358.00 234.50 L 357.00 234.50 L 356.00 234.50 L 355.00 234.50 L 354.00 234.50 L 353.00 234.50 L 352.00 234.50 L 351.00 234.50 L 350.50 234.00 L 350.00 233.50 L 349.50 233.00 L 349.50 232.00 L 349.00 231.50 L 348.50 231.00 L 348.50 230.00 L 348.00 229.50 L 347.50 229.00 L 347.00 228.50 L 346.50 228.00 L 346.50 227.00 L 346.00 226.50 L 345.50 226.00 L 345.00 225.50 L 344.50 225.00 L 344.50 224.00 L 344.00 223.50 L 343.50 223.00 L 343.50 222.00 L 343.00 221.50 L 342.00 221.50 L 341.00 221.50 L 340.00 221.50 L 339.00 221.50 L 338.00 221.50 L 337.00 221.50 L 336.50 222.00 L 336.50 223.00 L 336.50 224.00 L 336.50 225.00 L 336.50 226.00 L 336.50 227.00 L 336.50 228.00 L 336.50 229.00 L 336.50 230.00 L 336.50 231.00 L 336.50 232.00 L 336.50 233.00 L 336.50 234.00 L 336.00 234.50 L 335.00 234.50 L 334.00 234.50 L 333.00 234.50 L 332.00 234.50 L 331.00 234.50 L 330.00 234.50 L 329.00 234.50 L 328.50 234.00 L 328.50 233.00 L 328.50 232.00 L 328.50 231.00 L 328.50 230.00 L 328.50 229.00 L 328.50 228.00 L 328.50 227.00 L 328.50 226.00 L 328.50 225.00 L 328.50 224.00 L 328.50 223.00 L 328.50 222.00 L 328.50 221.00 L 328.50 220.00 L 328.50 219.00 L 328.50 218.00 L 328.50 217.00 L 328.50 216.00 L 328.50 215.00 L 328.50 214.00 L 328.50 213.00 L 328.50 212.00 L 328.50 211.00 L 328.50 210.00 L 328.50 209.00 L 328.50 208.00 L 328.50 207.00 L 328.50 206.00 L 328.50 205.00 L 328.50 204.00 L 328.50 203.00 L 328.50 202.00 L 328.50 201.00 L 328.50 200.00 L 328.50 199.00 L 328.50 198.00 L 328.50 197.00 L 328.50 196.00 L 329.00 195.50 L 330.00 195.50 L 331.00 195.50 L 332.00 195.50 L 333.00 195.50 L 334.00 195.50 L 335.00 195.50 L 336.00 195.50 L 337.00 195.50 L 338.00 195.50 L 339.00 195.50 L 340.00 195.50 L 341.00 195.50 L 342.00 195.50 L 343.00 195.50 L 344.00 195.50 L 345.00 195.50 L 346.00 195.50 L 347.00 195.50 L 347.50 196.00 L 348.00 196.50 L 349.00 196.50 L 350.00 196.50 L 350.50 197.00 L 351.00 197.50 L 352.00 197.50 L 352.50 198.00 L 353.00 198.50 L 354.00 198.50 L 354.50 199.00 L 355.00 199.50 L 355.50 200.00 L 356.00 200.50 L 356.50 201.00 L 357.00 201.50 L 357.50 202.00 L 357.50 203.00 L 357.50 204.00 L 357.50 205.00 L 358.00 205.50 L 358.50 206.00 L 358.50 207.00 L 358.50 208.00 L 358.50 209.00 L 358.50 210.00 L 358.00 210.50 L 357.50 211.00 L 357.50 212.00 L 357.50 213.00 L 357.50 214.00 L 357.00 214.50 L 356.50 215.00 L 356.00 215.50 L 355.50 216.00 L 355.00 216.50 L 354.50 217.00 L 354.00 217.50 L 353.50 218.00 L 353.00 218.50 L 352.00 218.50 L 351.50 219.00 L 351.50 220.00 L 351.50 221.00 L 352.00 221.50 L 352.50 222.00 L 353.00 222.50 L 353.50 223.00 L 353.50 224.00 L 354.00 224.50 L 354.50 225.00 L 355.00 225.50 L 355.50 226.00 L 355.50 227.00 L 356.00 227.50 L 356.50 228.00 L 356.50 229.00 L 357.00 229.50 L 357.50 230.00 L 358.00 230.50 L 358.50 231.00 L 359.00 231.50 L 359.50 232.00 L 359.50 233.00 L 360.00 233.50 L 360.50 234.00 L 360.00 234.50 Z M 386.00 235.50 L 385.00 235.50 L 384.00 235.50 L 383.50 235.00 L 383.00 234.50 L 382.00 234.50 L 381.00 234.50 L 380.00 234.50 L 379.00 234.50 L 378.00 234.50 L 377.50 234.00 L 377.00 233.50 L 376.00 233.50 L 375.50 233.00 L 375.00 232.50 L 374.00 232.50 L 373.50 232.00 L 373.00 231.50 L 372.50 231.00 L 372.00 230.50 L 371.50 230.00 L 371.50 229.00 L 371.00 228.50 L 370.50 228.00 L 370.50 227.00 L 370.00 226.50 L 369.50 226.00 L 369.50 225.00 L 369.00 224.50 L 368.50 224.00 L 368.50 223.00 L 368.50 222.00 L 368.50 221.00 L 368.50 220.00 L 368.50 219.00 L 368.50 218.00 L 368.50 217.00 L 368.50 216.00 L 368.50 215.00 L 368.50 214.00 L 368.50 213.00 L 368.50 212.00 L 368.50 211.00 L 368.50 210.00 L 368.50 209.00 L 368.50 208.00 L 368.50 207.00 L 368.50 206.00 L 368.50 205.00 L 368.50 204.00 L 368.50 203.00 L 368.50 202.00 L 368.50 201.00 L 368.50 200.00 L 368.50 199.00 L 368.50 198.00 L 368.50 197.00 L 368.50 196.00 L 369.00 195.50 L 370.00 195.50 L 371.00 195.50 L 372.00 195.50 L 373.00 195.50 L 374.00 195.50 L 375.00 195.50 L 376.00 195.50 L 376.50 196.00 L 376.50 197.00 L 376.50 198.00 L 376.50 199.00 L 376.50 200.00 L 376.50 201.00 L 376.50 202.00 L 376.50 203.00 L 376.50 204.00 L 376.50 205.00 L 376.50 206.00 L 376.50 207.00 L 376.50 208.00 L 376.50 209.00 L 376.50 210.00 L 376.50 211.00 L 376.50 212.00 L 376.50 213.00 L 376.50 214.00 L 376.50 215.00 L 376.50 216.00 L 376.50 217.00 L 376.50 218.00 L 376.50 219.00 L 376.50 220.00 L 377.00 220.50 L 377.50 221.00 L 377.50 222.00 L 377.50 223.00 L 378.00 223.50 L 378.50 224.00 L 378.50 225.00 L 379.00 225.50 L 379.50 226.00 L 380.00 226.50 L 380.50 227.00 L 381.00 227.50 L 382.00 227.50 L 383.00 227.50 L 384.00 227.50 L 385.00 227.50 L 386.00 227.50 L 387.00 227.50 L 388.00 227.50 L 388.50 227.00 L 389.00 226.50 L 390.00 226.50 L 390.50 226.00 L 391.00 225.50 L 391.50 225.00 L 391.50 224.00 L 391.50 223.00 L 392.00 222.50 L 392.50 222.00 L 392.50 221.00 L 392.50 220.00 L 392.50 219.00 L 393.00 218.50 L 393.50 218.00 L 393.50 217.00 L 393.50 216.00 L 393.50 215.00 L 393.50 214.00 L 393.50 213.00 L 393.50 212.00 L 393.50 211.00 L 393.50 210.00 L 393.50 209.00 L 393.50 208.00 L 393.50 207.00 L 393.50 206.00 L 393.50 205.00 L 393.50 204.00 L 393.50 203.00 L 393.50 202.00 L 393.50 201.00 L 393.50 200.00 L 393.50 199.00 L 393.50 198.00 L 393.50 197.00 L 393.50 196.00 L 394.00 195.50 L 395.00 195.50 L 396.00 195.50 L 397.00 195.50 L 398.00 195.50 L 399.00 195.50 L 400.00 195.50 L 401.00 195.50 L 401.50 196.00 L 401.50 197.00 L 401.50 198.00 L 401.50 199.00 L 401.50 200.00 L 401.50 201.00 L 401.50 202.00 L 401.50 203.00 L 401.50 204.00 L 401.50 205.00 L 401.50 206.00 L 401.50 207.00 L 401.50 208.00 L 401.50 209.00 L 401.50 210.00 L 401.50 211.00 L 401.50 212.00 L 401.50 213.00 L 401.50 214.00 L 401.50 215.00 L 401.50 216.00 L 401.50 217.00 L 401.50 218.00 L 401.50 219.00 L 401.50 220.00 L 401.50 221.00 L 401.50 222.00 L 401.00 222.50 L 400.50 223.00 L 400.50 224.00 L 400.50 225.00 L 400.50 226.00 L 400.00 226.50 L 399.50 227.00 L 399.00 227.50 L 398.50 228.00 L 398.50 229.00 L 398.00 229.50 L 397.50 230.00 L 397.00 230.50 L 396.50 231.00 L 396.00 231.50 L 395.50 232.00 L 395.00 232.50 L 394.00 232.50 L 393.50 233.00 L 393.00 233.50 L 392.50 234.00 L 392.00 234.50 L 391.00 234.50 L 390.00 234.50 L 389.00 234.50 L 388.00 234.50 L 387.00 234.50 L 386.50 235.00 L 386.00 235.50 Z M 452.00 234.50 L 451.00 234.50 L 450.00 234.50 L 449.00 234.50 L 448.00 234.50 L 447.00 234.50 L 446.00 234.50 L 445.00 234.50 L 444.50 234.00 L 444.50 233.00 L 444.50 232.00 L 444.50 231.00 L 444.50 230.00 L 444.50 229.00 L 444.50 228.00 L 444.50 227.00 L 444.50 226.00 L 444.50 225.00 L 444.50 224.00 L 444.50 223.00 L 444.50 222.00 L 444.50 221.00 L 444.50 220.00 L 444.50 219.00 L 444.50 218.00 L 444.50 217.00 L 444.50 216.00 L 444.50 215.00 L 444.50 214.00 L 444.50 213.00 L 444.50 212.00 L 444.00 211.50 L 443.50 212.00 L 443.00 212.50 L 442.50 213.00 L 442.50 214.00 L 442.00 214.50 L 441.50 215.00 L 441.50 216.00 L 441.00 216.50 L 440.50 217.00 L 440.50 218.00 L 440.00 218.50 L 439.50 219.00 L 439.50 220.00 L 439.00 220.50 L 438.50 221.00 L 438.00 221.50 L 437.50 222.00 L 437.50 223.00 L 437.00 223.50 L 436.50 224.00 L 436.00 224.50 L 435.50 225.00 L 435.50 226.00 L 435.50 227.00 L 435.00 227.50 L 434.50 228.00 L 434.00 228.50 L 433.00 228.50 L 432.00 228.50 L 431.50 228.00 L 431.00 227.50 L 430.50 227.00 L 430.00 226.50 L 429.50 226.00 L 429.50 225.00 L 429.00 224.50 L 428.50 224.00 L 428.00 223.50 L 427.50 223.00 L 427.50 222.00 L 427.50 221.00 L 427.00 220.50 L 426.50 220.00 L 426.00 219.50 L 425.50 219.00 L 425.50 218.00 L 425.00 217.50 L 424.50 217.00 L 424.00 216.50 L 423.50 216.00 L 423.50 215.00 L 423.00 214.50 L 422.50 214.00 L 422.50 213.00 L 422.00 212.50 L 421.00 212.50 L 420.50 213.00 L 420.50 214.00 L 420.50 215.00 L 420.50 216.00 L 420.50 217.00 L 420.50 218.00 L 420.50 219.00 L 420.50 220.00 L 420.50 221.00 L 420.50 222.00 L 421.00 222.50 L 421.50 223.00 L 421.00 223.50 L 420.50 224.00 L 420.50 225.00 L 420.50 226.00 L 420.50 227.00 L 420.50 228.00 L 420.50 229.00 L 420.50 230.00 L 420.50 231.00 L 420.50 232.00 L 420.50 233.00 L 420.50 234.00 L 420.00 234.50 L 419.00 234.50 L 418.00 234.50 L 417.00 234.50 L 416.00 234.50 L 415.00 234.50 L 414.00 234.50 L 413.00 234.50 L 412.50 234.00 L 412.50 233.00 L 412.50 232.00 L 412.50 231.00 L 412.50 230.00 L 412.50 229.00 L 412.50 228.00 L 412.50 227.00 L 412.50 226.00 L 412.50 225.00 L 412.50 224.00 L 412.50 223.00 L 412.50 222.00 L 412.50 221.00 L 412.50 220.00 L 412.50 219.00 L 412.50 218.00 L 412.50 217.00 L 412.50 216.00 L 412.50 215.00 L 412.50 214.00 L 412.50 213.00 L 412.50 212.00 L 412.50 211.00 L 412.50 210.00 L 412.50 209.00 L 412.50 208.00 L 412.50 207.00 L 412.50 206.00 L 412.50 205.00 L 412.50 204.00 L 412.50 203.00 L 412.50 202.00 L 412.50 201.00 L 412.50 200.00 L 412.50 199.00 L 412.50 198.00 L 412.50 197.00 L 412.50 196.00 L 413.00 195.50 L 414.00 195.50 L 415.00 195.50 L 416.00 195.50 L 417.00 195.50 L 418.00 195.50 L 419.00 195.50 L 420.00 195.50 L 421.00 195.50 L 421.50 196.00 L 421.50 197.00 L 422.00 197.50 L 422.50 198.00 L 422.50 199.00 L 423.00 199.50 L 423.50 200.00 L 423.50 201.00 L 424.00 201.50 L 424.50 202.00 L 425.00 202.50 L 425.50 203.00 L 425.50 204.00 L 426.00 204.50 L 426.50 205.00 L 426.50 206.00 L 427.00 206.50 L 427.50 207.00 L 427.50 208.00 L 428.00 208.50 L 428.50 209.00 L 429.00 209.50 L 429.50 210.00 L 429.50 211.00 L 429.50 212.00 L 430.00 212.50 L 430.50 213.00 L 431.00 213.50 L 431.50 214.00 L 431.50 215.00 L 432.00 215.50 L 433.00 215.50 L 433.50 215.00 L 433.50 214.00 L 434.00 213.50 L 434.50 213.00 L 435.00 212.50 L 435.50 212.00 L 435.50 211.00 L 436.00 210.50 L 436.50 210.00 L 436.50 209.00 L 437.00 208.50 L 437.50 208.00 L 437.50 207.00 L 438.00 206.50 L 438.50 206.00 L 438.50 205.00 L 439.00 204.50 L 439.50 204.00 L 440.00 203.50 L 440.50 203.00 L 440.50 202.00 L 441.00 201.50 L 441.50 201.00 L 441.50 200.00 L 442.00 199.50 L 442.50 199.00 L 442.50 198.00 L 443.00 197.50 L 443.50 197.00 L 444.00 196.50 L 444.50 196.00 L 445.00 195.50 L 446.00 195.50 L 447.00 195.50 L 448.00 195.50 L 449.00 195.50 L 450.00 195.50 L 451.00 195.50 L 452.00 195.50 L 452.50 196.00 L 452.50 197.00 L 452.50 198.00 L 452.50 199.00 L 452.50 200.00 L 452.50 201.00 L 452.50 202.00 L 452.50 203.00 L 452.50 204.00 L 452.50 205.00 L 452.50 206.00 L 452.50 207.00 L 452.50 208.00 L 452.50 209.00 L 452.50 210.00 L 452.50 211.00 L 452.50 212.00 L 452.50 213.00 L 452.50 214.00 L 452.50 215.00 L 452.50 216.00 L 452.50 217.00 L 452.50 218.00 L 452.50 219.00 L 452.50 220.00 L 452.50 221.00 L 452.50 222.00 L 452.50 223.00 L 452.50 224.00 L 452.50 225.00 L 452.50 226.00 L 452.50 227.00 L 452.50 228.00 L 452.50 229.00 L 452.50 230.00 L 452.50 231.00 L 452.50 232.00 L 452.50 233.00 L 452.50 234.00 L 452.00 234.50 Z M 307.50 213.00 L 308.00 212.50 L 309.00 212.50 L 309.50 212.00 L 309.50 211.00 L 310.00 210.50 L 310.50 210.00 L 310.50 209.00 L 310.50 208.00 L 310.50 207.00 L 310.00 206.50 L 309.50 206.00 L 309.50 205.00 L 309.00 204.50 L 308.50 204.00 L 308.00 203.50 L 307.50 203.00 L 307.00 202.50 L 306.00 202.50 L 305.00 202.50 L 304.00 202.50 L 303.00 202.50 L 302.00 202.50 L 301.00 202.50 L 300.00 202.50 L 299.00 202.50 L 298.00 202.50 L 297.50 203.00 L 297.50 204.00 L 297.50 205.00 L 297.50 206.00 L 297.50 207.00 L 297.50 208.00 L 297.50 209.00 L 297.50 210.00 L 297.50 211.00 L 297.50 212.00 L 297.50 213.00 L 298.00 213.50 L 299.00 213.50 L 300.00 213.50 L 301.00 213.50 L 302.00 213.50 L 303.00 213.50 L 304.00 213.50 L 305.00 213.50 L 306.00 213.50 L 307.00 213.50 L 307.50 213.00 Z M 347.50 213.00 L 348.00 212.50 L 348.50 212.00 L 348.50 211.00 L 349.00 210.50 L 349.50 210.00 L 349.50 209.00 L 349.50 208.00 L 349.50 207.00 L 349.50 206.00 L 349.00 205.50 L 348.50 205.00 L 348.00 204.50 L 347.50 204.00 L 347.00 203.50 L 346.50 203.00 L 346.00 202.50 L 345.00 202.50 L 344.00 202.50 L 343.00 202.50 L 342.00 202.50 L 341.00 202.50 L 340.00 202.50 L 339.00 202.50 L 338.00 202.50 L 337.50 203.00 L 337.00 203.50 L 336.50 204.00 L 336.50 205.00 L 336.50 206.00 L 337.00 206.50 L 337.50 207.00 L 337.00 207.50 L 336.50 208.00 L 337.00 208.50 L 337.50 209.00 L 337.00 209.50 L 336.50 210.00 L 337.00 210.50 L 337.50 211.00 L 337.00 211.50 L 336.50 212.00 L 336.50 213.00 L 337.00 213.50 L 338.00 213.50 L 339.00 213.50 L 340.00 213.50 L 341.00 213.50 L 342.00 213.50 L 343.00 213.50 L 344.00 213.50 L 345.00 213.50 L 346.00 213.50 L 347.00 213.50 L 347.50 213.00 Z M 350.00 287.50 L 349.00 287.50 L 348.00 287.50 L 347.00 287.50 L 346.00 287.50 L 345.00 287.50 L 344.00 287.50 L 343.50 287.00 L 343.00 286.50 L 342.00 286.50 L 341.00 286.50 L 340.00 286.50 L 339.00 286.50 L 338.50 286.00 L 338.00 285.50 L 337.00 285.50 L 336.50 285.00 L 336.00 284.50 L 335.00 284.50 L 334.50 284.00 L 334.00 283.50 L 333.50 283.00 L 333.00 282.50 L 332.50 282.00 L 332.00 281.50 L 331.50 281.00 L 331.50 280.00 L 331.50 279.00 L 332.00 278.50 L 332.50 278.00 L 333.00 277.50 L 333.50 277.00 L 334.00 276.50 L 334.50 276.00 L 335.00 275.50 L 336.00 275.50 L 336.50 276.00 L 337.00 276.50 L 338.00 276.50 L 338.50 277.00 L 339.00 277.50 L 339.50 278.00 L 340.00 278.50 L 341.00 278.50 L 341.50 279.00 L 342.00 279.50 L 343.00 279.50 L 344.00 279.50 L 344.50 280.00 L 345.00 280.50 L 346.00 280.50 L 347.00 280.50 L 348.00 280.50 L 349.00 280.50 L 349.50 280.00 L 350.00 279.50 L 351.00 279.50 L 351.50 279.00 L 352.00 278.50 L 352.50 278.00 L 352.50 277.00 L 352.50 276.00 L 352.50 275.00 L 352.00 274.50 L 351.50 274.00 L 351.00 273.50 L 350.50 273.00 L 350.00 272.50 L 349.50 272.00 L 349.00 271.50 L 348.00 271.50 L 347.00 271.50 L 346.50 271.00 L 346.00 270.50 L 345.00 270.50 L 344.00 270.50 L 343.50 270.00 L 343.00 269.50 L 342.00 269.50 L 341.00 269.50 L 340.50 269.00 L 340.00 268.50 L 339.00 268.50 L 338.50 268.00 L 338.00 267.50 L 337.50 267.00 L 337.00 266.50 L 336.00 266.50 L 335.50 266.00 L 335.00 265.50 L 334.50 265.00 L 334.50 264.00 L 334.00 263.50 L 333.50 263.00 L 333.50 262.00 L 333.50 261.00 L 333.00 260.50 L 332.50 260.00 L 332.50 259.00 L 332.50 258.00 L 332.50 257.00 L 332.50 256.00 L 333.00 255.50 L 333.50 255.00 L 333.50 254.00 L 333.50 253.00 L 334.00 252.50 L 334.50 252.00 L 335.00 251.50 L 335.50 251.00 L 336.00 250.50 L 336.50 250.00 L 337.00 249.50 L 337.50 249.00 L 338.00 248.50 L 339.00 248.50 L 339.50 248.00 L 340.00 247.50 L 341.00 247.50 L 342.00 247.50 L 343.00 247.50 L 344.00 247.50 L 344.50 247.00 L 345.00 246.50 L 346.00 246.50 L 346.50 247.00 L 347.00 247.50 L 348.00 247.50 L 349.00 247.50 L 350.00 247.50 L 351.00 247.50 L 352.00 247.50 L 353.00 247.50 L 353.50 248.00 L 354.00 248.50 L 355.00 248.50 L 355.50 249.00 L 356.00 249.50 L 356.50 250.00 L 357.00 250.50 L 357.50 251.00 L 358.00 251.50 L 358.50 252.00 L 359.00 252.50 L 359.50 253.00 L 359.50 254.00 L 359.00 254.50 L 358.50 255.00 L 358.00 255.50 L 357.50 256.00 L 357.00 256.50 L 356.50 257.00 L 356.00 257.50 L 355.50 258.00 L 355.00 258.50 L 354.50 258.00 L 354.00 257.50 L 353.50 257.00 L 353.00 256.50 L 352.50 256.00 L 352.00 255.50 L 351.00 255.50 L 350.50 255.00 L 350.00 254.50 L 349.00 254.50 L 348.50 254.00 L 348.00 253.50 L 347.00 253.50 L 346.00 253.50 L 345.00 253.50 L 344.50 254.00 L 344.00 254.50 L 343.00 254.50 L 342.50 255.00 L 342.00 255.50 L 341.50 256.00 L 341.00 256.50 L 340.50 257.00 L 340.50 258.00 L 340.50 259.00 L 341.00 259.50 L 341.50 260.00 L 342.00 260.50 L 342.50 261.00 L 343.00 261.50 L 344.00 261.50 L 344.50 262.00 L 345.00 262.50 L 346.00 262.50 L 347.00 262.50 L 348.00 262.50 L 348.50 263.00 L 349.00 263.50 L 350.00 263.50 L 350.50 264.00 L 351.00 264.50 L 352.00 264.50 L 352.50 265.00 L 353.00 265.50 L 354.00 265.50 L 354.50 266.00 L 355.00 266.50 L 356.00 266.50 L 356.50 267.00 L 357.00 267.50 L 357.50 268.00 L 358.00 268.50 L 358.50 269.00 L 359.00 269.50 L 359.50 270.00 L 359.50 271.00 L 360.00 271.50 L 360.50 272.00 L 360.50 273.00 L 361.00 273.50 L 361.50 274.00 L 361.50 275.00 L 361.50 276.00 L 361.50 277.00 L 361.50 278.00 L 361.00 278.50 L 360.50 279.00 L 360.50 280.00 L 360.00 280.50 L 359.50 281.00 L 359.50 282.00 L 359.00 282.50 L 358.50 283.00 L 358.00 283.50 L 357.50 284.00 L 357.00 284.50 L 356.50 285.00 L 356.00 285.50 L 355.00 285.50 L 354.50 286.00 L 354.00 286.50 L 353.00 286.50 L 352.00 286.50 L 351.00 286.50 L 350.50 287.00 L 350.00 287.50 Z M 243.00 286.50 L 242.00 286.50 L 241.00 286.50 L 240.00 286.50 L 239.00 286.50 L 238.00 286.50 L 237.00 286.50 L 236.00 286.50 L 235.00 286.50 L 234.00 286.50 L 233.00 286.50 L 232.00 286.50 L 231.00 286.50 L 230.00 286.50 L 229.00 286.50 L 228.00 286.50 L 227.00 286.50 L 226.00 286.50 L 225.00 286.50 L 224.00 286.50 L 223.00 286.50 L 222.00 286.50 L 221.00 286.50 L 220.00 286.50 L 219.00 286.50 L 218.00 286.50 L 217.00 286.50 L 216.50 286.00 L 216.50 285.00 L 216.50 284.00 L 216.50 283.00 L 216.50 282.00 L 216.50 281.00 L 216.50 280.00 L 216.50 279.00 L 216.50 278.00 L 216.50 277.00 L 216.50 276.00 L 216.50 275.00 L 216.50 274.00 L 216.50 273.00 L 216.50 272.00 L 216.50 271.00 L 216.50 270.00 L 216.50 269.00 L 216.50 268.00 L 216.50 267.00 L 216.50 266.00 L 216.50 265.00 L 216.50 264.00 L 216.50 263.00 L 216.50 262.00 L 216.50 261.00 L 216.50 260.00 L 216.50 259.00 L 216.50 258.00 L 216.50 257.00 L 216.50 256.00 L 216.50 255.00 L 216.50 254.00 L 216.50 253.00 L 216.50 252.00 L 216.50 251.00 L 216.50 250.00 L 216.50 249.00 L 216.50 248.00 L 217.00 247.50 L 218.00 247.50 L 219.00 247.50 L 220.00 247.50 L 221.00 247.50 L 222.00 247.50 L 223.00 247.50 L 224.00 247.50 L 225.00 247.50 L 225.50 248.00 L 225.50 249.00 L 225.50 250.00 L 225.50 251.00 L 225.50 252.00 L 225.50 253.00 L 225.50 254.00 L 225.50 255.00 L 225.50 256.00 L 225.50 257.00 L 225.50 258.00 L 225.50 259.00 L 225.50 260.00 L 225.50 261.00 L 225.50 262.00 L 225.50 263.00 L 225.50 264.00 L 225.50 265.00 L 225.50 266.00 L 225.50 267.00 L 225.50 268.00 L 225.50 269.00 L 225.50 270.00 L 225.50 271.00 L 225.50 272.00 L 225.50 273.00 L 225.50 274.00 L 225.50 275.00 L 225.50 276.00 L 225.50 277.00 L 225.50 278.00 L 225.50 279.00 L 226.00 279.50 L 227.00 279.50 L 228.00 279.50 L 229.00 279.50 L 230.00 279.50 L 231.00 279.50 L 232.00 279.50 L 233.00 279.50 L 234.00 279.50 L 235.00 279.50 L 236.00 279.50 L 237.00 279.50 L 238.00 279.50 L 239.00 279.50 L 240.00 279.50 L 241.00 279.50 L 242.00 279.50 L 243.00 279.50 L 243.50 280.00 L 243.50 281.00 L 243.50 282.00 L 243.50 283.00 L 243.50 284.00 L 243.50 285.00 L 243.50 286.00 L 243.00 286.50 Z M 286.00 286.50 L 285.00 286.50 L 284.00 286.50 L 283.00 286.50 L 282.00 286.50 L 281.00 286.50 L 280.00 286.50 L 279.00 286.50 L 278.50 286.00 L 278.00 285.50 L 277.50 285.00 L 277.50 284.00 L 277.00 283.50 L 276.50 283.00 L 276.50 282.00 L 276.50 281.00 L 276.00 280.50 L 275.50 280.00 L 275.50 279.00 L 275.00 278.50 L 274.00 278.50 L 273.00 278.50 L 272.00 278.50 L 271.00 278.50 L 270.00 278.50 L 269.00 278.50 L 268.00 278.50 L 267.00 278.50 L 266.00 278.50 L 265.00 278.50 L 264.00 278.50 L 263.00 278.50 L 262.00 278.50 L 261.00 278.50 L 260.50 279.00 L 260.50 280.00 L 260.00 280.50 L 259.50 281.00 L 259.50 282.00 L 259.00 282.50 L 258.50 283.00 L 258.50 284.00 L 258.50 285.00 L 258.00 285.50 L 257.50 286.00 L 257.00 286.50 L 256.00 286.50 L 255.00 286.50 L 254.00 286.50 L 253.00 286.50 L 252.00 286.50 L 251.00 286.50 L 250.00 286.50 L 249.50 286.00 L 249.50 285.00 L 249.50 284.00 L 250.00 283.50 L 250.50 283.00 L 250.50 282.00 L 251.00 281.50 L 251.50 281.00 L 251.50 280.00 L 251.50 279.00 L 252.00 278.50 L 252.50 278.00 L 252.50 277.00 L 253.00 276.50 L 253.50 276.00 L 253.50 275.00 L 253.50 274.00 L 253.50 273.00 L 254.00 272.50 L 254.50 272.00 L 255.00 271.50 L 255.50 271.00 L 255.50 270.00 L 255.50 269.00 L 255.50 268.00 L 256.00 267.50 L 256.50 267.00 L 257.00 266.50 L 257.50 266.00 L 257.50 265.00 L 257.50 264.00 L 257.50 263.00 L 258.00 262.50 L 258.50 262.00 L 258.50 261.00 L 259.00 260.50 L 259.50 260.00 L 259.50 259.00 L 259.50 258.00 L 260.00 257.50 L 260.50 257.00 L 260.50 256.00 L 261.00 255.50 L 261.50 255.00 L 261.50 254.00 L 261.50 253.00 L 262.00 252.50 L 262.50 252.00 L 262.50 251.00 L 263.00 250.50 L 263.50 250.00 L 263.50 249.00 L 263.50 248.00 L 264.00 247.50 L 265.00 247.50 L 266.00 247.50 L 267.00 247.50 L 268.00 247.50 L 269.00 247.50 L 270.00 247.50 L 271.00 247.50 L 272.00 247.50 L 272.50 248.00 L 272.50 249.00 L 273.00 249.50 L 273.50 250.00 L 273.50 251.00 L 273.50 252.00 L 274.00 252.50 L 274.50 253.00 L 274.50 254.00 L 275.00 254.50 L 275.50 255.00 L 275.50 256.00 L 275.50 257.00 L 275.50 258.00 L 276.00 258.50 L 276.50 259.00 L 277.00 259.50 L 277.50 260.00 L 277.50 261.00 L 277.50 262.00 L 278.00 262.50 L 278.50 263.00 L 278.50 264.00 L 278.50 265.00 L 278.50 266.00 L 279.00 266.50 L 279.50 267.00 L 279.50 268.00 L 280.00 268.50 L 280.50 269.00 L 281.00 269.50 L 281.50 270.00 L 281.00 270.50 L 280.50 271.00 L 281.00 271.50 L 281.50 272.00 L 281.50 273.00 L 282.00 273.50 L 282.50 274.00 L 282.50 275.00 L 282.50 276.00 L 283.00 276.50 L 283.50 277.00 L 284.00 277.50 L 284.50 278.00 L 284.50 279.00 L 284.50 280.00 L 284.50 281.00 L 285.00 281.50 L 285.50 282.00 L 285.50 283.00 L 286.00 283.50 L 286.50 284.00 L 286.50 285.00 L 286.50 286.00 L 286.00 286.50 Z M 317.00 286.50 L 316.00 286.50 L 315.00 286.50 L 314.00 286.50 L 313.00 286.50 L 312.00 286.50 L 311.00 286.50 L 310.00 286.50 L 309.00 286.50 L 308.00 286.50 L 307.00 286.50 L 306.00 286.50 L 305.00 286.50 L 304.00 286.50 L 303.00 286.50 L 302.00 286.50 L 301.00 286.50 L 300.00 286.50 L 299.00 286.50 L 298.00 286.50 L 297.00 286.50 L 296.00 286.50 L 295.00 286.50 L 294.50 286.00 L 294.50 285.00 L 294.50 284.00 L 294.50 283.00 L 294.50 282.00 L 294.50 281.00 L 294.50 280.00 L 294.50 279.00 L 294.50 278.00 L 294.50 277.00 L 294.50 276.00 L 294.50 275.00 L 294.50 274.00 L 294.50 273.00 L 294.50 272.00 L 294.50 271.00 L 294.50 270.00 L 294.50 269.00 L 294.50 268.00 L 294.50 267.00 L 294.50 266.00 L 294.50 265.00 L 294.50 264.00 L 294.50 263.00 L 294.50 262.00 L 294.50 261.00 L 294.50 260.00 L 294.50 259.00 L 294.50 258.00 L 294.50 257.00 L 294.50 256.00 L 294.50 255.00 L 294.50 254.00 L 294.50 253.00 L 294.50 252.00 L 294.50 251.00 L 294.50 250.00 L 294.50 249.00 L 294.50 248.00 L 295.00 247.50 L 296.00 247.50 L 297.00 247.50 L 298.00 247.50 L 299.00 247.50 L 300.00 247.50 L 301.00 247.50 L 302.00 247.50 L 303.00 247.50 L 304.00 247.50 L 305.00 247.50 L 306.00 247.50 L 307.00 247.50 L 308.00 247.50 L 309.00 247.50 L 310.00 247.50 L 311.00 247.50 L 312.00 247.50 L 313.00 247.50 L 314.00 247.50 L 315.00 247.50 L 315.50 248.00 L 316.00 248.50 L 316.50 249.00 L 317.00 249.50 L 318.00 249.50 L 319.00 249.50 L 319.50 250.00 L 320.00 250.50 L 320.50 251.00 L 320.50 252.00 L 321.00 252.50 L 321.50 253.00 L 322.00 253.50 L 322.50 254.00 L 322.00 254.50 L 321.50 255.00 L 322.00 255.50 L 322.50 256.00 L 322.50 257.00 L 322.50 258.00 L 322.50 259.00 L 322.50 260.00 L 322.00 260.50 L 321.50 261.00 L 321.50 262.00 L 321.50 263.00 L 321.00 263.50 L 320.50 264.00 L 320.00 264.50 L 319.50 265.00 L 319.00 265.50 L 318.50 266.00 L 319.00 266.50 L 320.00 266.50 L 321.00 266.50 L 321.50 267.00 L 322.00 267.50 L 322.50 268.00 L 323.00 268.50 L 323.50 269.00 L 323.50 270.00 L 324.00 270.50 L 324.50 271.00 L 324.50 272.00 L 325.00 272.50 L 325.50 273.00 L 325.50 274.00 L 325.50 275.00 L 325.50 276.00 L 325.50 277.00 L 325.50 278.00 L 325.50 279.00 L 325.00 279.50 L 324.50 280.00 L 324.00 280.50 L 323.50 281.00 L 323.50 282.00 L 323.00 282.50 L 322.50 283.00 L 322.00 283.50 L 321.50 284.00 L 321.00 284.50 L 320.00 284.50 L 319.50 285.00 L 319.00 285.50 L 318.00 285.50 L 317.50 286.00 L 317.00 286.50 Z M 312.50 263.00 L 313.00 262.50 L 313.50 262.00 L 313.50 261.00 L 314.00 260.50 L 314.50 260.00 L 314.50 259.00 L 314.50 258.00 L 314.00 257.50 L 313.50 257.00 L 313.50 256.00 L 313.00 255.50 L 312.00 255.50 L 311.00 255.50 L 310.50 255.00 L 310.00 254.50 L 309.00 254.50 L 308.00 254.50 L 307.00 254.50 L 306.00 254.50 L 305.00 254.50 L 304.00 254.50 L 303.00 254.50 L 302.50 255.00 L 302.50 256.00 L 302.50 257.00 L 302.50 258.00 L 302.50 259.00 L 302.50 260.00 L 302.50 261.00 L 302.50 262.00 L 303.00 262.50 L 304.00 262.50 L 305.00 262.50 L 306.00 262.50 L 307.00 262.50 L 308.00 262.50 L 309.00 262.50 L 310.00 262.50 L 311.00 262.50 L 311.50 263.00 L 312.00 263.50 L 312.50 263.00 Z M 272.50 271.00 L 272.50 270.00 L 272.00 269.50 L 271.50 269.00 L 271.50 268.00 L 271.00 267.50 L 270.50 267.00 L 270.50 266.00 L 270.50 265.00 L 270.50 264.00 L 270.00 263.50 L 269.50 263.00 L 269.50 262.00 L 269.00 261.50 L 268.50 261.00 L 268.50 260.00 L 268.50 259.00 L 268.50 258.00 L 268.00 257.50 L 267.50 258.00 L 267.50 259.00 L 267.50 260.00 L 267.00 260.50 L 266.50 261.00 L 266.50 262.00 L 266.00 262.50 L 265.50 263.00 L 265.50 264.00 L 265.50 265.00 L 265.50 266.00 L 265.00 266.50 L 264.50 267.00 L 264.50 268.00 L 264.00 268.50 L 263.50 269.00 L 263.50 270.00 L 263.50 271.00 L 264.00 271.50 L 265.00 271.50 L 266.00 271.50 L 267.00 271.50 L 268.00 271.50 L 269.00 271.50 L 270.00 271.50 L 271.00 271.50 L 272.00 271.50 L 272.50 271.00 Z M 312.50 280.00 L 313.00 279.50 L 314.00 279.50 L 314.50 279.00 L 315.00 278.50 L 315.50 278.00 L 316.00 277.50 L 316.50 277.00 L 317.00 276.50 L 317.50 276.00 L 317.50 275.00 L 317.00 274.50 L 316.50 274.00 L 316.50 273.00 L 316.00 272.50 L 315.50 272.00 L 315.00 271.50 L 314.00 271.50 L 313.50 271.00 L 313.00 270.50 L 312.00 270.50 L 311.00 270.50 L 310.00 270.50 L 309.00 270.50 L 308.00 270.50 L 307.00 270.50 L 306.00 270.50 L 305.00 270.50 L 304.00 270.50 L 303.00 270.50 L 302.50 271.00 L 302.50 272.00 L 302.50 273.00 L 302.50 274.00 L 302.50 275.00 L 302.50 276.00 L 302.50 277.00 L 302.50 278.00 L 302.50 279.00 L 302.50 280.00 L 303.00 280.50 L 304.00 280.50 L 305.00 280.50 L 306.00 280.50 L 307.00 280.50 L 308.00 280.50 L 309.00 280.50 L 310.00 280.50 L 311.00 280.50 L 312.00 280.50 L 312.50 280.00 Z M 220.00 318.50 L 219.00 318.50 L 218.50 318.00 L 218.50 317.00 L 218.50 316.00 L 218.50 315.00 L 218.50 314.00 L 218.50 313.00 L 218.50 312.00 L 218.50 311.00 L 218.50 310.00 L 218.50 309.00 L 218.50 308.00 L 218.50 307.00 L 218.50 306.00 L 219.00 305.50 L 220.00 305.50 L 220.50 306.00 L 221.00 306.50 L 221.50 307.00 L 221.00 307.50 L 220.50 308.00 L 220.50 309.00 L 221.00 309.50 L 221.50 310.00 L 221.50 311.00 L 221.50 312.00 L 221.50 313.00 L 221.50 314.00 L 221.50 315.00 L 221.50 316.00 L 221.50 317.00 L 221.00 317.50 L 220.50 318.00 L 220.00 318.50 Z M 234.00 318.50 L 233.00 318.50 L 232.50 318.00 L 232.00 317.50 L 231.50 317.00 L 231.50 316.00 L 231.00 315.50 L 230.50 315.00 L 230.00 314.50 L 229.50 314.00 L 229.00 313.50 L 228.50 313.00 L 228.00 312.50 L 227.50 313.00 L 227.50 314.00 L 227.50 315.00 L 227.50 316.00 L 227.50 317.00 L 227.50 318.00 L 227.00 318.50 L 226.00 318.50 L 225.00 318.50 L 224.50 318.00 L 224.50 317.00 L 224.50 316.00 L 224.50 315.00 L 224.50 314.00 L 224.50 313.00 L 224.50 312.00 L 224.50 311.00 L 224.50 310.00 L 224.50 309.00 L 224.50 308.00 L 224.50 307.00 L 224.50 306.00 L 225.00 305.50 L 226.00 305.50 L 226.50 306.00 L 227.00 306.50 L 227.50 307.00 L 228.00 307.50 L 228.50 308.00 L 228.50 309.00 L 229.00 309.50 L 229.50 310.00 L 230.00 310.50 L 230.50 311.00 L 230.50 312.00 L 231.00 312.50 L 231.50 312.00 L 231.50 311.00 L 231.50 310.00 L 231.50 309.00 L 231.50 308.00 L 231.50 307.00 L 232.00 306.50 L 232.50 306.00 L 233.00 305.50 L 233.50 306.00 L 234.00 306.50 L 234.50 307.00 L 234.50 308.00 L 234.50 309.00 L 234.50 310.00 L 234.50 311.00 L 234.50 312.00 L 234.50 313.00 L 234.50 314.00 L 234.50 315.00 L 234.50 316.00 L 234.50 317.00 L 234.50 318.00 L 234.00 318.50 Z M 243.00 318.50 L 242.00 318.50 L 241.50 318.00 L 241.00 317.50 L 240.50 317.00 L 240.50 316.00 L 240.50 315.00 L 240.50 314.00 L 240.50 313.00 L 240.50 312.00 L 240.50 311.00 L 240.50 310.00 L 240.50 309.00 L 240.00 308.50 L 239.00 308.50 L 238.00 308.50 L 237.00 308.50 L 236.50 308.00 L 237.00 307.50 L 237.50 307.00 L 237.50 306.00 L 238.00 305.50 L 239.00 305.50 L 240.00 305.50 L 241.00 305.50 L 242.00 305.50 L 243.00 305.50 L 244.00 305.50 L 245.00 305.50 L 246.00 305.50 L 246.50 306.00 L 247.00 306.50 L 247.50 307.00 L 247.50 308.00 L 247.00 308.50 L 246.00 308.50 L 245.00 308.50 L 244.00 308.50 L 243.50 309.00 L 243.50 310.00 L 243.50 311.00 L 243.50 312.00 L 243.50 313.00 L 243.50 314.00 L 243.50 315.00 L 243.50 316.00 L 243.50 317.00 L 243.50 318.00 L 243.00 318.50 Z M 257.00 318.50 L 256.00 318.50 L 255.00 318.50 L 254.00 318.50 L 253.00 318.50 L 252.00 318.50 L 251.00 318.50 L 250.00 318.50 L 249.50 318.00 L 249.50 317.00 L 249.50 316.00 L 249.50 315.00 L 249.50 314.00 L 249.50 313.00 L 249.50 312.00 L 249.50 311.00 L 249.50 310.00 L 249.50 309.00 L 249.50 308.00 L 249.50 307.00 L 249.50 306.00 L 250.00 305.50 L 251.00 305.50 L 252.00 305.50 L 253.00 305.50 L 254.00 305.50 L 255.00 305.50 L 256.00 305.50 L 257.00 305.50 L 257.50 306.00 L 257.50 307.00 L 257.50 308.00 L 257.00 308.50 L 256.00 308.50 L 255.00 308.50 L 254.00 308.50 L 253.00 308.50 L 252.00 308.50 L 251.50 309.00 L 251.50 310.00 L 252.00 310.50 L 253.00 310.50 L 254.00 310.50 L 255.00 310.50 L 256.00 310.50 L 256.50 311.00 L 256.50 312.00 L 256.50 313.00 L 256.00 313.50 L 255.00 313.50 L 254.00 313.50 L 253.00 313.50 L 252.00 313.50 L 251.50 314.00 L 251.50 315.00 L 252.00 315.50 L 253.00 315.50 L 254.00 315.50 L 255.00 315.50 L 256.00 315.50 L 257.00 315.50 L 257.50 316.00 L 257.50 317.00 L 257.50 318.00 L 257.00 318.50 Z M 267.00 318.50 L 266.00 318.50 L 265.00 318.50 L 264.00 318.50 L 263.00 318.50 L 262.00 318.50 L 261.00 318.50 L 260.50 318.00 L 260.50 317.00 L 260.50 316.00 L 260.50 315.00 L 260.50 314.00 L 260.50 313.00 L 260.50 312.00 L 260.50 311.00 L 260.50 310.00 L 260.50 309.00 L 260.50 308.00 L 260.50 307.00 L 260.50 306.00 L 261.00 305.50 L 262.00 305.50 L 262.50 306.00 L 263.00 306.50 L 263.50 307.00 L 263.50 308.00 L 263.50 309.00 L 263.50 310.00 L 263.50 311.00 L 263.50 312.00 L 263.50 313.00 L 263.50 314.00 L 263.50 315.00 L 264.00 315.50 L 265.00 315.50 L 266.00 315.50 L 267.00 315.50 L 268.00 315.50 L 268.50 316.00 L 268.50 317.00 L 268.00 317.50 L 267.50 318.00 L 267.00 318.50 Z M 278.00 318.50 L 277.00 318.50 L 276.00 318.50 L 275.00 318.50 L 274.00 318.50 L 273.00 318.50 L 272.00 318.50 L 271.50 318.00 L 271.00 317.50 L 270.50 317.00 L 270.50 316.00 L 270.50 315.00 L 270.50 314.00 L 270.50 313.00 L 270.50 312.00 L 270.50 311.00 L 270.50 310.00 L 270.50 309.00 L 270.50 308.00 L 270.50 307.00 L 271.00 306.50 L 271.50 306.00 L 272.00 305.50 L 272.50 306.00 L 273.00 306.50 L 273.50 307.00 L 273.50 308.00 L 273.50 309.00 L 273.50 310.00 L 273.50 311.00 L 273.50 312.00 L 273.50 313.00 L 273.50 314.00 L 273.50 315.00 L 274.00 315.50 L 275.00 315.50 L 276.00 315.50 L 277.00 315.50 L 278.00 315.50 L 278.50 316.00 L 279.00 316.50 L 279.50 317.00 L 279.00 317.50 L 278.50 318.00 L 278.00 318.50 Z M 283.00 318.50 L 282.00 318.50 L 281.00 318.50 L 280.50 318.00 L 280.50 317.00 L 280.50 316.00 L 280.50 315.00 L 280.50 314.00 L 280.50 313.00 L 280.50 312.00 L 280.50 311.00 L 280.50 310.00 L 280.50 309.00 L 280.50 308.00 L 280.50 307.00 L 280.50 306.00 L 281.00 305.50 L 282.00 305.50 L 283.00 305.50 L 283.50 306.00 L 283.50 307.00 L 283.50 308.00 L 283.50 309.00 L 283.50 310.00 L 283.50 311.00 L 283.50 312.00 L 283.50 313.00 L 283.50 314.00 L 283.50 315.00 L 283.50 316.00 L 283.50 317.00 L 283.50 318.00 L 283.00 318.50 Z M 295.00 318.50 L 294.00 318.50 L 293.00 318.50 L 292.00 318.50 L 291.00 318.50 L 290.00 318.50 L 289.50 318.00 L 289.00 317.50 L 288.50 317.00 L 288.00 316.50 L 287.50 316.00 L 287.00 315.50 L 286.50 315.00 L 286.50 314.00 L 286.50 313.00 L 286.50 312.00 L 286.50 311.00 L 286.50 310.00 L 287.00 309.50 L 287.50 309.00 L 287.50 308.00 L 288.00 307.50 L 289.00 307.50 L 289.50 307.00 L 290.00 306.50 L 290.50 306.00 L 291.00 305.50 L 292.00 305.50 L 293.00 305.50 L 294.00 305.50 L 295.00 305.50 L 295.50 306.00 L 296.00 306.50 L 296.50 307.00 L 297.00 307.50 L 297.50 308.00 L 297.00 308.50 L 296.50 309.00 L 296.00 309.50 L 295.00 309.50 L 294.50 309.00 L 294.00 308.50 L 293.00 308.50 L 292.00 308.50 L 291.50 309.00 L 291.00 309.50 L 290.50 310.00 L 290.00 310.50 L 289.50 311.00 L 289.00 311.50 L 288.50 312.00 L 289.00 312.50 L 289.50 313.00 L 289.50 314.00 L 290.00 314.50 L 290.50 315.00 L 291.00 315.50 L 292.00 315.50 L 293.00 315.50 L 294.00 315.50 L 294.50 315.00 L 294.00 314.50 L 293.00 314.50 L 292.50 314.00 L 292.50 313.00 L 292.50 312.00 L 293.00 311.50 L 294.00 311.50 L 295.00 311.50 L 296.00 311.50 L 297.00 311.50 L 297.50 312.00 L 297.50 313.00 L 297.50 314.00 L 297.50 315.00 L 297.50 316.00 L 297.00 316.50 L 296.50 317.00 L 296.00 317.50 L 295.50 318.00 L 295.00 318.50 Z M 309.00 318.50 L 308.00 318.50 L 307.00 318.50 L 306.00 318.50 L 305.00 318.50 L 304.00 318.50 L 303.00 318.50 L 302.00 318.50 L 301.00 318.50 L 300.50 318.00 L 300.50 317.00 L 300.50 316.00 L 300.50 315.00 L 300.50 314.00 L 300.50 313.00 L 300.50 312.00 L 300.50 311.00 L 300.50 310.00 L 300.50 309.00 L 300.50 308.00 L 300.50 307.00 L 301.00 306.50 L 301.50 306.00 L 302.00 305.50 L 303.00 305.50 L 304.00 305.50 L 305.00 305.50 L 306.00 305.50 L 307.00 305.50 L 308.00 305.50 L 308.50 306.00 L 308.50 307.00 L 308.50 308.00 L 308.00 308.50 L 307.00 308.50 L 306.00 308.50 L 305.00 308.50 L 304.00 308.50 L 303.50 309.00 L 303.50 310.00 L 304.00 310.50 L 305.00 310.50 L 306.00 310.50 L 307.00 310.50 L 308.00 310.50 L 308.50 311.00 L 308.50 312.00 L 308.50 313.00 L 308.00 313.50 L 307.00 313.50 L 306.00 313.50 L 305.00 313.50 L 304.00 313.50 L 303.50 314.00 L 303.50 315.00 L 304.00 315.50 L 305.00 315.50 L 306.00 315.50 L 307.00 315.50 L 308.00 315.50 L 309.00 315.50 L 309.50 316.00 L 309.50 317.00 L 309.50 318.00 L 309.00 318.50 Z M 322.00 318.50 L 321.00 318.50 L 320.00 318.50 L 319.50 318.00 L 319.50 317.00 L 319.00 316.50 L 318.50 316.00 L 318.00 315.50 L 317.50 315.00 L 317.50 314.00 L 317.00 313.50 L 316.50 313.00 L 316.00 312.50 L 315.50 313.00 L 315.50 314.00 L 315.50 315.00 L 315.50 316.00 L 315.50 317.00 L 315.50 318.00 L 315.00 318.50 L 314.00 318.50 L 313.00 318.50 L 312.50 318.00 L 312.50 317.00 L 312.50 316.00 L 312.50 315.00 L 312.50 314.00 L 312.50 313.00 L 312.50 312.00 L 312.50 311.00 L 312.50 310.00 L 312.50 309.00 L 312.50 308.00 L 312.50 307.00 L 312.50 306.00 L 313.00 305.50 L 314.00 305.50 L 314.50 306.00 L 315.00 306.50 L 315.50 307.00 L 316.00 307.50 L 316.50 308.00 L 316.50 309.00 L 317.00 309.50 L 317.50 310.00 L 318.00 310.50 L 318.50 311.00 L 318.50 312.00 L 319.00 312.50 L 319.50 312.00 L 319.50 311.00 L 319.50 310.00 L 319.50 309.00 L 319.50 308.00 L 319.50 307.00 L 319.50 306.00 L 320.00 305.50 L 321.00 305.50 L 322.00 305.50 L 322.50 306.00 L 322.50 307.00 L 322.50 308.00 L 322.50 309.00 L 322.50 310.00 L 322.50 311.00 L 322.50 312.00 L 322.50 313.00 L 322.50 314.00 L 322.50 315.00 L 322.50 316.00 L 322.50 317.00 L 322.50 318.00 L 322.00 318.50 Z M 334.00 318.50 L 333.00 318.50 L 332.00 318.50 L 331.00 318.50 L 330.00 318.50 L 329.00 318.50 L 328.50 318.00 L 328.00 317.50 L 327.50 317.00 L 327.00 316.50 L 326.50 316.00 L 326.00 315.50 L 325.50 315.00 L 325.50 314.00 L 325.50 313.00 L 325.50 312.00 L 325.50 311.00 L 325.50 310.00 L 326.00 309.50 L 326.50 309.00 L 326.50 308.00 L 327.00 307.50 L 327.50 307.00 L 328.00 306.50 L 329.00 306.50 L 329.50 306.00 L 330.00 305.50 L 331.00 305.50 L 332.00 305.50 L 333.00 305.50 L 333.50 306.00 L 334.00 306.50 L 335.00 306.50 L 335.50 307.00 L 335.50 308.00 L 335.50 309.00 L 335.00 309.50 L 334.00 309.50 L 333.50 309.00 L 333.00 308.50 L 332.00 308.50 L 331.00 308.50 L 330.00 308.50 L 329.50 309.00 L 329.00 309.50 L 328.50 310.00 L 328.50 311.00 L 328.00 311.50 L 327.50 312.00 L 327.50 313.00 L 328.00 313.50 L 328.50 314.00 L 329.00 314.50 L 329.50 315.00 L 330.00 315.50 L 331.00 315.50 L 332.00 315.50 L 333.00 315.50 L 334.00 315.50 L 334.50 315.00 L 335.00 314.50 L 335.50 315.00 L 335.50 316.00 L 335.50 317.00 L 335.00 317.50 L 334.50 318.00 L 334.00 318.50 Z M 347.00 318.50 L 346.00 318.50 L 345.00 318.50 L 344.00 318.50 L 343.00 318.50 L 342.00 318.50 L 341.00 318.50 L 340.00 318.50 L 339.50 318.00 L 339.50 317.00 L 339.50 316.00 L 339.50 315.00 L 339.50 314.00 L 339.50 313.00 L 339.50 312.00 L 339.50 311.00 L 339.50 310.00 L 339.50 309.00 L 339.50 308.00 L 339.50 307.00 L 339.50 306.00 L 340.00 305.50 L 341.00 305.50 L 342.00 305.50 L 343.00 305.50 L 344.00 305.50 L 345.00 305.50 L 346.00 305.50 L 347.00 305.50 L 347.50 306.00 L 347.50 307.00 L 347.50 308.00 L 347.00 308.50 L 346.00 308.50 L 345.00 308.50 L 344.00 308.50 L 343.00 308.50 L 342.00 308.50 L 341.50 309.00 L 341.50 310.00 L 342.00 310.50 L 343.00 310.50 L 344.00 310.50 L 345.00 310.50 L 346.00 310.50 L 346.50 311.00 L 346.50 312.00 L 346.50 313.00 L 346.00 313.50 L 345.00 313.50 L 344.00 313.50 L 343.00 313.50 L 342.00 313.50 L 341.50 314.00 L 341.50 315.00 L 342.00 315.50 L 343.00 315.50 L 344.00 315.50 L 345.00 315.50 L 346.00 315.50 L 347.00 315.50 L 347.50 316.00 L 347.50 317.00 L 347.50 318.00 L 347.00 318.50 Z M 363.00 318.50 L 362.00 318.50 L 361.50 318.00 L 361.50 317.00 L 361.50 316.00 L 361.50 315.00 L 361.50 314.00 L 361.50 313.00 L 361.50 312.00 L 361.50 311.00 L 361.50 310.00 L 361.50 309.00 L 361.50 308.00 L 361.00 307.50 L 360.50 307.00 L 361.00 306.50 L 361.50 306.00 L 362.00 305.50 L 363.00 305.50 L 364.00 305.50 L 365.00 305.50 L 366.00 305.50 L 367.00 305.50 L 368.00 305.50 L 368.50 306.00 L 368.50 307.00 L 368.50 308.00 L 368.00 308.50 L 367.00 308.50 L 366.00 308.50 L 365.00 308.50 L 364.00 308.50 L 363.50 309.00 L 363.50 310.00 L 363.50 311.00 L 364.00 311.50 L 365.00 311.50 L 366.00 311.50 L 367.00 311.50 L 368.00 311.50 L 368.50 312.00 L 368.50 313.00 L 368.00 313.50 L 367.00 313.50 L 366.00 313.50 L 365.00 313.50 L 364.00 313.50 L 363.50 314.00 L 363.50 315.00 L 363.50 316.00 L 363.50 317.00 L 363.50 318.00 L 363.00 318.50 Z M 379.00 318.50 L 378.00 318.50 L 377.00 318.50 L 376.00 318.50 L 375.00 318.50 L 374.50 318.00 L 374.00 317.50 L 373.50 317.00 L 373.00 316.50 L 372.50 316.00 L 372.00 315.50 L 371.50 315.00 L 371.50 314.00 L 371.50 313.00 L 371.50 312.00 L 371.50 311.00 L 371.50 310.00 L 372.00 309.50 L 372.50 309.00 L 372.50 308.00 L 373.00 307.50 L 374.00 307.50 L 374.50 307.00 L 375.00 306.50 L 375.50 306.00 L 376.00 305.50 L 377.00 305.50 L 378.00 305.50 L 379.00 305.50 L 379.50 306.00 L 380.00 306.50 L 380.50 307.00 L 381.00 307.50 L 381.50 308.00 L 382.00 308.50 L 382.50 309.00 L 382.50 310.00 L 383.00 310.50 L 383.50 311.00 L 383.50 312.00 L 383.50 313.00 L 383.50 314.00 L 383.00 314.50 L 382.50 315.00 L 382.50 316.00 L 382.00 316.50 L 381.00 316.50 L 380.50 317.00 L 380.00 317.50 L 379.50 318.00 L 379.00 318.50 Z M 395.00 318.50 L 394.00 318.50 L 393.00 318.50 L 392.50 318.00 L 392.50 317.00 L 392.00 316.50 L 391.50 316.00 L 391.00 315.50 L 390.50 315.00 L 390.00 314.50 L 389.50 315.00 L 389.50 316.00 L 389.50 317.00 L 389.00 317.50 L 388.50 318.00 L 388.00 318.50 L 387.00 318.50 L 386.50 318.00 L 386.50 317.00 L 386.00 316.50 L 385.50 316.00 L 385.50 315.00 L 386.00 314.50 L 386.50 314.00 L 386.00 313.50 L 385.50 313.00 L 386.00 312.50 L 386.50 312.00 L 386.00 311.50 L 385.50 311.00 L 386.00 310.50 L 386.50 310.00 L 386.00 309.50 L 385.50 309.00 L 386.00 308.50 L 386.50 308.00 L 386.50 307.00 L 386.50 306.00 L 387.00 305.50 L 388.00 305.50 L 389.00 305.50 L 390.00 305.50 L 391.00 305.50 L 391.50 306.00 L 392.00 306.50 L 393.00 306.50 L 393.50 307.00 L 394.00 307.50 L 394.50 308.00 L 395.00 308.50 L 395.50 309.00 L 395.50 310.00 L 395.50 311.00 L 395.00 311.50 L 394.50 312.00 L 394.50 313.00 L 394.00 313.50 L 393.50 314.00 L 394.00 314.50 L 394.50 315.00 L 394.50 316.00 L 395.00 316.50 L 395.50 317.00 L 395.50 318.00 L 395.00 318.50 Z M 407.00 318.50 L 406.00 318.50 L 405.00 318.50 L 404.00 318.50 L 403.00 318.50 L 402.00 318.50 L 401.50 318.00 L 401.00 317.50 L 400.50 317.00 L 400.00 316.50 L 399.50 316.00 L 399.00 315.50 L 398.50 315.00 L 398.00 314.50 L 397.50 314.00 L 397.50 313.00 L 397.50 312.00 L 397.50 311.00 L 397.50 310.00 L 398.00 309.50 L 398.50 309.00 L 399.00 308.50 L 399.50 308.00 L 400.00 307.50 L 400.50 307.00 L 401.00 306.50 L 401.50 306.00 L 402.00 305.50 L 403.00 305.50 L 404.00 305.50 L 405.00 305.50 L 405.50 306.00 L 406.00 306.50 L 407.00 306.50 L 407.50 307.00 L 408.00 307.50 L 408.50 308.00 L 408.00 308.50 L 407.50 309.00 L 407.00 309.50 L 406.00 309.50 L 405.50 309.00 L 405.00 308.50 L 404.00 308.50 L 403.00 308.50 L 402.50 309.00 L 402.00 309.50 L 401.50 310.00 L 401.00 310.50 L 400.50 311.00 L 400.50 312.00 L 400.50 313.00 L 400.50 314.00 L 401.00 314.50 L 401.50 315.00 L 402.00 315.50 L 403.00 315.50 L 404.00 315.50 L 405.00 315.50 L 406.00 315.50 L 406.50 315.00 L 406.00 314.50 L 405.00 314.50 L 404.00 314.50 L 403.50 314.00 L 403.50 313.00 L 403.50 312.00 L 404.00 311.50 L 405.00 311.50 L 406.00 311.50 L 407.00 311.50 L 408.00 311.50 L 409.00 311.50 L 409.50 312.00 L 409.50 313.00 L 409.50 314.00 L 409.50 315.00 L 409.50 316.00 L 409.00 316.50 L 408.50 317.00 L 408.00 317.50 L 407.50 318.00 L 407.00 318.50 Z M 420.00 318.50 L 419.00 318.50 L 418.00 318.50 L 417.00 318.50 L 416.00 318.50 L 415.00 318.50 L 414.00 318.50 L 413.00 318.50 L 412.50 318.00 L 412.50 317.00 L 412.50 316.00 L 412.50 315.00 L 412.50 314.00 L 412.50 313.00 L 412.50 312.00 L 412.50 311.00 L 412.50 310.00 L 412.50 309.00 L 412.50 308.00 L 412.50 307.00 L 412.50 306.00 L 413.00 305.50 L 414.00 305.50 L 415.00 305.50 L 416.00 305.50 L 417.00 305.50 L 418.00 305.50 L 419.00 305.50 L 420.00 305.50 L 420.50 306.00 L 420.50 307.00 L 420.00 307.50 L 419.50 308.00 L 419.00 308.50 L 418.00 308.50 L 417.00 308.50 L 416.00 308.50 L 415.50 309.00 L 415.50 310.00 L 416.00 310.50 L 417.00 310.50 L 418.00 310.50 L 419.00 310.50 L 419.50 311.00 L 419.50 312.00 L 419.50 313.00 L 419.00 313.50 L 418.00 313.50 L 417.00 313.50 L 416.00 313.50 L 415.50 314.00 L 415.50 315.00 L 416.00 315.50 L 417.00 315.50 L 418.00 315.50 L 419.00 315.50 L 420.00 315.50 L 420.50 316.00 L 420.50 317.00 L 420.50 318.00 L 420.00 318.50 Z M 429.00 318.50 L 428.00 318.50 L 427.00 318.50 L 426.00 318.50 L 425.00 318.50 L 424.50 318.00 L 424.00 317.50 L 423.50 317.00 L 423.50 316.00 L 423.50 315.00 L 423.50 314.00 L 423.50 313.00 L 423.50 312.00 L 423.50 311.00 L 423.50 310.00 L 423.50 309.00 L 423.50 308.00 L 423.50 307.00 L 424.00 306.50 L 424.50 306.00 L 425.00 305.50 L 426.00 305.50 L 427.00 305.50 L 428.00 305.50 L 429.00 305.50 L 429.50 306.00 L 430.00 306.50 L 430.50 307.00 L 431.00 307.50 L 432.00 307.50 L 432.50 308.00 L 433.00 308.50 L 433.50 309.00 L 433.50 310.00 L 433.50 311.00 L 433.50 312.00 L 433.50 313.00 L 433.50 314.00 L 433.50 315.00 L 433.00 315.50 L 432.50 316.00 L 432.00 316.50 L 431.50 317.00 L 431.00 317.50 L 430.00 317.50 L 429.50 318.00 L 429.00 318.50 Z M 379.50 315.00 L 380.00 314.50 L 380.50 314.00 L 380.50 313.00 L 380.50 312.00 L 380.50 311.00 L 380.50 310.00 L 380.00 309.50 L 379.50 309.00 L 379.00 308.50 L 378.00 308.50 L 377.00 308.50 L 376.00 308.50 L 375.50 309.00 L 375.00 309.50 L 374.50 310.00 L 374.50 311.00 L 374.50 312.00 L 374.50 313.00 L 374.50 314.00 L 374.50 315.00 L 375.00 315.50 L 376.00 315.50 L 377.00 315.50 L 378.00 315.50 L 379.00 315.50 L 379.50 315.00 Z M 429.50 315.00 L 430.00 314.50 L 430.50 314.00 L 430.50 313.00 L 430.50 312.00 L 430.50 311.00 L 430.50 310.00 L 430.00 309.50 L 429.50 309.00 L 429.00 308.50 L 428.00 308.50 L 427.00 308.50 L 426.50 309.00 L 426.50 310.00 L 426.50 311.00 L 426.50 312.00 L 426.50 313.00 L 426.50 314.00 L 426.50 315.00 L 427.00 315.50 L 428.00 315.50 L 429.00 315.50 L 429.50 315.00 Z" style="fill:#dedcd0;"/>
<path d="M 122.00 318.50 L 120.00 318.50 L 119.00 317.50 L 117.50 317.00 L 116.00 316.50 L 115.00 315.50 L 114.00 314.50 L 112.50 314.00 L 111.50 313.00 L 110.00 312.50 L 109.00 311.50 L 107.50 311.00 L 106.00 310.50 L 105.00 309.50 L 104.00 308.50 L 102.50 308.00 L 101.00 307.50 L 100.00 306.50 L 98.50 306.00 L 97.50 305.00 L 96.00 304.50 L 95.00 303.50 L 93.50 303.00 L 92.50 302.00 L 91.00 301.50 L 90.00 300.50 L 88.50 300.00 L 87.50 299.00 L 86.00 298.50 L 85.00 297.50 L 83.50 297.00 L 82.00 296.50 L 81.00 295.50 L 80.00 294.50 L 78.50 294.00 L 77.00 293.50 L 76.00 292.50 L 74.50 292.00 L 73.50 291.00 L 72.00 290.50 L 71.00 289.50 L 70.00 288.50 L 68.00 288.50 L 67.00 287.50 L 66.00 286.50 L 64.50 286.00 L 63.50 285.00 L 62.00 284.50 L 61.00 283.50 L 59.50 283.00 L 58.50 282.00 L 57.00 281.50 L 56.00 280.50 L 55.00 279.50 L 54.50 278.00 L 54.50 276.00 L 54.00 274.50 L 53.50 273.00 L 53.50 271.00 L 54.00 269.50 L 54.50 268.00 L 54.50 266.00 L 54.50 264.00 L 54.50 262.00 L 54.50 260.00 L 54.50 258.00 L 54.50 256.00 L 54.50 254.00 L 54.50 252.00 L 54.50 250.00 L 54.50 248.00 L 54.50 246.00 L 54.50 244.00 L 54.50 242.00 L 54.50 240.00 L 54.50 238.00 L 54.50 236.00 L 54.50 234.00 L 54.50 232.00 L 54.50 230.00 L 54.50 228.00 L 54.50 226.00 L 54.50 224.00 L 54.50 222.00 L 54.50 220.00 L 54.50 218.00 L 54.50 216.00 L 54.50 214.00 L 54.50 212.00 L 54.50 210.00 L 54.50 208.00 L 55.00 206.50 L 55.50 205.00 L 57.00 204.50 L 58.00 203.50 L 59.00 202.50 L 61.00 202.50 L 62.00 201.50 L 63.00 200.50 L 64.50 200.00 L 65.50 199.00 L 67.00 198.50 L 68.00 197.50 L 69.00 196.50 L 71.00 196.50 L 72.00 195.50 L 73.00 194.50 L 74.50 194.00 L 75.50 193.00 L 77.00 192.50 L 78.50 192.00 L 79.50 191.00 L 81.00 190.50 L 82.00 189.50 L 83.00 188.50 L 84.50 188.00 L 86.00 187.50 L 87.00 186.50 L 88.50 186.00 L 89.50 185.00 L 91.00 184.50 L 92.00 183.50 L 93.50 183.00 L 94.50 182.00 L 96.00 181.50 L 97.00 180.50 L 98.50 180.00 L 100.00 179.50 L 101.00 178.50 L 102.50 178.00 L 103.50 177.00 L 105.00 176.50 L 106.00 175.50 L 107.00 174.50 L 108.50 174.00 L 110.00 173.50 L 111.00 172.50 L 112.50 172.00 L 113.50 171.00 L 115.00 170.50 L 116.00 169.50 L 117.50 169.00 L 119.00 168.50 L 120.00 167.50 L 122.00 167.50 L 123.50 168.00 L 125.00 168.50 L 126.00 169.50 L 127.50 170.00 L 129.00 170.50 L 130.00 171.50 L 131.00 172.50 L 132.50 173.00 L 134.00 173.50 L 135.00 174.50 L 136.00 175.50 L 137.50 176.00 L 139.00 176.50 L 140.00 177.50 L 141.00 178.50 L 143.00 178.50 L 144.00 179.50 L 145.00 180.50 L 146.50 181.00 L 147.50 182.00 L 149.00 182.50 L 150.00 183.50 L 151.50 184.00 L 153.00 184.50 L 154.00 185.50 L 155.00 186.50 L 156.50 187.00 L 157.50 188.00 L 159.00 188.50 L 160.50 189.00 L 161.50 190.00 L 163.00 190.50 L 164.00 191.50 L 165.00 192.50 L 167.00 192.50 L 168.00 193.50 L 169.00 194.50 L 170.50 195.00 L 171.50 196.00 L 173.00 196.50 L 174.00 197.50 L 175.00 198.50 L 176.50 199.00 L 178.00 199.50 L 179.00 200.50 L 180.50 201.00 L 181.50 202.00 L 183.00 202.50 L 184.00 203.50 L 185.00 204.50 L 186.50 205.00 L 187.50 206.00 L 188.50 207.00 L 188.50 209.00 L 188.50 211.00 L 188.50 213.00 L 188.50 215.00 L 188.50 217.00 L 188.50 219.00 L 188.50 221.00 L 188.50 223.00 L 188.50 225.00 L 188.50 227.00 L 188.50 229.00 L 188.50 231.00 L 188.50 233.00 L 188.50 235.00 L 188.50 237.00 L 188.50 239.00 L 188.50 241.00 L 188.50 243.00 L 188.50 245.00 L 188.50 247.00 L 188.50 249.00 L 188.50 251.00 L 188.50 253.00 L 188.50 255.00 L 188.50 257.00 L 188.50 259.00 L 189.50 260.00 L 188.50 261.00 L 189.50 262.00 L 188.50 263.00 L 189.50 264.00 L 189.00 265.50 L 189.00 266.50 L 189.50 268.00 L 189.00 269.50 L 189.00 270.50 L 189.50 272.00 L 188.50 273.00 L 188.50 275.00 L 188.50 277.00 L 188.50 279.00 L 187.50 280.00 L 186.50 281.00 L 185.50 282.00 L 184.00 282.50 L 182.50 283.00 L 181.50 284.00 L 180.00 284.50 L 179.00 285.50 L 178.00 286.50 L 176.50 287.00 L 175.00 287.50 L 174.00 288.50 L 172.50 289.00 L 171.50 290.00 L 170.00 290.50 L 169.00 291.50 L 167.50 292.00 L 166.00 292.50 L 165.00 293.50 L 164.00 294.50 L 162.50 295.00 L 161.50 296.00 L 160.00 296.50 L 159.00 297.50 L 157.50 298.00 L 156.00 298.50 L 155.00 299.50 L 154.00 300.50 L 152.50 301.00 L 151.00 301.50 L 150.00 302.50 L 148.50 303.00 L 147.50 304.00 L 146.00 304.50 L 144.50 305.00 L 144.00 306.50 L 142.50 307.00 L 141.00 307.50 L 140.00 308.50 L 138.50 309.00 L 137.50 310.00 L 136.00 310.50 L 135.00 311.50 L 133.50 312.00 L 132.00 312.50 L 131.00 313.50 L 130.00 314.50 L 128.50 315.00 L 127.50 316.00 L 126.00 316.50 L 124.50 317.00 L 123.00 317.50 L 122.00 318.50 Z M 123.50 309.00 L 125.00 308.50 L 126.00 307.50 L 127.00 306.50 L 128.50 306.00 L 130.00 305.50 L 131.00 304.50 L 132.50 304.00 L 133.50 303.00 L 135.00 302.50 L 136.00 301.50 L 137.50 301.00 L 138.50 300.00 L 140.00 299.50 L 141.00 298.50 L 142.50 298.00 L 144.00 297.50 L 145.00 296.50 L 146.00 295.50 L 147.50 295.00 L 149.00 294.50 L 150.00 293.50 L 151.00 292.50 L 152.50 292.00 L 154.00 291.50 L 155.00 290.50 L 156.50 290.00 L 157.50 289.00 L 159.00 288.50 L 160.00 287.50 L 161.00 286.50 L 162.50 286.00 L 164.00 285.50 L 165.00 284.50 L 166.00 283.50 L 167.50 283.00 L 169.00 282.50 L 170.00 281.50 L 171.50 281.00 L 173.00 280.50 L 174.00 279.50 L 175.00 278.50 L 176.50 278.00 L 178.00 277.50 L 179.00 276.50 L 180.50 276.00 L 180.50 274.00 L 180.50 272.00 L 180.50 270.00 L 180.50 268.00 L 180.50 266.00 L 180.50 264.00 L 180.50 262.00 L 180.50 260.00 L 180.50 258.00 L 180.50 256.00 L 180.50 254.00 L 180.50 252.00 L 180.50 250.00 L 180.50 248.00 L 180.50 246.00 L 180.50 244.00 L 180.50 242.00 L 180.50 240.00 L 180.50 238.00 L 180.50 236.00 L 180.50 234.00 L 180.50 232.00 L 180.50 230.00 L 180.50 228.00 L 180.50 226.00 L 180.50 224.00 L 180.50 222.00 L 180.50 220.00 L 180.50 218.00 L 180.50 216.00 L 180.50 214.00 L 180.50 212.00 L 180.50 210.00 L 180.00 208.50 L 178.00 208.50 L 177.00 207.50 L 176.00 206.50 L 174.00 206.50 L 173.00 205.50 L 172.00 204.50 L 170.50 204.00 L 169.00 203.50 L 168.00 202.50 L 166.50 202.00 L 165.50 201.00 L 164.00 200.50 L 163.00 199.50 L 161.50 199.00 L 160.00 198.50 L 159.00 197.50 L 158.00 196.50 L 156.50 196.00 L 155.50 195.00 L 154.00 194.50 L 152.50 194.00 L 151.50 193.00 L 150.00 192.50 L 149.00 191.50 L 148.00 190.50 L 146.50 190.00 L 145.00 189.50 L 144.00 188.50 L 142.50 188.00 L 141.50 187.00 L 140.00 186.50 L 139.00 185.50 L 138.00 184.50 L 136.50 184.00 L 135.50 183.00 L 134.00 182.50 L 132.50 182.00 L 131.50 181.00 L 130.00 180.50 L 129.00 179.50 L 127.50 179.00 L 126.00 178.50 L 125.00 177.50 L 124.00 176.50 L 122.00 176.50 L 120.00 176.50 L 118.50 177.00 L 117.50 178.00 L 116.00 178.50 L 115.00 179.50 L 113.50 180.00 L 112.50 181.00 L 111.00 181.50 L 110.00 182.50 L 108.50 183.00 L 107.50 184.00 L 106.00 184.50 L 104.50 185.00 L 103.50 186.00 L 102.00 186.50 L 100.50 187.00 L 99.50 188.00 L 98.50 189.00 L 97.00 189.50 L 96.00 190.50 L 94.50 191.00 L 93.50 192.00 L 92.00 192.50 L 90.50 193.00 L 89.50 194.00 L 88.00 194.50 L 87.00 195.50 L 86.00 196.50 L 84.50 197.00 L 83.00 197.50 L 82.00 198.50 L 80.50 199.00 L 79.50 200.00 L 78.00 200.50 L 77.00 201.50 L 76.00 202.50 L 74.00 202.50 L 73.00 203.50 L 72.00 204.50 L 70.50 205.00 L 69.00 205.50 L 68.00 206.50 L 66.50 207.00 L 65.50 208.00 L 64.00 208.50 L 62.50 209.00 L 62.50 211.00 L 62.50 213.00 L 62.50 215.00 L 62.50 217.00 L 62.50 219.00 L 62.50 221.00 L 62.50 223.00 L 62.50 225.00 L 62.50 227.00 L 62.50 229.00 L 62.50 231.00 L 62.50 233.00 L 62.50 235.00 L 62.50 237.00 L 62.50 239.00 L 62.50 241.00 L 62.50 243.00 L 62.50 245.00 L 62.50 247.00 L 62.50 249.00 L 62.50 251.00 L 62.50 253.00 L 62.50 255.00 L 62.50 257.00 L 62.50 259.00 L 62.50 261.00 L 62.50 263.00 L 62.50 265.00 L 62.50 267.00 L 62.50 269.00 L 62.50 271.00 L 62.50 273.00 L 62.50 275.00 L 63.00 276.50 L 64.50 277.00 L 66.00 277.50 L 67.00 278.50 L 68.50 279.00 L 69.50 280.00 L 71.00 280.50 L 72.50 281.00 L 73.50 282.00 L 75.00 282.50 L 76.00 283.50 L 77.50 284.00 L 78.50 285.00 L 80.00 285.50 L 81.00 286.50 L 82.50 287.00 L 83.50 288.00 L 85.00 288.50 L 86.00 289.50 L 87.50 290.00 L 89.00 290.50 L 90.00 291.50 L 91.00 292.50 L 92.50 293.00 L 93.50 294.00 L 95.00 294.50 L 96.00 295.50 L 97.00 296.50 L 99.00 296.50 L 100.00 297.50 L 101.00 298.50 L 102.50 299.00 L 103.50 300.00 L 105.00 300.50 L 106.00 301.50 L 107.50 302.00 L 109.00 302.50 L 110.00 303.50 L 111.00 304.50 L 112.50 305.00 L 114.00 305.50 L 115.00 306.50 L 116.50 307.00 L 117.50 308.00 L 119.00 308.50 L 120.00 309.50 L 122.00 309.50 L 123.50 309.00 Z M 122.00 302.50 L 119.00 301.50 L 116.50 300.00 L 114.00 298.50 L 112.00 296.50 L 109.00 295.50 L 106.50 294.00 L 104.00 292.50 L 101.50 291.00 L 99.00 289.50 L 96.50 288.00 L 94.00 286.50 L 91.50 285.00 L 89.00 283.50 L 86.00 282.50 L 84.00 280.50 L 81.50 279.00 L 79.00 277.50 L 76.50 276.00 L 74.00 274.50 L 71.00 273.50 L 69.00 271.50 L 67.50 269.00 L 67.50 265.00 L 67.50 261.00 L 67.50 257.00 L 67.50 253.00 L 67.50 249.00 L 67.50 245.00 L 67.50 241.00 L 67.50 237.00 L 67.50 233.00 L 67.50 229.00 L 67.50 225.00 L 67.50 221.00 L 68.00 217.50 L 68.50 214.00 L 71.00 212.50 L 73.50 211.00 L 76.00 209.50 L 78.50 208.00 L 81.00 206.50 L 83.50 205.00 L 86.00 203.50 L 88.50 202.00 L 91.00 200.50 L 93.50 199.00 L 96.00 197.50 L 99.00 196.50 L 101.00 194.50 L 104.00 193.50 L 106.50 192.00 L 109.00 190.50 L 111.50 189.00 L 114.00 187.50 L 116.50 186.00 L 119.00 184.50 L 122.00 183.50 L 124.50 185.00 L 127.00 186.50 L 129.50 188.00 L 132.00 189.50 L 135.00 190.50 L 137.00 192.50 L 140.00 193.50 L 142.50 195.00 L 145.00 196.50 L 147.00 198.50 L 150.00 199.50 L 152.50 201.00 L 155.00 202.50 L 157.50 204.00 L 160.00 205.50 L 162.50 207.00 L 163.00 209.50 L 160.00 208.50 L 156.00 208.50 L 152.00 208.50 L 148.00 208.50 L 146.00 206.50 L 143.50 205.00 L 140.50 204.00 L 138.00 202.50 L 136.00 200.50 L 133.00 199.50 L 130.50 198.00 L 128.00 196.50 L 125.50 195.00 L 123.00 193.50 L 119.50 194.00 L 117.00 195.50 L 114.00 196.50 L 112.00 198.50 L 109.50 200.00 L 106.50 201.00 L 104.00 202.50 L 101.50 204.00 L 99.00 205.50 L 96.50 207.00 L 94.00 208.50 L 91.50 210.00 L 89.00 211.50 L 86.50 213.00 L 84.00 214.50 L 81.50 216.00 L 78.50 217.00 L 77.00 219.50 L 76.50 223.00 L 76.50 227.00 L 76.50 231.00 L 76.50 235.00 L 76.50 239.00 L 76.50 243.00 L 76.50 247.00 L 76.50 251.00 L 76.50 255.00 L 76.50 259.00 L 76.50 263.00 L 77.00 266.50 L 79.00 268.50 L 82.00 269.50 L 84.00 271.50 L 87.00 272.50 L 89.00 274.50 L 91.50 276.00 L 94.00 277.50 L 97.00 278.50 L 99.00 280.50 L 102.00 281.50 L 104.50 283.00 L 107.00 284.50 L 109.50 286.00 L 112.00 287.50 L 114.50 289.00 L 117.00 290.50 L 119.00 292.50 L 123.00 292.50 L 125.00 290.50 L 128.00 289.50 L 130.50 288.00 L 133.00 286.50 L 135.50 285.00 L 138.00 283.50 L 140.50 282.00 L 143.00 280.50 L 145.50 279.00 L 148.00 277.50 L 151.00 276.50 L 153.00 274.50 L 156.00 273.50 L 158.50 272.00 L 161.00 270.50 L 163.50 269.00 L 165.50 267.00 L 166.50 264.00 L 166.50 260.00 L 166.50 256.00 L 166.50 252.00 L 166.50 248.00 L 166.50 244.00 L 166.50 240.00 L 166.50 236.00 L 166.50 232.00 L 164.00 230.50 L 162.00 232.50 L 159.50 234.00 L 157.00 235.50 L 154.50 237.00 L 152.00 238.50 L 148.00 238.50 L 144.00 238.50 L 140.00 238.50 L 136.00 238.50 L 132.00 238.50 L 128.50 239.00 L 126.50 241.00 L 127.00 244.50 L 130.00 245.50 L 134.00 245.50 L 137.50 246.00 L 141.00 246.50 L 144.00 247.50 L 144.50 251.00 L 144.50 255.00 L 144.00 258.50 L 142.00 260.50 L 139.00 261.50 L 135.00 261.50 L 134.00 263.50 L 136.00 265.50 L 138.50 267.00 L 141.00 268.50 L 143.00 270.50 L 144.50 273.00 L 143.00 275.50 L 140.00 276.50 L 136.00 276.50 L 132.00 276.50 L 128.00 276.50 L 124.00 276.50 L 120.00 276.50 L 116.00 276.50 L 112.00 276.50 L 108.00 276.50 L 104.00 276.50 L 101.00 275.50 L 98.50 274.00 L 96.00 272.50 L 94.00 270.50 L 92.50 268.00 L 94.50 266.00 L 96.00 263.50 L 98.50 262.00 L 100.50 260.00 L 103.00 258.50 L 104.50 256.00 L 106.50 254.00 L 106.50 250.00 L 104.00 248.50 L 101.00 247.50 L 98.50 246.00 L 96.00 244.50 L 93.50 243.00 L 91.00 241.50 L 89.50 239.00 L 87.50 237.00 L 86.00 234.50 L 84.50 232.00 L 83.50 229.00 L 82.50 226.00 L 83.00 222.50 L 86.00 221.50 L 90.00 221.50 L 94.00 221.50 L 97.50 222.00 L 101.00 222.50 L 105.00 222.50 L 105.50 219.00 L 105.50 215.00 L 107.50 213.00 L 111.00 212.50 L 115.00 212.50 L 119.00 212.50 L 123.00 212.50 L 127.00 212.50 L 131.00 212.50 L 135.00 212.50 L 139.00 212.50 L 143.00 212.50 L 147.00 212.50 L 151.00 212.50 L 155.00 212.50 L 159.00 212.50 L 163.00 212.50 L 167.00 212.50 L 171.00 212.50 L 173.50 214.00 L 175.00 216.50 L 175.50 220.00 L 175.50 224.00 L 175.50 228.00 L 175.50 232.00 L 175.50 236.00 L 175.50 240.00 L 175.50 244.00 L 175.50 248.00 L 175.50 252.00 L 175.50 256.00 L 175.50 260.00 L 175.50 264.00 L 175.50 268.00 L 174.50 271.00 L 172.50 273.00 L 170.00 274.50 L 167.50 276.00 L 165.00 277.50 L 162.00 278.50 L 160.00 280.50 L 157.50 282.00 L 154.50 283.00 L 152.00 284.50 L 149.50 286.00 L 147.00 287.50 L 144.50 289.00 L 142.00 290.50 L 140.00 292.50 L 137.00 293.50 L 134.50 295.00 L 132.00 296.50 L 129.50 298.00 L 127.00 299.50 L 124.50 301.00 L 122.00 302.50 Z" style="fill:#b74611;"/>
<path d="M 244.00 203.50 L 243.00 203.50 L 242.00 203.50 L 241.00 203.50 L 240.00 203.50 L 239.00 203.50 L 238.00 203.50 L 237.00 203.50 L 236.00 203.50 L 235.00 203.50 L 234.00 203.50 L 233.00 203.50 L 232.00 203.50 L 231.00 203.50 L 230.00 203.50 L 229.00 203.50 L 228.00 203.50 L 227.00 203.50 L 226.50 203.00 L 227.00 202.50 L 228.00 202.50 L 229.00 202.50 L 230.00 202.50 L 231.00 202.50 L 232.00 202.50 L 233.00 202.50 L 234.00 202.50 L 235.00 202.50 L 236.00 202.50 L 237.00 202.50 L 238.00 202.50 L 239.00 202.50 L 240.00 202.50 L 241.00 202.50 L 242.00 202.50 L 243.00 202.50 L 243.50 202.00 L 243.50 201.00 L 243.50 200.00 L 243.50 199.00 L 243.50 198.00 L 243.50 197.00 L 243.50 196.00 L 244.00 195.50 L 244.50 196.00 L 244.50 197.00 L 244.50 198.00 L 244.50 199.00 L 244.50 200.00 L 244.50 201.00 L 244.50 202.00 L 244.50 203.00 L 244.00 203.50 Z M 328.00 234.50 L 327.50 234.00 L 327.50 233.00 L 327.50 232.00 L 327.50 231.00 L 327.50 230.00 L 327.50 229.00 L 327.50 228.00 L 327.50 227.00 L 327.50 226.00 L 327.50 225.00 L 327.50 224.00 L 327.50 223.00 L 327.50 222.00 L 327.50 221.00 L 327.50 220.00 L 327.50 219.00 L 327.50 218.00 L 327.50 217.00 L 327.50 216.00 L 327.50 215.00 L 327.50 214.00 L 327.50 213.00 L 327.50 212.00 L 327.50 211.00 L 327.50 210.00 L 327.50 209.00 L 327.50 208.00 L 327.50 207.00 L 327.50 206.00 L 327.50 205.00 L 327.50 204.00 L 327.50 203.00 L 327.50 202.00 L 327.50 201.00 L 327.50 200.00 L 327.50 199.00 L 327.50 198.00 L 327.50 197.00 L 327.50 196.00 L 328.00 195.50 L 328.50 196.00 L 328.50 197.00 L 328.50 198.00 L 328.50 199.00 L 328.50 200.00 L 328.50 201.00 L 328.50 202.00 L 328.50 203.00 L 328.50 204.00 L 328.50 205.00 L 328.50 206.00 L 328.50 207.00 L 328.50 208.00 L 328.50 209.00 L 328.50 210.00 L 328.50 211.00 L 328.50 212.00 L 328.50 213.00 L 328.50 214.00 L 328.50 215.00 L 328.50 216.00 L 328.50 217.00 L 328.50 218.00 L 328.50 219.00 L 328.50 220.00 L 328.50 221.00 L 328.50 222.00 L 328.50 223.00 L 328.50 224.00 L 328.50 225.00 L 328.50 226.00 L 328.50 227.00 L 328.50 228.00 L 328.50 229.00 L 328.50 230.00 L 328.50 231.00 L 328.50 232.00 L 328.50 233.00 L 328.50 234.00 L 328.00 234.50 Z M 368.00 222.50 L 367.50 222.00 L 367.50 221.00 L 367.50 220.00 L 367.50 219.00 L 367.50 218.00 L 367.50 217.00 L 367.50 216.00 L 367.50 215.00 L 367.50 214.00 L 367.50 213.00 L 367.50 212.00 L 367.50 211.00 L 367.50 210.00 L 367.50 209.00 L 367.50 208.00 L 367.50 207.00 L 367.50 206.00 L 367.50 205.00 L 367.50 204.00 L 367.50 203.00 L 367.50 202.00 L 367.50 201.00 L 367.50 200.00 L 367.50 199.00 L 367.50 198.00 L 367.50 197.00 L 367.50 196.00 L 368.00 195.50 L 368.50 196.00 L 368.50 197.00 L 368.50 198.00 L 368.50 199.00 L 368.50 200.00 L 368.50 201.00 L 368.50 202.00 L 368.50 203.00 L 368.50 204.00 L 368.50 205.00 L 368.50 206.00 L 368.50 207.00 L 368.50 208.00 L 368.50 209.00 L 368.50 210.00 L 368.50 211.00 L 368.50 212.00 L 368.50 213.00 L 368.50 214.00 L 368.50 215.00 L 368.50 216.00 L 368.50 217.00 L 368.50 218.00 L 368.50 219.00 L 368.50 220.00 L 368.50 221.00 L 368.50 222.00 L 368.00 222.50 Z M 377.00 220.50 L 376.50 220.00 L 376.50 219.00 L 376.50 218.00 L 376.50 217.00 L 376.50 216.00 L 376.50 215.00 L 376.50 214.00 L 376.50 213.00 L 376.50 212.00 L 376.50 211.00 L 376.50 210.00 L 376.50 209.00 L 376.50 208.00 L 376.50 207.00 L 376.50 206.00 L 376.50 205.00 L 376.50 204.00 L 376.50 203.00 L 376.50 202.00 L 376.50 201.00 L 376.50 200.00 L 376.50 199.00 L 376.50 198.00 L 376.50 197.00 L 376.50 196.00 L 377.00 195.50 L 377.50 196.00 L 377.50 197.00 L 377.50 198.00 L 377.50 199.00 L 377.50 200.00 L 377.50 201.00 L 377.50 202.00 L 377.50 203.00 L 377.50 204.00 L 377.50 205.00 L 377.50 206.00 L 377.50 207.00 L 377.50 208.00 L 377.50 209.00 L 377.50 210.00 L 377.50 211.00 L 377.50 212.00 L 377.50 213.00 L 377.50 214.00 L 377.50 215.00 L 377.50 216.00 L 377.50 217.00 L 377.50 218.00 L 377.50 219.00 L 377.50 220.00 L 377.00 220.50 Z M 393.00 218.50 L 392.50 218.00 L 392.50 217.00 L 392.50 216.00 L 392.50 215.00 L 392.50 214.00 L 392.50 213.00 L 392.50 212.00 L 392.50 211.00 L 392.50 210.00 L 392.50 209.00 L 392.50 208.00 L 392.50 207.00 L 392.50 206.00 L 392.50 205.00 L 392.50 204.00 L 392.50 203.00 L 392.50 202.00 L 392.50 201.00 L 392.50 200.00 L 392.50 199.00 L 392.50 198.00 L 392.50 197.00 L 392.50 196.00 L 393.00 195.50 L 393.50 196.00 L 393.50 197.00 L 393.50 198.00 L 393.50 199.00 L 393.50 200.00 L 393.50 201.00 L 393.50 202.00 L 393.50 203.00 L 393.50 204.00 L 393.50 205.00 L 393.50 206.00 L 393.50 207.00 L 393.50 208.00 L 393.50 209.00 L 393.50 210.00 L 393.50 211.00 L 393.50 212.00 L 393.50 213.00 L 393.50 214.00 L 393.50 215.00 L 393.50 216.00 L 393.50 217.00 L 393.50 218.00 L 393.00 218.50 Z M 279.00 203.50 L 278.00 203.50 L 277.00 203.50 L 276.00 203.50 L 275.00 203.50 L 274.00 203.50 L 273.00 203.50 L 272.00 203.50 L 271.00 203.50 L 270.00 203.50 L 269.00 203.50 L 268.00 203.50 L 267.00 203.50 L 266.00 203.50 L 265.00 203.50 L 264.00 203.50 L 263.00 203.50 L 262.00 203.50 L 261.50 203.00 L 262.00 202.50 L 263.00 202.50 L 264.00 202.50 L 265.00 202.50 L 266.00 202.50 L 267.00 202.50 L 268.00 202.50 L 269.00 202.50 L 270.00 202.50 L 271.00 202.50 L 272.00 202.50 L 273.00 202.50 L 274.00 202.50 L 275.00 202.50 L 276.00 202.50 L 277.00 202.50 L 278.00 202.50 L 278.50 202.00 L 279.00 201.50 L 279.50 202.00 L 279.50 203.00 L 279.00 203.50 Z M 189.00 259.50 L 188.50 259.00 L 188.50 258.00 L 188.50 257.00 L 188.50 256.00 L 188.50 255.00 L 188.50 254.00 L 188.50 253.00 L 188.50 252.00 L 188.50 251.00 L 188.50 250.00 L 188.50 249.00 L 188.50 248.00 L 188.50 247.00 L 188.50 246.00 L 188.50 245.00 L 188.50 244.00 L 188.50 243.00 L 188.50 242.00 L 188.50 241.00 L 188.50 240.00 L 188.50 239.00 L 188.50 238.00 L 188.50 237.00 L 188.50 236.00 L 188.50 235.00 L 188.50 234.00 L 188.50 233.00 L 188.50 232.00 L 188.50 231.00 L 188.50 230.00 L 188.50 229.00 L 188.50 228.00 L 188.50 227.00 L 188.50 226.00 L 188.50 225.00 L 188.50 224.00 L 188.50 223.00 L 188.50 222.00 L 188.50 221.00 L 188.50 220.00 L 188.50 219.00 L 188.50 218.00 L 188.50 217.00 L 188.50 216.00 L 188.50 215.00 L 188.50 214.00 L 188.50 213.00 L 188.50 212.00 L 188.50 211.00 L 188.50 210.00 L 188.50 209.00 L 188.50 208.00 L 188.50 207.00 L 189.00 206.50 L 189.50 207.00 L 189.50 208.00 L 189.50 209.00 L 189.50 210.00 L 189.50 211.00 L 189.50 212.00 L 189.50 213.00 L 189.50 214.00 L 189.50 215.00 L 189.50 216.00 L 189.50 217.00 L 189.50 218.00 L 189.50 219.00 L 189.50 220.00 L 189.50 221.00 L 189.50 222.00 L 189.50 223.00 L 189.50 224.00 L 189.50 225.00 L 189.50 226.00 L 189.50 227.00 L 189.50 228.00 L 189.50 229.00 L 189.50 230.00 L 189.50 231.00 L 189.50 232.00 L 189.50 233.00 L 189.50 234.00 L 189.50 235.00 L 189.50 236.00 L 189.50 237.00 L 189.50 238.00 L 189.50 239.00 L 189.50 240.00 L 189.50 241.00 L 189.50 242.00 L 189.50 243.00 L 189.50 244.00 L 189.50 245.00 L 189.50 246.00 L 189.50 247.00 L 189.50 248.00 L 189.50 249.00 L 189.50 250.00 L 189.50 251.00 L 189.50 252.00 L 189.50 253.00 L 189.50 254.00 L 189.50 255.00 L 189.50 256.00 L 189.50 257.00 L 189.50 258.00 L 189.50 259.00 L 189.00 259.50 Z M 54.00 269.50 L 53.50 269.00 L 53.50 268.00 L 53.50 267.00 L 53.50 266.00 L 53.50 265.00 L 53.50 264.00 L 53.50 263.00 L 53.50 262.00 L 53.50 261.00 L 53.50 260.00 L 53.50 259.00 L 53.50 258.00 L 53.50 257.00 L 53.50 256.00 L 53.50 255.00 L 53.50 254.00 L 53.50 253.00 L 53.50 252.00 L 53.50 251.00 L 53.50 250.00 L 53.50 249.00 L 53.50 248.00 L 53.50 247.00 L 53.50 246.00 L 53.50 245.00 L 53.50 244.00 L 53.50 243.00 L 53.50 242.00 L 53.50 241.00 L 53.50 240.00 L 53.50 239.00 L 53.50 238.00 L 53.50 237.00 L 53.50 236.00 L 53.50 235.00 L 53.50 234.00 L 53.50 233.00 L 53.50 232.00 L 53.50 231.00 L 53.50 230.00 L 53.50 229.00 L 53.50 228.00 L 53.50 227.00 L 53.50 226.00 L 53.50 225.00 L 53.50 224.00 L 53.50 223.00 L 53.50 222.00 L 53.50 221.00 L 53.50 220.00 L 53.50 219.00 L 53.50 218.00 L 53.50 217.00 L 53.50 216.00 L 53.50 215.00 L 53.50 214.00 L 53.50 213.00 L 53.50 212.00 L 53.50 211.00 L 53.50 210.00 L 53.50 209.00 L 53.50 208.00 L 54.00 207.50 L 54.50 208.00 L 54.50 209.00 L 54.50 210.00 L 54.50 211.00 L 54.50 212.00 L 54.50 213.00 L 54.50 214.00 L 54.50 215.00 L 54.50 216.00 L 54.50 217.00 L 54.50 218.00 L 54.50 219.00 L 54.50 220.00 L 54.50 221.00 L 54.50 222.00 L 54.50 223.00 L 54.50 224.00 L 54.50 225.00 L 54.50 226.00 L 54.50 227.00 L 54.50 228.00 L 54.50 229.00 L 54.50 230.00 L 54.50 231.00 L 54.50 232.00 L 54.50 233.00 L 54.50 234.00 L 54.50 235.00 L 54.50 236.00 L 54.50 237.00 L 54.50 238.00 L 54.50 239.00 L 54.50 240.00 L 54.50 241.00 L 54.50 242.00 L 54.50 243.00 L 54.50 244.00 L 54.50 245.00 L 54.50 246.00 L 54.50 247.00 L 54.50 248.00 L 54.50 249.00 L 54.50 250.00 L 54.50 251.00 L 54.50 252.00 L 54.50 253.00 L 54.50 254.00 L 54.50 255.00 L 54.50 256.00 L 54.50 257.00 L 54.50 258.00 L 54.50 259.00 L 54.50 260.00 L 54.50 261.00 L 54.50 262.00 L 54.50 263.00 L 54.50 264.00 L 54.50 265.00 L 54.50 266.00 L 54.50 267.00 L 54.50 268.00 L 54.50 269.00 L 54.00 269.50 Z M 444.00 234.50 L 443.50 234.00 L 443.50 233.00 L 443.50 232.00 L 443.50 231.00 L 443.50 230.00 L 443.50 229.00 L 443.50 228.00 L 443.50 227.00 L 443.50 226.00 L 443.50 225.00 L 443.50 224.00 L 443.50 223.00 L 443.50 222.00 L 443.50 221.00 L 443.50 220.00 L 443.50 219.00 L 443.50 218.00 L 443.50 217.00 L 443.50 216.00 L 443.50 215.00 L 443.50 214.00 L 443.00 213.50 L 442.50 213.00 L 443.00 212.50 L 443.50 212.00 L 444.00 211.50 L 444.50 212.00 L 444.50 213.00 L 444.50 214.00 L 444.50 215.00 L 444.50 216.00 L 444.50 217.00 L 444.50 218.00 L 444.50 219.00 L 444.50 220.00 L 444.50 221.00 L 444.50 222.00 L 444.50 223.00 L 444.50 224.00 L 444.50 225.00 L 444.50 226.00 L 444.50 227.00 L 444.50 228.00 L 444.50 229.00 L 444.50 230.00 L 444.50 231.00 L 444.50 232.00 L 444.50 233.00 L 444.50 234.00 L 444.00 234.50 Z M 421.00 235.50 L 420.00 235.50 L 419.00 235.50 L 418.00 235.50 L 417.00 235.50 L 416.00 235.50 L 415.00 235.50 L 414.00 235.50 L 413.00 235.50 L 412.50 235.00 L 413.00 234.50 L 414.00 234.50 L 415.00 234.50 L 416.00 234.50 L 417.00 234.50 L 418.00 234.50 L 419.00 234.50 L 420.00 234.50 L 420.50 234.00 L 420.50 233.00 L 420.50 232.00 L 420.50 231.00 L 420.50 230.00 L 420.50 229.00 L 420.50 228.00 L 420.50 227.00 L 420.50 226.00 L 420.50 225.00 L 420.50 224.00 L 421.00 223.50 L 421.50 224.00 L 421.50 225.00 L 421.50 226.00 L 421.50 227.00 L 421.50 228.00 L 421.50 229.00 L 421.50 230.00 L 421.50 231.00 L 421.50 232.00 L 421.50 233.00 L 421.50 234.00 L 421.50 235.00 L 421.00 235.50 Z M 279.00 235.50 L 278.00 235.50 L 277.00 235.50 L 276.00 235.50 L 275.00 235.50 L 274.00 235.50 L 273.00 235.50 L 272.00 235.50 L 271.00 235.50 L 270.00 235.50 L 269.00 235.50 L 268.00 235.50 L 267.00 235.50 L 266.00 235.50 L 265.00 235.50 L 264.00 235.50 L 263.00 235.50 L 262.00 235.50 L 261.00 235.50 L 260.00 235.50 L 259.00 235.50 L 258.00 235.50 L 257.00 235.50 L 256.00 235.50 L 255.00 235.50 L 254.00 235.50 L 253.00 235.50 L 252.50 235.00 L 253.00 234.50 L 254.00 234.50 L 255.00 234.50 L 256.00 234.50 L 257.00 234.50 L 258.00 234.50 L 259.00 234.50 L 260.00 234.50 L 261.00 234.50 L 262.00 234.50 L 263.00 234.50 L 264.00 234.50 L 265.00 234.50 L 266.00 234.50 L 267.00 234.50 L 268.00 234.50 L 269.00 234.50 L 270.00 234.50 L 271.00 234.50 L 272.00 234.50 L 273.00 234.50 L 274.00 234.50 L 275.00 234.50 L 276.00 234.50 L 277.00 234.50 L 278.00 234.50 L 278.50 234.00 L 278.50 233.00 L 278.50 232.00 L 278.50 231.00 L 278.50 230.00 L 278.50 229.00 L 278.50 228.00 L 278.00 227.50 L 277.00 227.50 L 276.00 227.50 L 275.00 227.50 L 274.00 227.50 L 273.00 227.50 L 272.00 227.50 L 271.00 227.50 L 270.00 227.50 L 269.00 227.50 L 268.00 227.50 L 267.00 227.50 L 266.00 227.50 L 265.00 227.50 L 264.00 227.50 L 263.00 227.50 L 262.00 227.50 L 261.50 227.00 L 262.00 226.50 L 263.00 226.50 L 264.00 226.50 L 265.00 226.50 L 266.00 226.50 L 267.00 226.50 L 268.00 226.50 L 269.00 226.50 L 270.00 226.50 L 271.00 226.50 L 272.00 226.50 L 273.00 226.50 L 274.00 226.50 L 275.00 226.50 L 276.00 226.50 L 277.00 226.50 L 278.00 226.50 L 279.00 226.50 L 279.50 227.00 L 279.50 228.00 L 279.50 229.00 L 279.50 230.00 L 279.50 231.00 L 279.50 232.00 L 279.50 233.00 L 279.50 234.00 L 279.50 235.00 L 279.00 235.50 Z M 152.00 239.50 L 151.00 239.50 L 150.00 239.50 L 149.00 239.50 L 148.00 239.50 L 147.00 239.50 L 146.00 239.50 L 145.00 239.50 L 144.00 239.50 L 143.00 239.50 L 142.00 239.50 L 141.00 239.50 L 140.00 239.50 L 139.00 239.50 L 138.00 239.50 L 137.00 239.50 L 136.00 239.50 L 135.00 239.50 L 134.00 239.50 L 133.00 239.50 L 132.00 239.50 L 131.00 239.50 L 130.00 239.50 L 129.00 239.50 L 128.50 239.00 L 129.00 238.50 L 130.00 238.50 L 131.00 238.50 L 132.00 238.50 L 133.00 238.50 L 134.00 238.50 L 135.00 238.50 L 136.00 238.50 L 137.00 238.50 L 138.00 238.50 L 139.00 238.50 L 140.00 238.50 L 141.00 238.50 L 142.00 238.50 L 143.00 238.50 L 144.00 238.50 L 145.00 238.50 L 146.00 238.50 L 147.00 238.50 L 148.00 238.50 L 149.00 238.50 L 150.00 238.50 L 151.00 238.50 L 152.00 238.50 L 152.50 239.00 L 152.00 239.50 Z M 312.00 247.50 L 311.00 247.50 L 310.00 247.50 L 309.00 247.50 L 308.00 247.50 L 307.00 247.50 L 306.00 247.50 L 305.00 247.50 L 304.00 247.50 L 303.00 247.50 L 302.00 247.50 L 301.00 247.50 L 300.00 247.50 L 299.00 247.50 L 298.00 247.50 L 297.00 247.50 L 296.00 247.50 L 295.00 247.50 L 294.50 247.00 L 295.00 246.50 L 296.00 246.50 L 297.00 246.50 L 298.00 246.50 L 299.00 246.50 L 300.00 246.50 L 301.00 246.50 L 302.00 246.50 L 303.00 246.50 L 304.00 246.50 L 305.00 246.50 L 306.00 246.50 L 307.00 246.50 L 308.00 246.50 L 309.00 246.50 L 310.00 246.50 L 311.00 246.50 L 312.00 246.50 L 312.50 247.00 L 312.00 247.50 Z M 243.00 279.50 L 242.00 279.50 L 241.00 279.50 L 240.00 279.50 L 239.00 279.50 L 238.00 279.50 L 237.00 279.50 L 236.00 279.50 L 235.00 279.50 L 234.00 279.50 L 233.00 279.50 L 232.00 279.50 L 231.00 279.50 L 230.00 279.50 L 229.00 279.50 L 228.00 279.50 L 227.00 279.50 L 226.00 279.50 L 225.50 279.00 L 225.50 278.00 L 225.50 277.00 L 225.50 276.00 L 225.50 275.00 L 225.50 274.00 L 225.50 273.00 L 225.50 272.00 L 225.50 271.00 L 225.50 270.00 L 225.50 269.00 L 225.50 268.00 L 225.50 267.00 L 225.50 266.00 L 225.50 265.00 L 225.50 264.00 L 225.50 263.00 L 225.50 262.00 L 225.50 261.00 L 225.50 260.00 L 225.50 259.00 L 225.50 258.00 L 225.50 257.00 L 225.50 256.00 L 225.50 255.00 L 225.50 254.00 L 225.50 253.00 L 225.50 252.00 L 225.50 251.00 L 225.50 250.00 L 225.50 249.00 L 225.50 248.00 L 226.00 247.50 L 226.50 248.00 L 226.50 249.00 L 226.50 250.00 L 226.50 251.00 L 226.50 252.00 L 226.50 253.00 L 226.50 254.00 L 226.50 255.00 L 226.50 256.00 L 226.50 257.00 L 226.50 258.00 L 226.50 259.00 L 226.50 260.00 L 226.50 261.00 L 226.50 262.00 L 226.50 263.00 L 226.50 264.00 L 226.50 265.00 L 226.50 266.00 L 226.50 267.00 L 226.50 268.00 L 226.50 269.00 L 226.50 270.00 L 226.50 271.00 L 226.50 272.00 L 226.50 273.00 L 226.50 274.00 L 226.50 275.00 L 226.50 276.00 L 226.50 277.00 L 226.50 278.00 L 227.00 278.50 L 228.00 278.50 L 229.00 278.50 L 230.00 278.50 L 231.00 278.50 L 232.00 278.50 L 233.00 278.50 L 234.00 278.50 L 235.00 278.50 L 236.00 278.50 L 237.00 278.50 L 238.00 278.50 L 239.00 278.50 L 240.00 278.50 L 241.00 278.50 L 242.00 278.50 L 243.00 278.50 L 243.50 279.00 L 243.00 279.50 Z M 316.00 287.50 L 315.00 287.50 L 314.00 287.50 L 313.00 287.50 L 312.00 287.50 L 311.00 287.50 L 310.00 287.50 L 309.00 287.50 L 308.00 287.50 L 307.00 287.50 L 306.00 287.50 L 305.00 287.50 L 304.00 287.50 L 303.00 287.50 L 302.00 287.50 L 301.00 287.50 L 300.00 287.50 L 299.00 287.50 L 298.00 287.50 L 297.00 287.50 L 296.00 287.50 L 295.00 287.50 L 294.00 287.50 L 293.50 287.00 L 293.50 286.00 L 293.50 285.00 L 293.50 284.00 L 293.50 283.00 L 293.50 282.00 L 293.50 281.00 L 293.50 280.00 L 293.50 279.00 L 293.50 278.00 L 293.50 277.00 L 293.50 276.00 L 293.50 275.00 L 293.50 274.00 L 293.50 273.00 L 293.50 272.00 L 293.50 271.00 L 293.50 270.00 L 293.50 269.00 L 293.50 268.00 L 293.50 267.00 L 293.50 266.00 L 293.50 265.00 L 293.50 264.00 L 293.50 263.00 L 293.50 262.00 L 293.50 261.00 L 293.50 260.00 L 293.50 259.00 L 293.50 258.00 L 293.50 257.00 L 293.50 256.00 L 293.50 255.00 L 293.50 254.00 L 293.50 253.00 L 293.50 252.00 L 293.50 251.00 L 293.50 250.00 L 293.50 249.00 L 293.50 248.00 L 294.00 247.50 L 294.50 248.00 L 294.50 249.00 L 294.50 250.00 L 294.50 251.00 L 294.50 252.00 L 294.50 253.00 L 294.50 254.00 L 294.50 255.00 L 294.50 256.00 L 294.50 257.00 L 294.50 258.00 L 294.50 259.00 L 294.50 260.00 L 294.50 261.00 L 294.50 262.00 L 294.50 263.00 L 294.50 264.00 L 294.50 265.00 L 294.50 266.00 L 294.50 267.00 L 294.50 268.00 L 294.50 269.00 L 294.50 270.00 L 294.50 271.00 L 294.50 272.00 L 294.50 273.00 L 294.50 274.00 L 294.50 275.00 L 294.50 276.00 L 294.50 277.00 L 294.50 278.00 L 294.50 279.00 L 294.50 280.00 L 294.50 281.00 L 294.50 282.00 L 294.50 283.00 L 294.50 284.00 L 294.50 285.00 L 294.50 286.00 L 295.00 286.50 L 296.00 286.50 L 297.00 286.50 L 298.00 286.50 L 299.00 286.50 L 300.00 286.50 L 301.00 286.50 L 302.00 286.50 L 303.00 286.50 L 304.00 286.50 L 305.00 286.50 L 306.00 286.50 L 307.00 286.50 L 308.00 286.50 L 309.00 286.50 L 310.00 286.50 L 311.00 286.50 L 312.00 286.50 L 313.00 286.50 L 314.00 286.50 L 315.00 286.50 L 316.00 286.50 L 316.50 287.00 L 316.00 287.50 Z M 142.00 277.50 L 141.00 277.50 L 140.00 277.50 L 139.00 277.50 L 138.00 277.50 L 137.00 277.50 L 136.00 277.50 L 135.00 277.50 L 134.00 277.50 L 133.00 277.50 L 132.00 277.50 L 131.00 277.50 L 130.00 277.50 L 129.00 277.50 L 128.00 277.50 L 127.00 277.50 L 126.00 277.50 L 125.00 277.50 L 124.00 277.50 L 123.00 277.50 L 122.00 277.50 L 121.00 277.50 L 120.00 277.50 L 119.00 277.50 L 118.00 277.50 L 117.00 277.50 L 116.00 277.50 L 115.00 277.50 L 114.00 277.50 L 113.00 277.50 L 112.00 277.50 L 111.00 277.50 L 110.00 277.50 L 109.00 277.50 L 108.00 277.50 L 107.00 277.50 L 106.00 277.50 L 105.00 277.50 L 104.00 277.50 L 103.00 277.50 L 102.50 277.00 L 103.00 276.50 L 104.00 276.50 L 105.00 276.50 L 106.00 276.50 L 107.00 276.50 L 108.00 276.50 L 109.00 276.50 L 110.00 276.50 L 111.00 276.50 L 112.00 276.50 L 113.00 276.50 L 114.00 276.50 L 115.00 276.50 L 116.00 276.50 L 117.00 276.50 L 118.00 276.50 L 119.00 276.50 L 120.00 276.50 L 121.00 276.50 L 122.00 276.50 L 123.00 276.50 L 124.00 276.50 L 125.00 276.50 L 126.00 276.50 L 127.00 276.50 L 128.00 276.50 L 129.00 276.50 L 130.00 276.50 L 131.00 276.50 L 132.00 276.50 L 133.00 276.50 L 134.00 276.50 L 135.00 276.50 L 136.00 276.50 L 137.00 276.50 L 138.00 276.50 L 139.00 276.50 L 140.00 276.50 L 141.00 276.50 L 142.00 276.50 L 142.50 277.00 L 142.00 277.50 Z M 243.00 287.50 L 242.00 287.50 L 241.00 287.50 L 240.00 287.50 L 239.00 287.50 L 238.00 287.50 L 237.00 287.50 L 236.00 287.50 L 235.00 287.50 L 234.00 287.50 L 233.00 287.50 L 232.00 287.50 L 231.00 287.50 L 230.00 287.50 L 229.00 287.50 L 228.00 287.50 L 227.00 287.50 L 226.00 287.50 L 225.00 287.50 L 224.00 287.50 L 223.00 287.50 L 222.00 287.50 L 221.00 287.50 L 220.00 287.50 L 219.00 287.50 L 218.00 287.50 L 217.00 287.50 L 216.50 287.00 L 217.00 286.50 L 218.00 286.50 L 219.00 286.50 L 220.00 286.50 L 221.00 286.50 L 222.00 286.50 L 223.00 286.50 L 224.00 286.50 L 225.00 286.50 L 226.00 286.50 L 227.00 286.50 L 228.00 286.50 L 229.00 286.50 L 230.00 286.50 L 231.00 286.50 L 232.00 286.50 L 233.00 286.50 L 234.00 286.50 L 235.00 286.50 L 236.00 286.50 L 237.00 286.50 L 238.00 286.50 L 239.00 286.50 L 240.00 286.50 L 241.00 286.50 L 242.00 286.50 L 243.00 286.50 L 243.50 287.00 L 243.00 287.50 Z" style="fill:#685345;"/>
</svg>